<ttFont>
    <TTGlyph name=".notdef" xMin="31" yMin="-15" xMax="568" yMax="774">
      <contour>
        <pt x="394" y="103" on="1"/>
        <pt x="396" y="103" on="0"/>
        <pt x="396" y="107" on="1"/>
        <pt x="396" y="109" on="0"/>
        <pt x="301" y="277" on="1"/>
        <pt x="300" y="278" on="0"/>
        <pt x="299" y="278" on="1"/>
        <pt x="299" y="278" on="0"/>
        <pt x="298" y="276" on="1"/>
        <pt x="203" y="109" on="0"/>
        <pt x="203" y="107" on="1"/>
        <pt x="203" y="103" on="0"/>
        <pt x="206" y="103" on="1"/>
      </contour>
      <contour>
        <pt x="144" y="239" on="1"/>
        <pt x="146" y="239" on="0"/>
        <pt x="147" y="240" on="1"/>
        <pt x="238" y="378" on="0"/>
        <pt x="238" y="380" on="1"/>
        <pt x="238" y="381" on="0"/>
        <pt x="147" y="519" on="1"/>
        <pt x="146" y="520" on="0"/>
        <pt x="144" y="520" on="1"/>
        <pt x="140" y="520" on="0"/>
        <pt x="140" y="518" on="1"/>
        <pt x="140" y="241" on="1"/>
        <pt x="140" y="239" on="0"/>
      </contour>
      <contour>
        <pt x="494" y="-15" on="1"/>
        <pt x="104" y="-15" on="1"/>
        <pt x="72" y="-15" on="0"/>
        <pt x="31" y="32" on="0"/>
        <pt x="31" y="60" on="1"/>
        <pt x="31" y="698" on="1"/>
        <pt x="31" y="729" on="0"/>
        <pt x="72" y="774" on="0"/>
        <pt x="104" y="774" on="1"/>
        <pt x="494" y="774" on="1"/>
        <pt x="527" y="774" on="0"/>
        <pt x="568" y="728" on="0"/>
        <pt x="568" y="698" on="1"/>
        <pt x="568" y="60" on="1"/>
        <pt x="568" y="32" on="0"/>
        <pt x="527" y="-15" on="0"/>
      </contour>
      <contour>
        <pt x="455" y="239" on="1"/>
        <pt x="459" y="239" on="0"/>
        <pt x="459" y="241" on="1"/>
        <pt x="459" y="518" on="1"/>
        <pt x="459" y="520" on="0"/>
        <pt x="455" y="520" on="1"/>
        <pt x="453" y="520" on="0"/>
        <pt x="452" y="518" on="1"/>
        <pt x="362" y="382" on="0"/>
        <pt x="362" y="380" on="1"/>
        <pt x="362" y="378" on="0"/>
        <pt x="452" y="240" on="1"/>
        <pt x="453" y="239" on="0"/>
      </contour>
      <contour>
        <pt x="299" y="483" on="1"/>
        <pt x="301" y="483" on="0"/>
        <pt x="301" y="484" on="1"/>
        <pt x="396" y="652" on="0"/>
        <pt x="396" y="653" on="1"/>
        <pt x="396" y="657" on="0"/>
        <pt x="394" y="657" on="1"/>
        <pt x="206" y="657" on="1"/>
        <pt x="203" y="657" on="0"/>
        <pt x="203" y="653" on="1"/>
        <pt x="203" y="652" on="0"/>
        <pt x="298" y="484" on="1"/>
        <pt x="299" y="483" on="0"/>
      </contour>
    </TTGlyph>
    <TTGlyph name="A" xMin="12" yMin="-20" xMax="589" yMax="770">
      <contour>
        <pt x="530" y="-20" on="1"/>
        <pt x="512" y="-20" on="0"/>
        <pt x="479" y="3" on="0"/>
        <pt x="473" y="22" on="1"/>
        <pt x="429" y="163" on="1"/>
        <pt x="422" y="185" on="0"/>
        <pt x="398" y="185" on="1"/>
        <pt x="203" y="185" on="1"/>
        <pt x="179" y="185" on="0"/>
        <pt x="172" y="163" on="1"/>
        <pt x="128" y="22" on="1"/>
        <pt x="122" y="3" on="0"/>
        <pt x="89" y="-20" on="0"/>
        <pt x="71" y="-20" on="1"/>
        <pt x="47" y="-20" on="0"/>
        <pt x="12" y="16" on="0"/>
        <pt x="12" y="39" on="1"/>
        <pt x="12" y="47" on="0"/>
        <pt x="15" y="58" on="1"/>
        <pt x="225" y="714" on="1"/>
        <pt x="232" y="738" on="0"/>
        <pt x="273" y="769" on="0"/>
        <pt x="298" y="770" on="1"/>
        <pt x="326" y="770" on="0"/>
        <pt x="369" y="738" on="0"/>
        <pt x="376" y="714" on="1"/>
        <pt x="586" y="58" on="1"/>
        <pt x="589" y="47" on="0"/>
        <pt x="589" y="39" on="1"/>
        <pt x="589" y="16" on="0"/>
        <pt x="554" y="-20" on="0"/>
      </contour>
      <contour>
        <pt x="301" y="305" on="1"/>
        <pt x="376" y="305" on="0"/>
        <pt x="379" y="308" on="0"/>
        <pt x="379" y="311" on="1"/>
        <pt x="378" y="316" on="0"/>
        <pt x="301" y="561" on="1"/>
        <pt x="302" y="561" on="0"/>
        <pt x="301" y="561" on="1"/>
        <pt x="301" y="561" on="1"/>
        <pt x="300" y="561" on="1"/>
        <pt x="223" y="316" on="1"/>
        <pt x="222" y="311" on="1"/>
        <pt x="222" y="308" on="0"/>
        <pt x="225" y="305" on="0"/>
      </contour>
    </TTGlyph>
    <TTGlyph name="B" xMin="77" yMin="-14" xMax="554" yMax="766">
      <contour>
        <pt x="316" y="-14" on="1"/>
        <pt x="139" y="-14" on="1"/>
        <pt x="115" y="-14" on="0"/>
        <pt x="77" y="24" on="0"/>
        <pt x="77" y="48" on="1"/>
        <pt x="77" y="704" on="1"/>
        <pt x="77" y="728" on="0"/>
        <pt x="115" y="766" on="0"/>
        <pt x="139" y="766" on="1"/>
        <pt x="316" y="766" on="1"/>
        <pt x="405" y="766" on="0"/>
        <pt x="527" y="639" on="0"/>
        <pt x="527" y="553" on="1"/>
        <pt x="527" y="467" on="0"/>
        <pt x="470" y="406" on="1"/>
        <pt x="470" y="404" on="1"/>
        <pt x="468" y="406" on="1"/>
        <pt x="512" y="366" on="0"/>
        <pt x="554" y="282" on="0"/>
        <pt x="554" y="223" on="1"/>
        <pt x="554" y="124" on="0"/>
        <pt x="413" y="-14" on="0"/>
      </contour>
      <contour>
        <pt x="316" y="461" on="1"/>
        <pt x="354" y="461" on="0"/>
        <pt x="407" y="512" on="0"/>
        <pt x="407" y="553" on="1"/>
        <pt x="407" y="595" on="0"/>
        <pt x="355" y="646" on="0"/>
        <pt x="316" y="646" on="1"/>
        <pt x="201" y="646" on="0"/>
        <pt x="197" y="643" on="0"/>
        <pt x="197" y="638" on="1"/>
        <pt x="197" y="464" on="0"/>
        <pt x="201" y="461" on="0"/>
      </contour>
      <contour>
        <pt x="316" y="106" on="1"/>
        <pt x="367" y="106" on="0"/>
        <pt x="434" y="173" on="0"/>
        <pt x="434" y="223" on="1"/>
        <pt x="434" y="272" on="0"/>
        <pt x="372" y="339" on="0"/>
        <pt x="317" y="341" on="1"/>
        <pt x="206" y="341" on="1"/>
        <pt x="201" y="341" on="0"/>
        <pt x="197" y="338" on="0"/>
        <pt x="197" y="333" on="1"/>
        <pt x="197" y="109" on="0"/>
        <pt x="201" y="106" on="0"/>
        <pt x="206" y="106" on="1"/>
      </contour>
    </TTGlyph>
    <TTGlyph name="C" xMin="69" yMin="-20" xMax="539" yMax="770">
      <contour>
        <pt x="369" y="-20" on="1"/>
        <pt x="233" y="-20" on="0"/>
        <pt x="149" y="88" on="1"/>
        <pt x="69" y="198" on="0"/>
        <pt x="69" y="375" on="1"/>
        <pt x="72" y="555" on="0"/>
        <pt x="149" y="662" on="1"/>
        <pt x="233" y="770" on="0"/>
        <pt x="369" y="770" on="1"/>
        <pt x="539" y="770" on="0"/>
        <pt x="539" y="693" on="1"/>
        <pt x="539" y="665" on="0"/>
        <pt x="519" y="648" on="1"/>
        <pt x="505" y="635" on="0"/>
        <pt x="486" y="635" on="1"/>
        <pt x="477" y="635" on="0"/>
        <pt x="466" y="641" on="1"/>
        <pt x="445" y="652" on="0"/>
        <pt x="373" y="652" on="1"/>
        <pt x="300" y="650" on="0"/>
        <pt x="189" y="513" on="0"/>
        <pt x="189" y="379" on="1"/>
        <pt x="189" y="238" on="0"/>
        <pt x="290" y="101" on="0"/>
        <pt x="373" y="99" on="1"/>
        <pt x="433" y="99" on="0"/>
        <pt x="465" y="115" on="1"/>
        <pt x="474" y="120" on="0"/>
        <pt x="484" y="120" on="1"/>
        <pt x="506" y="120" on="0"/>
        <pt x="519" y="108" on="1"/>
        <pt x="539" y="91" on="0"/>
        <pt x="539" y="58" on="1"/>
        <pt x="539" y="15" on="0"/>
        <pt x="495" y="1" on="1"/>
        <pt x="434" y="-20" on="0"/>
      </contour>
    </TTGlyph>
    <TTGlyph name="D" xMin="75" yMin="-15" xMax="545" yMax="765">
      <contour>
        <pt x="220" y="105" on="1"/>
        <pt x="329" y="105" on="0"/>
        <pt x="425" y="210" on="0"/>
        <pt x="425" y="340" on="1"/>
        <pt x="425" y="442" on="0"/>
        <pt x="410" y="568" on="0"/>
        <pt x="381" y="598" on="1"/>
        <pt x="346" y="632" on="0"/>
        <pt x="256" y="645" on="0"/>
        <pt x="204" y="645" on="1"/>
        <pt x="199" y="645" on="0"/>
        <pt x="195" y="642" on="0"/>
        <pt x="195" y="637" on="1"/>
        <pt x="195" y="108" on="0"/>
        <pt x="199" y="105" on="0"/>
      </contour>
      <contour>
        <pt x="220" y="-15" on="1"/>
        <pt x="137" y="-15" on="1"/>
        <pt x="113" y="-15" on="0"/>
        <pt x="75" y="23" on="0"/>
        <pt x="75" y="47" on="1"/>
        <pt x="75" y="703" on="1"/>
        <pt x="75" y="727" on="0"/>
        <pt x="113" y="765" on="0"/>
        <pt x="137" y="765" on="1"/>
        <pt x="230" y="765" on="1"/>
        <pt x="385" y="765" on="0"/>
        <pt x="545" y="600" on="0"/>
        <pt x="545" y="410" on="1"/>
        <pt x="545" y="340" on="1"/>
        <pt x="545" y="150" on="0"/>
        <pt x="383" y="-15" on="0"/>
      </contour>
    </TTGlyph>
    <TTGlyph name="E" xMin="85" yMin="-15" xMax="544" yMax="765">
      <contour>
        <pt x="484" y="-15" on="1"/>
        <pt x="147" y="-15" on="1"/>
        <pt x="123" y="-15" on="0"/>
        <pt x="85" y="23" on="0"/>
        <pt x="85" y="47" on="1"/>
        <pt x="85" y="703" on="1"/>
        <pt x="85" y="727" on="0"/>
        <pt x="123" y="765" on="0"/>
        <pt x="147" y="765" on="1"/>
        <pt x="484" y="765" on="1"/>
        <pt x="507" y="765" on="0"/>
        <pt x="544" y="729" on="0"/>
        <pt x="544" y="705" on="1"/>
        <pt x="544" y="682" on="0"/>
        <pt x="507" y="645" on="0"/>
        <pt x="484" y="645" on="1"/>
        <pt x="208" y="645" on="0"/>
        <pt x="205" y="642" on="0"/>
        <pt x="205" y="637" on="1"/>
        <pt x="205" y="464" on="0"/>
        <pt x="208" y="460" on="0"/>
        <pt x="455" y="460" on="1"/>
        <pt x="478" y="460" on="0"/>
        <pt x="515" y="424" on="0"/>
        <pt x="515" y="400" on="1"/>
        <pt x="515" y="377" on="0"/>
        <pt x="478" y="340" on="0"/>
        <pt x="455" y="340" on="1"/>
        <pt x="208" y="340" on="0"/>
        <pt x="205" y="337" on="0"/>
        <pt x="205" y="332" on="1"/>
        <pt x="205" y="109" on="0"/>
        <pt x="208" y="105" on="0"/>
        <pt x="484" y="105" on="1"/>
        <pt x="507" y="105" on="0"/>
        <pt x="544" y="69" on="0"/>
        <pt x="544" y="45" on="1"/>
        <pt x="544" y="22" on="0"/>
        <pt x="507" y="-15" on="0"/>
      </contour>
    </TTGlyph>
    <TTGlyph name="F" xMin="84" yMin="-20" xMax="544" yMax="765">
      <contour>
        <pt x="144" y="-20" on="1"/>
        <pt x="121" y="-20" on="0"/>
        <pt x="84" y="17" on="0"/>
        <pt x="84" y="40" on="1"/>
        <pt x="84" y="703" on="1"/>
        <pt x="84" y="727" on="0"/>
        <pt x="122" y="765" on="0"/>
        <pt x="146" y="765" on="1"/>
        <pt x="484" y="765" on="1"/>
        <pt x="507" y="765" on="0"/>
        <pt x="544" y="729" on="0"/>
        <pt x="544" y="705" on="1"/>
        <pt x="544" y="682" on="0"/>
        <pt x="507" y="645" on="0"/>
        <pt x="484" y="645" on="1"/>
        <pt x="207" y="645" on="0"/>
        <pt x="204" y="642" on="0"/>
        <pt x="204" y="637" on="1"/>
        <pt x="204" y="464" on="0"/>
        <pt x="207" y="460" on="0"/>
        <pt x="455" y="460" on="1"/>
        <pt x="478" y="460" on="0"/>
        <pt x="515" y="424" on="0"/>
        <pt x="515" y="400" on="1"/>
        <pt x="515" y="377" on="0"/>
        <pt x="478" y="340" on="0"/>
        <pt x="455" y="340" on="1"/>
        <pt x="207" y="340" on="0"/>
        <pt x="204" y="337" on="0"/>
        <pt x="204" y="40" on="1"/>
        <pt x="204" y="17" on="0"/>
        <pt x="167" y="-20" on="0"/>
      </contour>
    </TTGlyph>
    <TTGlyph name="G" xMin="59" yMin="-20" xMax="529" yMax="770">
      <contour>
        <pt x="313" y="-20" on="1"/>
        <pt x="229" y="-20" on="0"/>
        <pt x="117" y="81" on="0"/>
        <pt x="61" y="239" on="0"/>
        <pt x="59" y="333" on="1"/>
        <pt x="59" y="417" on="1"/>
        <pt x="62" y="618" on="0"/>
        <pt x="162" y="716" on="1"/>
        <pt x="217" y="770" on="0"/>
        <pt x="315" y="770" on="1"/>
        <pt x="479" y="770" on="0"/>
        <pt x="526" y="592" on="1"/>
        <pt x="529" y="580" on="0"/>
        <pt x="529" y="573" on="1"/>
        <pt x="529" y="547" on="0"/>
        <pt x="496" y="513" on="0"/>
        <pt x="472" y="513" on="1"/>
        <pt x="427" y="513" on="0"/>
        <pt x="415" y="556" on="1"/>
        <pt x="388" y="651" on="0"/>
        <pt x="315" y="651" on="1"/>
        <pt x="270" y="651" on="0"/>
        <pt x="207" y="593" on="0"/>
        <pt x="192" y="531" on="1"/>
        <pt x="179" y="481" on="0"/>
        <pt x="179" y="418" on="1"/>
        <pt x="179" y="333" on="1"/>
        <pt x="180" y="218" on="0"/>
        <pt x="253" y="99" on="0"/>
        <pt x="323" y="99" on="1"/>
        <pt x="368" y="99" on="0"/>
        <pt x="403" y="127" on="1"/>
        <pt x="411" y="132" on="0"/>
        <pt x="411" y="143" on="1"/>
        <pt x="411" y="277" on="1"/>
        <pt x="411" y="285" on="0"/>
        <pt x="404" y="285" on="1"/>
        <pt x="351" y="285" on="1"/>
        <pt x="330" y="285" on="0"/>
        <pt x="292" y="319" on="0"/>
        <pt x="292" y="349" on="1"/>
        <pt x="292" y="375" on="0"/>
        <pt x="327" y="405" on="0"/>
        <pt x="348" y="405" on="1"/>
        <pt x="493" y="405" on="1"/>
        <pt x="509" y="405" on="0"/>
        <pt x="529" y="383" on="0"/>
        <pt x="529" y="367" on="1"/>
        <pt x="529" y="129" on="1"/>
        <pt x="529" y="93" on="0"/>
        <pt x="507" y="68" on="1"/>
        <pt x="427" y="-20" on="0"/>
      </contour>
    </TTGlyph>
    <TTGlyph name="H" xMin="65" yMin="-20" xMax="535" yMax="770">
      <contour>
        <pt x="475" y="-20" on="1"/>
        <pt x="452" y="-20" on="0"/>
        <pt x="415" y="17" on="0"/>
        <pt x="415" y="40" on="1"/>
        <pt x="415" y="312" on="0"/>
        <pt x="412" y="315" on="0"/>
        <pt x="407" y="315" on="1"/>
        <pt x="188" y="315" on="0"/>
        <pt x="185" y="312" on="0"/>
        <pt x="185" y="40" on="1"/>
        <pt x="185" y="17" on="0"/>
        <pt x="148" y="-20" on="0"/>
        <pt x="125" y="-20" on="1"/>
        <pt x="102" y="-20" on="0"/>
        <pt x="65" y="17" on="0"/>
        <pt x="65" y="40" on="1"/>
        <pt x="65" y="710" on="1"/>
        <pt x="65" y="734" on="0"/>
        <pt x="102" y="770" on="0"/>
        <pt x="125" y="770" on="1"/>
        <pt x="148" y="770" on="0"/>
        <pt x="185" y="734" on="0"/>
        <pt x="185" y="710" on="1"/>
        <pt x="185" y="439" on="0"/>
        <pt x="188" y="435" on="0"/>
        <pt x="193" y="435" on="1"/>
        <pt x="412" y="435" on="0"/>
        <pt x="415" y="439" on="0"/>
        <pt x="415" y="710" on="1"/>
        <pt x="415" y="734" on="0"/>
        <pt x="452" y="770" on="0"/>
        <pt x="475" y="770" on="1"/>
        <pt x="498" y="770" on="0"/>
        <pt x="535" y="734" on="0"/>
        <pt x="535" y="710" on="1"/>
        <pt x="535" y="40" on="1"/>
        <pt x="535" y="17" on="0"/>
        <pt x="498" y="-20" on="0"/>
      </contour>
    </TTGlyph>
    <TTGlyph name="I" xMin="75" yMin="-15" xMax="525" yMax="765">
      <contour>
        <pt x="465" y="-15" on="1"/>
        <pt x="135" y="-15" on="1"/>
        <pt x="112" y="-15" on="0"/>
        <pt x="75" y="22" on="0"/>
        <pt x="75" y="45" on="1"/>
        <pt x="75" y="69" on="0"/>
        <pt x="112" y="105" on="0"/>
        <pt x="135" y="105" on="1"/>
        <pt x="237" y="105" on="0"/>
        <pt x="240" y="109" on="0"/>
        <pt x="240" y="114" on="1"/>
        <pt x="240" y="642" on="0"/>
        <pt x="237" y="645" on="0"/>
        <pt x="135" y="645" on="1"/>
        <pt x="112" y="645" on="0"/>
        <pt x="75" y="682" on="0"/>
        <pt x="75" y="705" on="1"/>
        <pt x="75" y="729" on="0"/>
        <pt x="112" y="765" on="0"/>
        <pt x="135" y="765" on="1"/>
        <pt x="465" y="765" on="1"/>
        <pt x="488" y="765" on="0"/>
        <pt x="525" y="729" on="0"/>
        <pt x="525" y="705" on="1"/>
        <pt x="525" y="682" on="0"/>
        <pt x="488" y="645" on="0"/>
        <pt x="465" y="645" on="1"/>
        <pt x="363" y="645" on="0"/>
        <pt x="360" y="642" on="0"/>
        <pt x="360" y="637" on="1"/>
        <pt x="360" y="109" on="0"/>
        <pt x="363" y="105" on="0"/>
        <pt x="465" y="105" on="1"/>
        <pt x="488" y="105" on="0"/>
        <pt x="525" y="69" on="0"/>
        <pt x="525" y="45" on="1"/>
        <pt x="525" y="22" on="0"/>
        <pt x="488" y="-15" on="0"/>
      </contour>
    </TTGlyph>
    <TTGlyph name="J" xMin="55" yMin="-20" xMax="515" yMax="765">
      <contour>
        <pt x="300" y="-20" on="1"/>
        <pt x="243" y="-20" on="0"/>
        <pt x="152" y="5" on="0"/>
        <pt x="113" y="43" on="1"/>
        <pt x="63" y="91" on="0"/>
        <pt x="55" y="148" on="1"/>
        <pt x="55" y="172" on="0"/>
        <pt x="92" y="210" on="0"/>
        <pt x="116" y="210" on="1"/>
        <pt x="135" y="210" on="0"/>
        <pt x="168" y="186" on="0"/>
        <pt x="181" y="145" on="0"/>
        <pt x="198" y="127" on="1"/>
        <pt x="226" y="97" on="0"/>
        <pt x="281" y="97" on="1"/>
        <pt x="309" y="97" on="0"/>
        <pt x="348" y="108" on="0"/>
        <pt x="367" y="127" on="1"/>
        <pt x="395" y="155" on="0"/>
        <pt x="395" y="195" on="1"/>
        <pt x="395" y="642" on="0"/>
        <pt x="392" y="645" on="0"/>
        <pt x="245" y="645" on="1"/>
        <pt x="221" y="645" on="0"/>
        <pt x="185" y="683" on="0"/>
        <pt x="185" y="705" on="1"/>
        <pt x="185" y="728" on="0"/>
        <pt x="222" y="765" on="0"/>
        <pt x="245" y="765" on="1"/>
        <pt x="453" y="765" on="1"/>
        <pt x="477" y="765" on="0"/>
        <pt x="515" y="727" on="0"/>
        <pt x="515" y="704" on="1"/>
        <pt x="515" y="195" on="1"/>
        <pt x="515" y="108" on="0"/>
        <pt x="453" y="43" on="1"/>
        <pt x="387" y="-20" on="0"/>
      </contour>
    </TTGlyph>
    <TTGlyph name="K" xMin="69" yMin="-20" xMax="556" yMax="770">
      <contour>
        <pt x="496" y="-20" on="1"/>
        <pt x="480" y="-20" on="0"/>
        <pt x="451" y="-3" on="0"/>
        <pt x="443" y="10" on="1"/>
        <pt x="257" y="323" on="1"/>
        <pt x="255" y="327" on="0"/>
        <pt x="250" y="327" on="1"/>
        <pt x="245" y="327" on="0"/>
        <pt x="243" y="324" on="1"/>
        <pt x="196" y="267" on="1"/>
        <pt x="192" y="262" on="0"/>
        <pt x="189" y="253" on="0"/>
        <pt x="189" y="39" on="1"/>
        <pt x="189" y="16" on="0"/>
        <pt x="152" y="-20" on="0"/>
        <pt x="129" y="-20" on="1"/>
        <pt x="106" y="-20" on="0"/>
        <pt x="69" y="16" on="0"/>
        <pt x="69" y="39" on="1"/>
        <pt x="69" y="710" on="1"/>
        <pt x="69" y="733" on="0"/>
        <pt x="106" y="770" on="0"/>
        <pt x="129" y="770" on="1"/>
        <pt x="152" y="770" on="0"/>
        <pt x="189" y="733" on="0"/>
        <pt x="189" y="710" on="1"/>
        <pt x="189" y="467" on="0"/>
        <pt x="193" y="463" on="0"/>
        <pt x="198" y="463" on="1"/>
        <pt x="202" y="463" on="0"/>
        <pt x="204" y="466" on="1"/>
        <pt x="423" y="747" on="1"/>
        <pt x="444" y="770" on="0"/>
        <pt x="470" y="770" on="1"/>
        <pt x="495" y="770" on="0"/>
        <pt x="530" y="731" on="0"/>
        <pt x="530" y="709" on="1"/>
        <pt x="530" y="692" on="0"/>
        <pt x="517" y="673" on="1"/>
        <pt x="336" y="440" on="1"/>
        <pt x="334" y="437" on="0"/>
        <pt x="334" y="434" on="1"/>
        <pt x="334" y="432" on="0"/>
        <pt x="335" y="431" on="1"/>
        <pt x="548" y="69" on="1"/>
        <pt x="556" y="53" on="0"/>
        <pt x="556" y="39" on="1"/>
        <pt x="556" y="17" on="0"/>
        <pt x="520" y="-20" on="0"/>
      </contour>
    </TTGlyph>
    <TTGlyph name="L" xMin="99" yMin="-15" xMax="549" yMax="770">
      <contour>
        <pt x="490" y="-15" on="1"/>
        <pt x="184" y="-15" on="1"/>
        <pt x="150" y="-15" on="0"/>
        <pt x="99" y="36" on="0"/>
        <pt x="99" y="70" on="1"/>
        <pt x="99" y="710" on="1"/>
        <pt x="99" y="733" on="0"/>
        <pt x="134" y="770" on="0"/>
        <pt x="159" y="770" on="1"/>
        <pt x="186" y="768" on="0"/>
        <pt x="219" y="731" on="0"/>
        <pt x="219" y="709" on="1"/>
        <pt x="219" y="137" on="1"/>
        <pt x="219" y="107" on="0"/>
        <pt x="250" y="105" on="1"/>
        <pt x="488" y="105" on="1"/>
        <pt x="511" y="105" on="0"/>
        <pt x="549" y="70" on="0"/>
        <pt x="549" y="45" on="1"/>
        <pt x="549" y="21" on="0"/>
        <pt x="513" y="-15" on="0"/>
      </contour>
    </TTGlyph>
    <TTGlyph name="M" xMin="55" yMin="-20" xMax="545" yMax="770">
      <contour>
        <pt x="485" y="-20" on="1"/>
        <pt x="462" y="-20" on="0"/>
        <pt x="425" y="17" on="0"/>
        <pt x="425" y="40" on="1"/>
        <pt x="425" y="480" on="1"/>
        <pt x="427" y="479" on="0"/>
        <pt x="428" y="477" on="1"/>
        <pt x="431" y="479" on="1"/>
        <pt x="368" y="325" on="1"/>
        <pt x="359" y="306" on="0"/>
        <pt x="320" y="281" on="0"/>
        <pt x="299" y="281" on="1"/>
        <pt x="278" y="281" on="0"/>
        <pt x="240" y="306" on="0"/>
        <pt x="231" y="325" on="1"/>
        <pt x="168" y="479" on="1"/>
        <pt x="172" y="477" on="1"/>
        <pt x="172" y="478" on="1"/>
        <pt x="172" y="478" on="0"/>
        <pt x="174" y="479" on="1"/>
        <pt x="175" y="480" on="1"/>
        <pt x="175" y="40" on="1"/>
        <pt x="175" y="16" on="0"/>
        <pt x="138" y="-20" on="0"/>
        <pt x="115" y="-20" on="1"/>
        <pt x="92" y="-20" on="0"/>
        <pt x="55" y="17" on="0"/>
        <pt x="55" y="40" on="1"/>
        <pt x="55" y="700" on="1"/>
        <pt x="55" y="727" on="0"/>
        <pt x="97" y="770" on="0"/>
        <pt x="124" y="770" on="1"/>
        <pt x="144" y="770" on="0"/>
        <pt x="179" y="746" on="0"/>
        <pt x="188" y="728" on="1"/>
        <pt x="292" y="490" on="1"/>
        <pt x="294" y="485" on="0"/>
        <pt x="300" y="485" on="1"/>
        <pt x="305" y="485" on="0"/>
        <pt x="307" y="490" on="1"/>
        <pt x="411" y="728" on="1"/>
        <pt x="420" y="746" on="0"/>
        <pt x="455" y="770" on="0"/>
        <pt x="475" y="770" on="1"/>
        <pt x="502" y="770" on="0"/>
        <pt x="545" y="727" on="0"/>
        <pt x="545" y="700" on="1"/>
        <pt x="545" y="40" on="1"/>
        <pt x="545" y="16" on="0"/>
        <pt x="508" y="-20" on="0"/>
      </contour>
    </TTGlyph>
    <TTGlyph name="N" xMin="65" yMin="-20" xMax="535" yMax="770">
      <contour>
        <pt x="465" y="-20" on="1"/>
        <pt x="446" y="-20" on="0"/>
        <pt x="410" y="2" on="0"/>
        <pt x="401" y="21" on="1"/>
        <pt x="178" y="508" on="1"/>
        <pt x="182" y="506" on="1"/>
        <pt x="185" y="509" on="1"/>
        <pt x="185" y="40" on="1"/>
        <pt x="185" y="17" on="0"/>
        <pt x="148" y="-20" on="0"/>
        <pt x="125" y="-20" on="1"/>
        <pt x="102" y="-20" on="0"/>
        <pt x="65" y="17" on="0"/>
        <pt x="65" y="40" on="1"/>
        <pt x="65" y="700" on="1"/>
        <pt x="65" y="727" on="0"/>
        <pt x="108" y="770" on="0"/>
        <pt x="135" y="770" on="1"/>
        <pt x="154" y="770" on="0"/>
        <pt x="190" y="747" on="0"/>
        <pt x="199" y="729" on="1"/>
        <pt x="422" y="242" on="1"/>
        <pt x="418" y="244" on="1"/>
        <pt x="418" y="243" on="1"/>
        <pt x="418" y="243" on="0"/>
        <pt x="416" y="242" on="1"/>
        <pt x="415" y="241" on="1"/>
        <pt x="415" y="710" on="1"/>
        <pt x="415" y="733" on="0"/>
        <pt x="452" y="770" on="0"/>
        <pt x="475" y="770" on="1"/>
        <pt x="498" y="770" on="0"/>
        <pt x="535" y="733" on="0"/>
        <pt x="535" y="710" on="1"/>
        <pt x="535" y="50" on="1"/>
        <pt x="535" y="22" on="0"/>
        <pt x="492" y="-20" on="0"/>
      </contour>
    </TTGlyph>
    <TTGlyph name="O" xMin="55" yMin="-20" xMax="545" yMax="770">
      <contour>
        <pt x="300" y="-20" on="1"/>
        <pt x="163" y="-20" on="0"/>
        <pt x="103" y="109" on="1"/>
        <pt x="55" y="213" on="0"/>
        <pt x="55" y="375" on="1"/>
        <pt x="55" y="536" on="0"/>
        <pt x="104" y="640" on="1"/>
        <pt x="164" y="770" on="0"/>
        <pt x="300" y="770" on="1"/>
        <pt x="436" y="770" on="0"/>
        <pt x="497" y="640" on="1"/>
        <pt x="545" y="536" on="0"/>
        <pt x="545" y="375" on="1"/>
        <pt x="545" y="214" on="0"/>
        <pt x="496" y="109" on="1"/>
        <pt x="435" y="-20" on="0"/>
      </contour>
      <contour>
        <pt x="300" y="119" on="1"/>
        <pt x="350" y="119" on="0"/>
        <pt x="404" y="195" on="0"/>
        <pt x="424" y="313" on="0"/>
        <pt x="424" y="375" on="1"/>
        <pt x="424" y="630" on="0"/>
        <pt x="300" y="630" on="1"/>
        <pt x="248" y="630" on="0"/>
        <pt x="195" y="558" on="0"/>
        <pt x="175" y="441" on="0"/>
        <pt x="175" y="375" on="1"/>
        <pt x="175" y="308" on="0"/>
        <pt x="195" y="192" on="0"/>
        <pt x="249" y="119" on="0"/>
      </contour>
    </TTGlyph>
    <TTGlyph name="P" xMin="105" yMin="-20" xMax="555" yMax="765">
      <contour>
        <pt x="165" y="-20" on="1"/>
        <pt x="142" y="-20" on="0"/>
        <pt x="105" y="17" on="0"/>
        <pt x="105" y="40" on="1"/>
        <pt x="105" y="703" on="1"/>
        <pt x="105" y="727" on="0"/>
        <pt x="143" y="765" on="0"/>
        <pt x="167" y="765" on="1"/>
        <pt x="344" y="765" on="1"/>
        <pt x="430" y="765" on="0"/>
        <pt x="494" y="702" on="1"/>
        <pt x="555" y="638" on="0"/>
        <pt x="555" y="552" on="1"/>
        <pt x="555" y="448" on="0"/>
        <pt x="429" y="320" on="0"/>
        <pt x="344" y="320" on="1"/>
        <pt x="229" y="320" on="0"/>
        <pt x="225" y="317" on="0"/>
        <pt x="225" y="40" on="1"/>
        <pt x="225" y="17" on="0"/>
        <pt x="189" y="-20" on="0"/>
      </contour>
      <contour>
        <pt x="344" y="440" on="1"/>
        <pt x="383" y="440" on="0"/>
        <pt x="409" y="467" on="1"/>
        <pt x="422" y="481" on="0"/>
        <pt x="435" y="517" on="0"/>
        <pt x="435" y="552" on="1"/>
        <pt x="435" y="594" on="0"/>
        <pt x="383" y="645" on="0"/>
        <pt x="344" y="645" on="1"/>
        <pt x="229" y="645" on="0"/>
        <pt x="225" y="642" on="0"/>
        <pt x="225" y="636" on="1"/>
        <pt x="225" y="443" on="0"/>
        <pt x="229" y="440" on="0"/>
      </contour>
    </TTGlyph>
    <TTGlyph name="Q" xMin="55" yMin="-215" xMax="578" yMax="770">
      <contour>
        <pt x="300" y="-20" on="1"/>
        <pt x="163" y="-20" on="0"/>
        <pt x="103" y="109" on="1"/>
        <pt x="55" y="213" on="0"/>
        <pt x="55" y="375" on="1"/>
        <pt x="55" y="536" on="0"/>
        <pt x="104" y="640" on="1"/>
        <pt x="164" y="770" on="0"/>
        <pt x="300" y="770" on="1"/>
        <pt x="436" y="770" on="0"/>
        <pt x="497" y="640" on="1"/>
        <pt x="545" y="536" on="0"/>
        <pt x="545" y="375" on="1"/>
        <pt x="545" y="214" on="0"/>
        <pt x="496" y="109" on="1"/>
        <pt x="435" y="-20" on="0"/>
      </contour>
      <contour>
        <pt x="300" y="119" on="1"/>
        <pt x="350" y="119" on="0"/>
        <pt x="404" y="195" on="0"/>
        <pt x="424" y="313" on="0"/>
        <pt x="424" y="375" on="1"/>
        <pt x="424" y="630" on="0"/>
        <pt x="300" y="630" on="1"/>
        <pt x="248" y="630" on="0"/>
        <pt x="195" y="558" on="0"/>
        <pt x="175" y="441" on="0"/>
        <pt x="175" y="375" on="1"/>
        <pt x="175" y="308" on="0"/>
        <pt x="195" y="192" on="0"/>
        <pt x="249" y="119" on="0"/>
      </contour>
      <contour>
        <pt x="518" y="-215" on="1"/>
        <pt x="509" y="-215" on="0"/>
        <pt x="498" y="-212" on="1"/>
        <pt x="291" y="-137" on="1"/>
        <pt x="274" y="-131" on="0"/>
        <pt x="251" y="-98" on="0"/>
        <pt x="251" y="-81" on="1"/>
        <pt x="251" y="-50" on="0"/>
        <pt x="277" y="-32" on="1"/>
        <pt x="293" y="-21" on="0"/>
        <pt x="310" y="-21" on="1"/>
        <pt x="320" y="-21" on="0"/>
        <pt x="331" y="-25" on="1"/>
        <pt x="538" y="-99" on="1"/>
        <pt x="556" y="-105" on="0"/>
        <pt x="578" y="-137" on="0"/>
        <pt x="578" y="-155" on="1"/>
        <pt x="578" y="-187" on="0"/>
        <pt x="551" y="-205" on="1"/>
        <pt x="535" y="-215" on="0"/>
      </contour>
    </TTGlyph>
    <TTGlyph name="R" xMin="78" yMin="-20" xMax="567" yMax="765">
      <contour>
        <pt x="507" y="-20" on="1"/>
        <pt x="492" y="-20" on="0"/>
        <pt x="463" y="-3" on="0"/>
        <pt x="455" y="10" on="1"/>
        <pt x="268" y="319" on="0"/>
        <pt x="266" y="320" on="0"/>
        <pt x="207" y="320" on="1"/>
        <pt x="198" y="320" on="0"/>
        <pt x="198" y="313" on="1"/>
        <pt x="198" y="40" on="1"/>
        <pt x="198" y="17" on="0"/>
        <pt x="162" y="-20" on="0"/>
        <pt x="139" y="-20" on="1"/>
        <pt x="115" y="-20" on="0"/>
        <pt x="78" y="15" on="0"/>
        <pt x="78" y="40" on="1"/>
        <pt x="78" y="703" on="1"/>
        <pt x="78" y="727" on="0"/>
        <pt x="116" y="765" on="0"/>
        <pt x="140" y="765" on="1"/>
        <pt x="317" y="765" on="1"/>
        <pt x="402" y="765" on="0"/>
        <pt x="467" y="702" on="1"/>
        <pt x="497" y="673" on="0"/>
        <pt x="528" y="604" on="0"/>
        <pt x="528" y="552" on="1"/>
        <pt x="528" y="473" on="0"/>
        <pt x="458" y="362" on="0"/>
        <pt x="404" y="338" on="1"/>
        <pt x="399" y="336" on="0"/>
        <pt x="399" y="330" on="1"/>
        <pt x="400" y="326" on="1"/>
        <pt x="560" y="68" on="1"/>
        <pt x="567" y="53" on="0"/>
        <pt x="567" y="40" on="1"/>
        <pt x="567" y="18" on="0"/>
        <pt x="532" y="-20" on="0"/>
      </contour>
      <contour>
        <pt x="317" y="440" on="1"/>
        <pt x="354" y="440" on="0"/>
        <pt x="408" y="503" on="0"/>
        <pt x="408" y="552" on="1"/>
        <pt x="408" y="600" on="0"/>
        <pt x="357" y="645" on="0"/>
        <pt x="317" y="645" on="1"/>
        <pt x="202" y="645" on="0"/>
        <pt x="198" y="642" on="0"/>
        <pt x="198" y="636" on="1"/>
        <pt x="198" y="443" on="0"/>
        <pt x="202" y="440" on="0"/>
      </contour>
    </TTGlyph>
    <TTGlyph name="S" xMin="61" yMin="-20" xMax="539" yMax="770">
      <contour>
        <pt x="305" y="-20" on="1"/>
        <pt x="224" y="-20" on="0"/>
        <pt x="88" y="67" on="0"/>
        <pt x="66" y="116" on="1"/>
        <pt x="61" y="126" on="0"/>
        <pt x="61" y="138" on="1"/>
        <pt x="61" y="164" on="0"/>
        <pt x="92" y="202" on="0"/>
        <pt x="118" y="202" on="1"/>
        <pt x="146" y="202" on="0"/>
        <pt x="170" y="172" on="1"/>
        <pt x="230" y="101" on="0"/>
        <pt x="305" y="99" on="1"/>
        <pt x="340" y="99" on="0"/>
        <pt x="372" y="115" on="1"/>
        <pt x="420" y="141" on="0"/>
        <pt x="420" y="204" on="1"/>
        <pt x="420" y="261" on="0"/>
        <pt x="350" y="294" on="1"/>
        <pt x="317" y="309" on="0"/>
        <pt x="286" y="320" on="1"/>
        <pt x="73" y="391" on="0"/>
        <pt x="73" y="551" on="1"/>
        <pt x="73" y="625" on="0"/>
        <pt x="143" y="722" on="0"/>
        <pt x="240" y="770" on="0"/>
        <pt x="301" y="770" on="1"/>
        <pt x="393" y="770" on="0"/>
        <pt x="511" y="692" on="0"/>
        <pt x="526" y="630" on="1"/>
        <pt x="528" y="622" on="0"/>
        <pt x="528" y="612" on="1"/>
        <pt x="528" y="588" on="0"/>
        <pt x="501" y="555" on="0"/>
        <pt x="475" y="555" on="1"/>
        <pt x="434" y="555" on="0"/>
        <pt x="418" y="600" on="1"/>
        <pt x="409" y="622" on="0"/>
        <pt x="343" y="656" on="0"/>
        <pt x="301" y="656" on="1"/>
        <pt x="258" y="656" on="0"/>
        <pt x="190" y="600" on="0"/>
        <pt x="190" y="552" on="1"/>
        <pt x="191" y="500" on="0"/>
        <pt x="267" y="452" on="0"/>
        <pt x="312" y="436" on="1"/>
        <pt x="382" y="412" on="0"/>
        <pt x="424" y="388" on="1"/>
        <pt x="539" y="320" on="0"/>
        <pt x="539" y="196" on="1"/>
        <pt x="539" y="118" on="0"/>
        <pt x="464" y="25" on="0"/>
        <pt x="372" y="-20" on="0"/>
      </contour>
    </TTGlyph>
    <TTGlyph name="SF010000" xMin="250" yMin="-400" xMax="620" yMax="420">
      <contour>
        <pt x="250" y="-400" on="1"/>
        <pt x="250" y="420" on="1"/>
        <pt x="620" y="420" on="1"/>
        <pt x="620" y="320" on="1"/>
        <pt x="350" y="320" on="1"/>
        <pt x="350" y="-400" on="1"/>
      </contour>
    </TTGlyph>
    <TTGlyph name="SF020000" xMin="250" yMin="320" xMax="620" yMax="1120">
      <contour>
        <pt x="250" y="320" on="1"/>
        <pt x="250" y="1120" on="1"/>
        <pt x="350" y="1120" on="1"/>
        <pt x="350" y="420" on="1"/>
        <pt x="620" y="420" on="1"/>
        <pt x="620" y="320" on="1"/>
      </contour>
    </TTGlyph>
    <TTGlyph name="SF030000" xMin="-20" yMin="-400" xMax="350" yMax="420">
      <contour>
        <pt x="250" y="-400" on="1"/>
        <pt x="250" y="320" on="1"/>
        <pt x="-20" y="320" on="1"/>
        <pt x="-20" y="420" on="1"/>
        <pt x="350" y="420" on="1"/>
        <pt x="350" y="-400" on="1"/>
      </contour>
    </TTGlyph>
    <TTGlyph name="SF040000" xMin="-20" yMin="320" xMax="350" yMax="1120">
      <contour>
        <pt x="-20" y="320" on="1"/>
        <pt x="-20" y="420" on="1"/>
        <pt x="250" y="420" on="1"/>
        <pt x="250" y="1120" on="1"/>
        <pt x="350" y="1120" on="1"/>
        <pt x="350" y="320" on="1"/>
      </contour>
    </TTGlyph>
    <TTGlyph name="SF050000" xMin="-20" yMin="-400" xMax="620" yMax="1120">
      <contour>
        <pt x="250" y="-400" on="1"/>
        <pt x="250" y="320" on="1"/>
        <pt x="-20" y="320" on="1"/>
        <pt x="-20" y="420" on="1"/>
        <pt x="250" y="420" on="1"/>
        <pt x="250" y="1120" on="1"/>
        <pt x="350" y="1120" on="1"/>
        <pt x="350" y="420" on="1"/>
        <pt x="620" y="420" on="1"/>
        <pt x="620" y="320" on="1"/>
        <pt x="350" y="320" on="1"/>
        <pt x="350" y="-400" on="1"/>
      </contour>
    </TTGlyph>
    <TTGlyph name="SF060000" xMin="-20" yMin="-400" xMax="620" yMax="420">
      <contour>
        <pt x="250" y="-400" on="1"/>
        <pt x="250" y="320" on="1"/>
        <pt x="-20" y="320" on="1"/>
        <pt x="-20" y="420" on="1"/>
        <pt x="620" y="420" on="1"/>
        <pt x="620" y="320" on="1"/>
        <pt x="350" y="320" on="1"/>
        <pt x="350" y="-400" on="1"/>
      </contour>
    </TTGlyph>
    <TTGlyph name="SF070000" xMin="-20" yMin="320" xMax="620" yMax="1120">
      <contour>
        <pt x="-20" y="320" on="1"/>
        <pt x="-20" y="420" on="1"/>
        <pt x="250" y="420" on="1"/>
        <pt x="250" y="1120" on="1"/>
        <pt x="350" y="1120" on="1"/>
        <pt x="350" y="420" on="1"/>
        <pt x="620" y="420" on="1"/>
        <pt x="620" y="320" on="1"/>
      </contour>
    </TTGlyph>
    <TTGlyph name="SF080000" xMin="250" yMin="-400" xMax="620" yMax="1120">
      <contour>
        <pt x="250" y="-400" on="1"/>
        <pt x="250" y="1120" on="1"/>
        <pt x="350" y="1120" on="1"/>
        <pt x="350" y="420" on="1"/>
        <pt x="620" y="420" on="1"/>
        <pt x="620" y="320" on="1"/>
        <pt x="350" y="320" on="1"/>
        <pt x="350" y="-400" on="1"/>
      </contour>
    </TTGlyph>
    <TTGlyph name="SF090000" xMin="-20" yMin="-400" xMax="350" yMax="1120">
      <contour>
        <pt x="250" y="-400" on="1"/>
        <pt x="250" y="320" on="1"/>
        <pt x="-20" y="320" on="1"/>
        <pt x="-20" y="420" on="1"/>
        <pt x="250" y="420" on="1"/>
        <pt x="250" y="1120" on="1"/>
        <pt x="350" y="1120" on="1"/>
        <pt x="350" y="-400" on="1"/>
      </contour>
    </TTGlyph>
    <TTGlyph name="SF100000" xMin="-20" yMin="320" xMax="620" yMax="420">
      <contour>
        <pt x="-20" y="320" on="1"/>
        <pt x="-20" y="420" on="1"/>
        <pt x="620" y="420" on="1"/>
        <pt x="620" y="320" on="1"/>
      </contour>
    </TTGlyph>
    <TTGlyph name="SF110000" xMin="250" yMin="-400" xMax="350" yMax="1120">
      <contour>
        <pt x="250" y="-400" on="1"/>
        <pt x="250" y="1120" on="1"/>
        <pt x="350" y="1120" on="1"/>
        <pt x="350" y="-400" on="1"/>
      </contour>
    </TTGlyph>
    <TTGlyph name="SF190000" xMin="-20" yMin="-400" xMax="350" yMax="1120">
      <contour>
        <pt x="250" y="-400" on="1"/>
        <pt x="250" y="220" on="1"/>
        <pt x="-20" y="220" on="1"/>
        <pt x="-20" y="320" on="1"/>
        <pt x="250" y="320" on="1"/>
        <pt x="250" y="420" on="1"/>
        <pt x="-20" y="420" on="1"/>
        <pt x="-20" y="520" on="1"/>
        <pt x="250" y="520" on="1"/>
        <pt x="250" y="1120" on="1"/>
        <pt x="350" y="1120" on="1"/>
        <pt x="350" y="-400" on="1"/>
      </contour>
    </TTGlyph>
    <TTGlyph name="SF200000" xMin="-20" yMin="-400" xMax="450" yMax="1120">
      <contour>
        <pt x="150" y="-400" on="1"/>
        <pt x="150" y="320" on="1"/>
        <pt x="-20" y="320" on="1"/>
        <pt x="-20" y="420" on="1"/>
        <pt x="150" y="420" on="1"/>
        <pt x="150" y="1120" on="1"/>
        <pt x="250" y="1120" on="1"/>
        <pt x="250" y="-400" on="1"/>
      </contour>
      <contour>
        <pt x="350" y="-400" on="1"/>
        <pt x="350" y="1120" on="1"/>
        <pt x="450" y="1120" on="1"/>
        <pt x="450" y="-400" on="1"/>
      </contour>
    </TTGlyph>
    <TTGlyph name="SF210000" xMin="-20" yMin="-400" xMax="450" yMax="420">
      <contour>
        <pt x="150" y="-400" on="1"/>
        <pt x="150" y="320" on="1"/>
        <pt x="-20" y="320" on="1"/>
        <pt x="-20" y="420" on="1"/>
        <pt x="450" y="420" on="1"/>
        <pt x="450" y="-400" on="1"/>
        <pt x="350" y="-400" on="1"/>
        <pt x="350" y="320" on="1"/>
        <pt x="250" y="320" on="1"/>
        <pt x="250" y="-400" on="1"/>
      </contour>
    </TTGlyph>
    <TTGlyph name="SF220000" xMin="-20" yMin="-400" xMax="350" yMax="520">
      <contour>
        <pt x="250" y="-400" on="1"/>
        <pt x="250" y="220" on="1"/>
        <pt x="-20" y="220" on="1"/>
        <pt x="-20" y="320" on="1"/>
        <pt x="250" y="320" on="1"/>
        <pt x="250" y="420" on="1"/>
        <pt x="-20" y="420" on="1"/>
        <pt x="-20" y="520" on="1"/>
        <pt x="350" y="520" on="1"/>
        <pt x="350" y="-400" on="1"/>
      </contour>
    </TTGlyph>
    <TTGlyph name="SF230000" xMin="-20" yMin="-400" xMax="450" yMax="1120">
      <contour>
        <pt x="350" y="-400" on="1"/>
        <pt x="350" y="1120" on="1"/>
        <pt x="450" y="1120" on="1"/>
        <pt x="450" y="-400" on="1"/>
      </contour>
      <contour>
        <pt x="-20" y="420" on="1"/>
        <pt x="-20" y="520" on="1"/>
        <pt x="150" y="520" on="1"/>
        <pt x="150" y="1120" on="1"/>
        <pt x="250" y="1120" on="1"/>
        <pt x="250" y="420" on="1"/>
      </contour>
      <contour>
        <pt x="150" y="-400" on="1"/>
        <pt x="150" y="220" on="1"/>
        <pt x="-20" y="220" on="1"/>
        <pt x="-20" y="320" on="1"/>
        <pt x="250" y="320" on="1"/>
        <pt x="250" y="-400" on="1"/>
      </contour>
    </TTGlyph>
    <TTGlyph name="SF240000" xMin="150" yMin="-400" xMax="450" yMax="1120">
      <contour>
        <pt x="350" y="-400" on="1"/>
        <pt x="350" y="1120" on="1"/>
        <pt x="450" y="1120" on="1"/>
        <pt x="450" y="-400" on="1"/>
      </contour>
      <contour>
        <pt x="150" y="-400" on="1"/>
        <pt x="150" y="1120" on="1"/>
        <pt x="250" y="1120" on="1"/>
        <pt x="250" y="-400" on="1"/>
      </contour>
    </TTGlyph>
    <TTGlyph name="SF250000" xMin="-20" yMin="-400" xMax="450" yMax="520">
      <contour>
        <pt x="350" y="-400" on="1"/>
        <pt x="350" y="420" on="1"/>
        <pt x="-20" y="420" on="1"/>
        <pt x="-20" y="520" on="1"/>
        <pt x="450" y="520" on="1"/>
        <pt x="450" y="-400" on="1"/>
      </contour>
      <contour>
        <pt x="150" y="-400" on="1"/>
        <pt x="150" y="220" on="1"/>
        <pt x="-20" y="220" on="1"/>
        <pt x="-20" y="320" on="1"/>
        <pt x="250" y="320" on="1"/>
        <pt x="250" y="-400" on="1"/>
      </contour>
    </TTGlyph>
    <TTGlyph name="SF260000" xMin="-20" yMin="220" xMax="450" yMax="1120">
      <contour>
        <pt x="-20" y="220" on="1"/>
        <pt x="-20" y="320" on="1"/>
        <pt x="350" y="320" on="1"/>
        <pt x="350" y="1120" on="1"/>
        <pt x="450" y="1120" on="1"/>
        <pt x="450" y="220" on="1"/>
      </contour>
      <contour>
        <pt x="-20" y="420" on="1"/>
        <pt x="-20" y="520" on="1"/>
        <pt x="150" y="520" on="1"/>
        <pt x="150" y="1120" on="1"/>
        <pt x="250" y="1120" on="1"/>
        <pt x="250" y="420" on="1"/>
      </contour>
    </TTGlyph>
    <TTGlyph name="SF270000" xMin="-20" yMin="320" xMax="450" yMax="1120">
      <contour>
        <pt x="-20" y="320" on="1"/>
        <pt x="-20" y="420" on="1"/>
        <pt x="150" y="420" on="1"/>
        <pt x="150" y="1120" on="1"/>
        <pt x="250" y="1120" on="1"/>
        <pt x="250" y="420" on="1"/>
        <pt x="350" y="420" on="1"/>
        <pt x="350" y="1120" on="1"/>
        <pt x="450" y="1120" on="1"/>
        <pt x="450" y="320" on="1"/>
      </contour>
    </TTGlyph>
    <TTGlyph name="SF280000" xMin="-20" yMin="220" xMax="350" yMax="1120">
      <contour>
        <pt x="-20" y="220" on="1"/>
        <pt x="-20" y="320" on="1"/>
        <pt x="250" y="320" on="1"/>
        <pt x="250" y="420" on="1"/>
        <pt x="-20" y="420" on="1"/>
        <pt x="-20" y="520" on="1"/>
        <pt x="250" y="520" on="1"/>
        <pt x="250" y="1120" on="1"/>
        <pt x="350" y="1120" on="1"/>
        <pt x="350" y="220" on="1"/>
      </contour>
    </TTGlyph>
    <TTGlyph name="SF360000" xMin="250" yMin="-400" xMax="620" yMax="1120">
      <contour>
        <pt x="250" y="-400" on="1"/>
        <pt x="250" y="1120" on="1"/>
        <pt x="350" y="1120" on="1"/>
        <pt x="350" y="520" on="1"/>
        <pt x="620" y="520" on="1"/>
        <pt x="620" y="420" on="1"/>
        <pt x="350" y="420" on="1"/>
        <pt x="350" y="320" on="1"/>
        <pt x="620" y="320" on="1"/>
        <pt x="620" y="220" on="1"/>
        <pt x="350" y="220" on="1"/>
        <pt x="350" y="-400" on="1"/>
      </contour>
    </TTGlyph>
    <TTGlyph name="SF370000" xMin="150" yMin="-400" xMax="620" yMax="1120">
      <contour>
        <pt x="350" y="-400" on="1"/>
        <pt x="350" y="1120" on="1"/>
        <pt x="450" y="1120" on="1"/>
        <pt x="450" y="420" on="1"/>
        <pt x="620" y="420" on="1"/>
        <pt x="620" y="320" on="1"/>
        <pt x="450" y="320" on="1"/>
        <pt x="450" y="-400" on="1"/>
      </contour>
      <contour>
        <pt x="150" y="-400" on="1"/>
        <pt x="150" y="1120" on="1"/>
        <pt x="250" y="1120" on="1"/>
        <pt x="250" y="-400" on="1"/>
      </contour>
    </TTGlyph>
    <TTGlyph name="SF380000" xMin="150" yMin="220" xMax="620" yMax="1120">
      <contour>
        <pt x="150" y="220" on="1"/>
        <pt x="150" y="1120" on="1"/>
        <pt x="250" y="1120" on="1"/>
        <pt x="250" y="320" on="1"/>
        <pt x="620" y="320" on="1"/>
        <pt x="620" y="220" on="1"/>
      </contour>
      <contour>
        <pt x="350" y="420" on="1"/>
        <pt x="350" y="1120" on="1"/>
        <pt x="450" y="1120" on="1"/>
        <pt x="450" y="520" on="1"/>
        <pt x="620" y="520" on="1"/>
        <pt x="620" y="420" on="1"/>
      </contour>
    </TTGlyph>
    <TTGlyph name="SF390000" xMin="150" yMin="-400" xMax="620" yMax="520">
      <contour>
        <pt x="150" y="-400" on="1"/>
        <pt x="150" y="520" on="1"/>
        <pt x="620" y="520" on="1"/>
        <pt x="620" y="420" on="1"/>
        <pt x="250" y="420" on="1"/>
        <pt x="250" y="-400" on="1"/>
      </contour>
      <contour>
        <pt x="350" y="-400" on="1"/>
        <pt x="350" y="320" on="1"/>
        <pt x="620" y="320" on="1"/>
        <pt x="620" y="220" on="1"/>
        <pt x="450" y="220" on="1"/>
        <pt x="450" y="-400" on="1"/>
      </contour>
    </TTGlyph>
    <TTGlyph name="SF400000" xMin="-20" yMin="220" xMax="620" yMax="1120">
      <contour>
        <pt x="350" y="420" on="1"/>
        <pt x="350" y="1120" on="1"/>
        <pt x="450" y="1120" on="1"/>
        <pt x="450" y="520" on="1"/>
        <pt x="620" y="520" on="1"/>
        <pt x="620" y="420" on="1"/>
      </contour>
      <contour>
        <pt x="-20" y="420" on="1"/>
        <pt x="-20" y="520" on="1"/>
        <pt x="150" y="520" on="1"/>
        <pt x="150" y="1120" on="1"/>
        <pt x="250" y="1120" on="1"/>
        <pt x="250" y="420" on="1"/>
      </contour>
      <contour>
        <pt x="-20" y="220" on="1"/>
        <pt x="-20" y="320" on="1"/>
        <pt x="620" y="320" on="1"/>
        <pt x="620" y="220" on="1"/>
      </contour>
    </TTGlyph>
    <TTGlyph name="SF410000" xMin="-20" yMin="-400" xMax="620" yMax="520">
      <contour>
        <pt x="-20" y="420" on="1"/>
        <pt x="-20" y="520" on="1"/>
        <pt x="620" y="520" on="1"/>
        <pt x="620" y="420" on="1"/>
      </contour>
      <contour>
        <pt x="350" y="-400" on="1"/>
        <pt x="350" y="320" on="1"/>
        <pt x="620" y="320" on="1"/>
        <pt x="620" y="220" on="1"/>
        <pt x="450" y="220" on="1"/>
        <pt x="450" y="-400" on="1"/>
      </contour>
      <contour>
        <pt x="150" y="-400" on="1"/>
        <pt x="150" y="220" on="1"/>
        <pt x="-20" y="220" on="1"/>
        <pt x="-20" y="320" on="1"/>
        <pt x="250" y="320" on="1"/>
        <pt x="250" y="-400" on="1"/>
      </contour>
    </TTGlyph>
    <TTGlyph name="SF420000" xMin="150" yMin="-400" xMax="620" yMax="1120">
      <contour>
        <pt x="150" y="-400" on="1"/>
        <pt x="150" y="1120" on="1"/>
        <pt x="250" y="1120" on="1"/>
        <pt x="250" y="-400" on="1"/>
      </contour>
      <contour>
        <pt x="350" y="420" on="1"/>
        <pt x="350" y="1120" on="1"/>
        <pt x="450" y="1120" on="1"/>
        <pt x="450" y="520" on="1"/>
        <pt x="620" y="520" on="1"/>
        <pt x="620" y="420" on="1"/>
      </contour>
      <contour>
        <pt x="350" y="-400" on="1"/>
        <pt x="350" y="320" on="1"/>
        <pt x="620" y="320" on="1"/>
        <pt x="620" y="220" on="1"/>
        <pt x="450" y="220" on="1"/>
        <pt x="450" y="-400" on="1"/>
      </contour>
    </TTGlyph>
    <TTGlyph name="SF430000" xMin="-20" yMin="220" xMax="620" yMax="520">
      <contour>
        <pt x="-20" y="420" on="1"/>
        <pt x="-20" y="520" on="1"/>
        <pt x="620" y="520" on="1"/>
        <pt x="620" y="420" on="1"/>
      </contour>
      <contour>
        <pt x="-20" y="220" on="1"/>
        <pt x="-20" y="320" on="1"/>
        <pt x="620" y="320" on="1"/>
        <pt x="620" y="220" on="1"/>
      </contour>
    </TTGlyph>
    <TTGlyph name="SF440000" xMin="-20" yMin="-400" xMax="620" yMax="1120">
      <contour>
        <pt x="-20" y="420" on="1"/>
        <pt x="-20" y="520" on="1"/>
        <pt x="150" y="520" on="1"/>
        <pt x="150" y="1120" on="1"/>
        <pt x="250" y="1120" on="1"/>
        <pt x="250" y="420" on="1"/>
      </contour>
      <contour>
        <pt x="350" y="420" on="1"/>
        <pt x="350" y="1120" on="1"/>
        <pt x="450" y="1120" on="1"/>
        <pt x="450" y="520" on="1"/>
        <pt x="620" y="520" on="1"/>
        <pt x="620" y="420" on="1"/>
      </contour>
      <contour>
        <pt x="350" y="-400" on="1"/>
        <pt x="350" y="320" on="1"/>
        <pt x="620" y="320" on="1"/>
        <pt x="620" y="220" on="1"/>
        <pt x="450" y="220" on="1"/>
        <pt x="450" y="-400" on="1"/>
      </contour>
      <contour>
        <pt x="150" y="-400" on="1"/>
        <pt x="150" y="220" on="1"/>
        <pt x="-20" y="220" on="1"/>
        <pt x="-20" y="320" on="1"/>
        <pt x="250" y="320" on="1"/>
        <pt x="250" y="-400" on="1"/>
      </contour>
    </TTGlyph>
    <TTGlyph name="SF450000" xMin="-20" yMin="220" xMax="620" yMax="1120">
      <contour>
        <pt x="-20" y="420" on="1"/>
        <pt x="-20" y="520" on="1"/>
        <pt x="250" y="520" on="1"/>
        <pt x="250" y="1120" on="1"/>
        <pt x="350" y="1120" on="1"/>
        <pt x="350" y="520" on="1"/>
        <pt x="620" y="520" on="1"/>
        <pt x="620" y="420" on="1"/>
      </contour>
      <contour>
        <pt x="-20" y="220" on="1"/>
        <pt x="-20" y="320" on="1"/>
        <pt x="620" y="320" on="1"/>
        <pt x="620" y="220" on="1"/>
      </contour>
    </TTGlyph>
    <TTGlyph name="SF460000" xMin="-20" yMin="320" xMax="620" yMax="1120">
      <contour>
        <pt x="-20" y="320" on="1"/>
        <pt x="-20" y="420" on="1"/>
        <pt x="150" y="420" on="1"/>
        <pt x="150" y="1120" on="1"/>
        <pt x="250" y="1120" on="1"/>
        <pt x="250" y="420" on="1"/>
        <pt x="350" y="420" on="1"/>
        <pt x="350" y="1120" on="1"/>
        <pt x="450" y="1120" on="1"/>
        <pt x="450" y="420" on="1"/>
        <pt x="620" y="420" on="1"/>
        <pt x="620" y="320" on="1"/>
      </contour>
    </TTGlyph>
    <TTGlyph name="SF470000" xMin="-20" yMin="-400" xMax="620" yMax="520">
      <contour>
        <pt x="-20" y="420" on="1"/>
        <pt x="-20" y="520" on="1"/>
        <pt x="620" y="520" on="1"/>
        <pt x="620" y="420" on="1"/>
      </contour>
      <contour>
        <pt x="250" y="-400" on="1"/>
        <pt x="250" y="220" on="1"/>
        <pt x="-20" y="220" on="1"/>
        <pt x="-20" y="320" on="1"/>
        <pt x="620" y="320" on="1"/>
        <pt x="620" y="220" on="1"/>
        <pt x="350" y="220" on="1"/>
        <pt x="350" y="-400" on="1"/>
      </contour>
    </TTGlyph>
    <TTGlyph name="SF480000" xMin="-20" yMin="-400" xMax="620" yMax="420">
      <contour>
        <pt x="150" y="-400" on="1"/>
        <pt x="150" y="320" on="1"/>
        <pt x="-20" y="320" on="1"/>
        <pt x="-20" y="420" on="1"/>
        <pt x="620" y="420" on="1"/>
        <pt x="620" y="320" on="1"/>
        <pt x="450" y="320" on="1"/>
        <pt x="450" y="-400" on="1"/>
        <pt x="350" y="-400" on="1"/>
        <pt x="350" y="320" on="1"/>
        <pt x="250" y="320" on="1"/>
        <pt x="250" y="-400" on="1"/>
      </contour>
    </TTGlyph>
    <TTGlyph name="SF490000" xMin="150" yMin="320" xMax="620" yMax="1120">
      <contour>
        <pt x="150" y="320" on="1"/>
        <pt x="150" y="1120" on="1"/>
        <pt x="250" y="1120" on="1"/>
        <pt x="250" y="420" on="1"/>
        <pt x="350" y="420" on="1"/>
        <pt x="350" y="1120" on="1"/>
        <pt x="450" y="1120" on="1"/>
        <pt x="450" y="420" on="1"/>
        <pt x="620" y="420" on="1"/>
        <pt x="620" y="320" on="1"/>
      </contour>
    </TTGlyph>
    <TTGlyph name="SF500000" xMin="250" yMin="220" xMax="620" yMax="1120">
      <contour>
        <pt x="250" y="220" on="1"/>
        <pt x="250" y="1120" on="1"/>
        <pt x="350" y="1120" on="1"/>
        <pt x="350" y="520" on="1"/>
        <pt x="620" y="520" on="1"/>
        <pt x="620" y="420" on="1"/>
        <pt x="350" y="420" on="1"/>
        <pt x="350" y="320" on="1"/>
        <pt x="620" y="320" on="1"/>
        <pt x="620" y="220" on="1"/>
      </contour>
    </TTGlyph>
    <TTGlyph name="SF510000" xMin="250" yMin="-400" xMax="620" yMax="520">
      <contour>
        <pt x="250" y="-400" on="1"/>
        <pt x="250" y="520" on="1"/>
        <pt x="620" y="520" on="1"/>
        <pt x="620" y="420" on="1"/>
        <pt x="350" y="420" on="1"/>
        <pt x="350" y="320" on="1"/>
        <pt x="620" y="320" on="1"/>
        <pt x="620" y="220" on="1"/>
        <pt x="350" y="220" on="1"/>
        <pt x="350" y="-400" on="1"/>
      </contour>
    </TTGlyph>
    <TTGlyph name="SF520000" xMin="150" yMin="-400" xMax="620" yMax="420">
      <contour>
        <pt x="150" y="-400" on="1"/>
        <pt x="150" y="420" on="1"/>
        <pt x="620" y="420" on="1"/>
        <pt x="620" y="320" on="1"/>
        <pt x="450" y="320" on="1"/>
        <pt x="450" y="-400" on="1"/>
        <pt x="350" y="-400" on="1"/>
        <pt x="350" y="320" on="1"/>
        <pt x="250" y="320" on="1"/>
        <pt x="250" y="-400" on="1"/>
      </contour>
    </TTGlyph>
    <TTGlyph name="SF530000" xMin="-20" yMin="-400" xMax="620" yMax="1120">
      <contour>
        <pt x="150" y="-400" on="1"/>
        <pt x="150" y="320" on="1"/>
        <pt x="-20" y="320" on="1"/>
        <pt x="-20" y="420" on="1"/>
        <pt x="150" y="420" on="1"/>
        <pt x="150" y="1120" on="1"/>
        <pt x="250" y="1120" on="1"/>
        <pt x="250" y="420" on="1"/>
        <pt x="350" y="420" on="1"/>
        <pt x="350" y="1120" on="1"/>
        <pt x="450" y="1120" on="1"/>
        <pt x="450" y="420" on="1"/>
        <pt x="620" y="420" on="1"/>
        <pt x="620" y="320" on="1"/>
        <pt x="450" y="320" on="1"/>
        <pt x="450" y="-400" on="1"/>
        <pt x="350" y="-400" on="1"/>
        <pt x="350" y="320" on="1"/>
        <pt x="250" y="320" on="1"/>
        <pt x="250" y="-400" on="1"/>
      </contour>
    </TTGlyph>
    <TTGlyph name="SF540000" xMin="-20" yMin="-400" xMax="620" yMax="1120">
      <contour>
        <pt x="250" y="-400" on="1"/>
        <pt x="250" y="220" on="1"/>
        <pt x="-20" y="220" on="1"/>
        <pt x="-20" y="320" on="1"/>
        <pt x="250" y="320" on="1"/>
        <pt x="250" y="420" on="1"/>
        <pt x="-20" y="420" on="1"/>
        <pt x="-20" y="520" on="1"/>
        <pt x="250" y="520" on="1"/>
        <pt x="250" y="1120" on="1"/>
        <pt x="350" y="1120" on="1"/>
        <pt x="350" y="520" on="1"/>
        <pt x="620" y="520" on="1"/>
        <pt x="620" y="420" on="1"/>
        <pt x="350" y="420" on="1"/>
        <pt x="350" y="320" on="1"/>
        <pt x="620" y="320" on="1"/>
        <pt x="620" y="220" on="1"/>
        <pt x="350" y="220" on="1"/>
        <pt x="350" y="-400" on="1"/>
      </contour>
    </TTGlyph>
    <TTGlyph name="T" xMin="45" yMin="-20" xMax="555" yMax="765">
      <contour>
        <pt x="300" y="-20" on="1"/>
        <pt x="277" y="-20" on="0"/>
        <pt x="240" y="17" on="0"/>
        <pt x="240" y="40" on="1"/>
        <pt x="240" y="642" on="0"/>
        <pt x="237" y="645" on="0"/>
        <pt x="105" y="645" on="1"/>
        <pt x="82" y="645" on="0"/>
        <pt x="45" y="682" on="0"/>
        <pt x="45" y="705" on="1"/>
        <pt x="45" y="728" on="0"/>
        <pt x="82" y="765" on="0"/>
        <pt x="105" y="765" on="1"/>
        <pt x="495" y="765" on="1"/>
        <pt x="519" y="765" on="0"/>
        <pt x="555" y="728" on="0"/>
        <pt x="555" y="705" on="1"/>
        <pt x="555" y="682" on="0"/>
        <pt x="519" y="645" on="0"/>
        <pt x="495" y="645" on="1"/>
        <pt x="364" y="645" on="0"/>
        <pt x="360" y="642" on="0"/>
        <pt x="360" y="40" on="1"/>
        <pt x="360" y="17" on="0"/>
        <pt x="324" y="-20" on="0"/>
      </contour>
    </TTGlyph>
    <TTGlyph name="U" xMin="63" yMin="-20" xMax="533" yMax="770">
      <contour>
        <pt x="298" y="-20" on="1"/>
        <pt x="203" y="-20" on="0"/>
        <pt x="63" y="117" on="0"/>
        <pt x="63" y="215" on="1"/>
        <pt x="63" y="710" on="1"/>
        <pt x="63" y="733" on="0"/>
        <pt x="100" y="770" on="0"/>
        <pt x="123" y="770" on="1"/>
        <pt x="147" y="770" on="0"/>
        <pt x="183" y="733" on="0"/>
        <pt x="183" y="710" on="1"/>
        <pt x="183" y="215" on="1"/>
        <pt x="183" y="165" on="0"/>
        <pt x="249" y="100" on="0"/>
        <pt x="298" y="100" on="1"/>
        <pt x="348" y="100" on="0"/>
        <pt x="413" y="165" on="0"/>
        <pt x="413" y="215" on="1"/>
        <pt x="413" y="710" on="1"/>
        <pt x="413" y="733" on="0"/>
        <pt x="450" y="770" on="0"/>
        <pt x="473" y="770" on="1"/>
        <pt x="497" y="770" on="0"/>
        <pt x="533" y="733" on="0"/>
        <pt x="533" y="710" on="1"/>
        <pt x="533" y="215" on="1"/>
        <pt x="533" y="117" on="0"/>
        <pt x="393" y="-20" on="0"/>
      </contour>
    </TTGlyph>
    <TTGlyph name="V" xMin="48" yMin="-20" xMax="552" yMax="770">
      <contour>
        <pt x="303" y="-20" on="1"/>
        <pt x="277" y="-20" on="0"/>
        <pt x="234" y="9" on="0"/>
        <pt x="227" y="36" on="1"/>
        <pt x="51" y="694" on="1"/>
        <pt x="49" y="700" on="0"/>
        <pt x="48" y="754" on="1"/>
        <pt x="48" y="714" on="1"/>
        <pt x="48" y="735" on="0"/>
        <pt x="86" y="770" on="0"/>
        <pt x="109" y="770" on="1"/>
        <pt x="128" y="770" on="0"/>
        <pt x="161" y="744" on="0"/>
        <pt x="167" y="725" on="1"/>
        <pt x="303" y="214" on="1"/>
        <pt x="300" y="216" on="1"/>
        <pt x="298" y="214" on="1"/>
        <pt x="433" y="725" on="1"/>
        <pt x="439" y="744" on="0"/>
        <pt x="472" y="770" on="0"/>
        <pt x="492" y="770" on="1"/>
        <pt x="517" y="770" on="0"/>
        <pt x="552" y="731" on="0"/>
        <pt x="552" y="709" on="1"/>
        <pt x="551" y="694" on="1"/>
        <pt x="374" y="36" on="1"/>
        <pt x="368" y="13" on="0"/>
        <pt x="327" y="-20" on="0"/>
      </contour>
    </TTGlyph>
    <TTGlyph name="W" xMin="38" yMin="-20" xMax="562" yMax="770">
      <contour>
        <pt x="458" y="-20" on="1"/>
        <pt x="437" y="-20" on="0"/>
        <pt x="400" y="7" on="0"/>
        <pt x="393" y="28" on="1"/>
        <pt x="298" y="334" on="1"/>
        <pt x="301" y="332" on="1"/>
        <pt x="304" y="334" on="1"/>
        <pt x="207" y="26" on="1"/>
        <pt x="199" y="6" on="0"/>
        <pt x="163" y="-20" on="0"/>
        <pt x="142" y="-20" on="1"/>
        <pt x="116" y="-20" on="0"/>
        <pt x="75" y="18" on="0"/>
        <pt x="73" y="45" on="1"/>
        <pt x="38" y="712" on="1"/>
        <pt x="38" y="735" on="0"/>
        <pt x="75" y="770" on="0"/>
        <pt x="98" y="770" on="1"/>
        <pt x="121" y="770" on="0"/>
        <pt x="155" y="736" on="0"/>
        <pt x="157" y="713" on="1"/>
        <pt x="179" y="253" on="1"/>
        <pt x="175" y="257" on="1"/>
        <pt x="172" y="255" on="1"/>
        <pt x="238" y="480" on="1"/>
        <pt x="244" y="500" on="0"/>
        <pt x="281" y="525" on="0"/>
        <pt x="301" y="525" on="1"/>
        <pt x="321" y="525" on="0"/>
        <pt x="357" y="499" on="0"/>
        <pt x="363" y="479" on="1"/>
        <pt x="427" y="257" on="1"/>
        <pt x="424" y="259" on="1"/>
        <pt x="421" y="255" on="1"/>
        <pt x="442" y="713" on="1"/>
        <pt x="444" y="736" on="0"/>
        <pt x="480" y="770" on="0"/>
        <pt x="502" y="770" on="1"/>
        <pt x="525" y="770" on="0"/>
        <pt x="562" y="734" on="0"/>
        <pt x="562" y="711" on="1"/>
        <pt x="527" y="45" on="1"/>
        <pt x="525" y="18" on="0"/>
        <pt x="484" y="-20" on="0"/>
      </contour>
    </TTGlyph>
    <TTGlyph name="X" xMin="55" yMin="-20" xMax="545" yMax="771">
      <contour>
        <pt x="486" y="-20" on="1"/>
        <pt x="470" y="-20" on="0"/>
        <pt x="441" y="-3" on="0"/>
        <pt x="433" y="11" on="1"/>
        <pt x="298" y="266" on="1"/>
        <pt x="301" y="264" on="1"/>
        <pt x="304" y="266" on="1"/>
        <pt x="168" y="11" on="1"/>
        <pt x="160" y="-3" on="0"/>
        <pt x="131" y="-20" on="0"/>
        <pt x="116" y="-20" on="1"/>
        <pt x="91" y="-20" on="0"/>
        <pt x="55" y="17" on="0"/>
        <pt x="55" y="39" on="1"/>
        <pt x="55" y="53" on="0"/>
        <pt x="63" y="68" on="1"/>
        <pt x="231" y="385" on="0"/>
        <pt x="231" y="387" on="1"/>
        <pt x="230" y="391" on="1"/>
        <pt x="75" y="682" on="1"/>
        <pt x="68" y="697" on="0"/>
        <pt x="68" y="711" on="1"/>
        <pt x="68" y="733" on="0"/>
        <pt x="102" y="771" on="0"/>
        <pt x="127" y="771" on="1"/>
        <pt x="159" y="771" on="0"/>
        <pt x="181" y="739" on="1"/>
        <pt x="304" y="507" on="1"/>
        <pt x="301" y="508" on="1"/>
        <pt x="298" y="507" on="1"/>
        <pt x="421" y="739" on="1"/>
        <pt x="429" y="753" on="0"/>
        <pt x="458" y="771" on="0"/>
        <pt x="474" y="771" on="1"/>
        <pt x="499" y="771" on="0"/>
        <pt x="533" y="733" on="0"/>
        <pt x="533" y="711" on="1"/>
        <pt x="533" y="697" on="0"/>
        <pt x="526" y="682" on="1"/>
        <pt x="370" y="387" on="1"/>
        <pt x="370" y="384" on="0"/>
        <pt x="371" y="382" on="1"/>
        <pt x="538" y="68" on="1"/>
        <pt x="545" y="53" on="0"/>
        <pt x="545" y="39" on="1"/>
        <pt x="545" y="18" on="0"/>
        <pt x="511" y="-20" on="0"/>
      </contour>
    </TTGlyph>
    <TTGlyph name="Y" xMin="65" yMin="-20" xMax="535" yMax="770">
      <contour>
        <pt x="301" y="-20" on="1"/>
        <pt x="278" y="-20" on="0"/>
        <pt x="241" y="17" on="0"/>
        <pt x="241" y="40" on="1"/>
        <pt x="241" y="373" on="1"/>
        <pt x="241" y="383" on="0"/>
        <pt x="237" y="390" on="1"/>
        <pt x="73" y="680" on="1"/>
        <pt x="65" y="697" on="0"/>
        <pt x="65" y="711" on="1"/>
        <pt x="65" y="732" on="0"/>
        <pt x="100" y="770" on="0"/>
        <pt x="124" y="770" on="1"/>
        <pt x="139" y="770" on="0"/>
        <pt x="168" y="755" on="0"/>
        <pt x="177" y="740" on="1"/>
        <pt x="294" y="531" on="1"/>
        <pt x="296" y="527" on="0"/>
        <pt x="301" y="527" on="1"/>
        <pt x="304" y="527" on="0"/>
        <pt x="307" y="528" on="0"/>
        <pt x="424" y="740" on="1"/>
        <pt x="432" y="754" on="0"/>
        <pt x="461" y="770" on="0"/>
        <pt x="476" y="770" on="1"/>
        <pt x="500" y="770" on="0"/>
        <pt x="535" y="732" on="0"/>
        <pt x="535" y="710" on="1"/>
        <pt x="535" y="697" on="0"/>
        <pt x="527" y="681" on="1"/>
        <pt x="365" y="391" on="1"/>
        <pt x="361" y="384" on="0"/>
        <pt x="361" y="376" on="1"/>
        <pt x="361" y="40" on="1"/>
        <pt x="361" y="17" on="0"/>
        <pt x="324" y="-20" on="0"/>
      </contour>
    </TTGlyph>
    <TTGlyph name="Z" xMin="65" yMin="-15" xMax="535" yMax="765">
      <contour>
        <pt x="475" y="-15" on="1"/>
        <pt x="151" y="-15" on="1"/>
        <pt x="117" y="-15" on="0"/>
        <pt x="65" y="37" on="0"/>
        <pt x="65" y="71" on="1"/>
        <pt x="65" y="94" on="0"/>
        <pt x="77" y="114" on="1"/>
        <pt x="382" y="632" on="1"/>
        <pt x="383" y="637" on="1"/>
        <pt x="383" y="642" on="0"/>
        <pt x="380" y="645" on="0"/>
        <pt x="125" y="645" on="1"/>
        <pt x="103" y="645" on="0"/>
        <pt x="65" y="681" on="0"/>
        <pt x="65" y="705" on="1"/>
        <pt x="65" y="729" on="0"/>
        <pt x="103" y="765" on="0"/>
        <pt x="125" y="765" on="1"/>
        <pt x="450" y="765" on="1"/>
        <pt x="484" y="765" on="0"/>
        <pt x="535" y="714" on="0"/>
        <pt x="535" y="680" on="1"/>
        <pt x="535" y="658" on="0"/>
        <pt x="524" y="637" on="1"/>
        <pt x="219" y="119" on="1"/>
        <pt x="218" y="114" on="1"/>
        <pt x="218" y="109" on="0"/>
        <pt x="221" y="105" on="0"/>
        <pt x="475" y="105" on="1"/>
        <pt x="498" y="105" on="0"/>
        <pt x="535" y="68" on="0"/>
        <pt x="535" y="45" on="1"/>
        <pt x="535" y="22" on="0"/>
        <pt x="498" y="-15" on="0"/>
      </contour>
    </TTGlyph>
    <TTGlyph name="a" xMin="51" yMin="-20" xMax="545" yMax="570">
      <contour>
        <pt x="237" y="105" on="1"/>
        <pt x="304" y="106" on="0"/>
        <pt x="350" y="169" on="1"/>
        <pt x="391" y="229" on="0"/>
        <pt x="391" y="335" on="1"/>
        <pt x="391" y="368" on="0"/>
        <pt x="374" y="398" on="1"/>
        <pt x="352" y="439" on="0"/>
        <pt x="317" y="439" on="1"/>
        <pt x="286" y="439" on="0"/>
        <pt x="222" y="385" on="0"/>
        <pt x="173" y="284" on="0"/>
        <pt x="171" y="217" on="1"/>
        <pt x="171" y="105" on="0"/>
      </contour>
      <contour>
        <pt x="489" y="-20" on="1"/>
        <pt x="439" y="-20" on="0"/>
        <pt x="416" y="70" on="1"/>
        <pt x="413" y="81" on="0"/>
        <pt x="416" y="81" on="1"/>
        <pt x="417" y="81" on="0"/>
        <pt x="417" y="81" on="1"/>
        <pt x="399" y="46" on="0"/>
        <pt x="291" y="-20" on="0"/>
        <pt x="232" y="-20" on="1"/>
        <pt x="152" y="-20" on="0"/>
        <pt x="51" y="100" on="0"/>
        <pt x="51" y="212" on="1"/>
        <pt x="51" y="307" on="0"/>
        <pt x="127" y="466" on="0"/>
        <pt x="244" y="570" on="0"/>
        <pt x="316" y="570" on="1"/>
        <pt x="369" y="569" on="0"/>
        <pt x="407" y="524" on="1"/>
        <pt x="408" y="523" on="0"/>
        <pt x="408" y="523" on="1"/>
        <pt x="404" y="523" on="0"/>
        <pt x="404" y="523" on="1"/>
        <pt x="412" y="570" on="0"/>
        <pt x="462" y="570" on="1"/>
        <pt x="485" y="570" on="0"/>
        <pt x="505" y="552" on="1"/>
        <pt x="521" y="538" on="0"/>
        <pt x="521" y="517" on="1"/>
        <pt x="521" y="512" on="1"/>
        <pt x="507" y="399" on="0"/>
        <pt x="507" y="231" on="1"/>
        <pt x="508" y="105" on="0"/>
        <pt x="538" y="61" on="1"/>
        <pt x="545" y="52" on="0"/>
        <pt x="545" y="37" on="1"/>
        <pt x="545" y="8" on="0"/>
        <pt x="523" y="-10" on="1"/>
        <pt x="510" y="-20" on="0"/>
      </contour>
    </TTGlyph>
    <TTGlyph name="ampersand" xMin="48" yMin="-20" xMax="577" yMax="770">
      <contour>
        <pt x="344" y="211" on="1"/>
        <pt x="172" y="399" on="1"/>
        <pt x="81" y="492" on="0"/>
        <pt x="81" y="582" on="1"/>
        <pt x="81" y="665" on="0"/>
        <pt x="195" y="770" on="0"/>
        <pt x="271" y="770" on="1"/>
        <pt x="327" y="770" on="0"/>
        <pt x="425" y="710" on="0"/>
        <pt x="448" y="651" on="1"/>
        <pt x="454" y="635" on="0"/>
        <pt x="454" y="626" on="1"/>
        <pt x="454" y="602" on="0"/>
        <pt x="421" y="566" on="0"/>
        <pt x="396" y="566" on="1"/>
        <pt x="354" y="566" on="0"/>
        <pt x="327" y="626" on="0"/>
        <pt x="291" y="646" on="0"/>
        <pt x="269" y="646" on="1"/>
        <pt x="240" y="646" on="0"/>
        <pt x="206" y="609" on="0"/>
        <pt x="206" y="583" on="1"/>
        <pt x="206" y="537" on="0"/>
        <pt x="265" y="474" on="1"/>
        <pt x="414" y="314" on="1"/>
        <pt x="391" y="252" on="0"/>
      </contour>
      <contour>
        <pt x="255" y="-20" on="1"/>
        <pt x="156" y="-20" on="0"/>
        <pt x="48" y="107" on="0"/>
        <pt x="48" y="200" on="1"/>
        <pt x="48" y="312" on="0"/>
        <pt x="109" y="402" on="1"/>
        <pt x="151" y="356" on="0"/>
        <pt x="194" y="317" on="1"/>
        <pt x="170" y="260" on="0"/>
        <pt x="170" y="200" on="1"/>
        <pt x="170" y="108" on="0"/>
        <pt x="255" y="108" on="1"/>
        <pt x="318" y="108" on="0"/>
        <pt x="376" y="176" on="1"/>
        <pt x="425" y="236" on="0"/>
        <pt x="442" y="316" on="1"/>
        <pt x="454" y="373" on="0"/>
        <pt x="503" y="373" on="1"/>
        <pt x="530" y="373" on="0"/>
        <pt x="561" y="339" on="0"/>
        <pt x="561" y="318" on="1"/>
        <pt x="561" y="257" on="0"/>
        <pt x="473" y="84" on="0"/>
        <pt x="330" y="-20" on="0"/>
      </contour>
      <contour>
        <pt x="518" y="-20" on="1"/>
        <pt x="470" y="-20" on="0"/>
        <pt x="467" y="42" on="1"/>
        <pt x="500" y="74" on="0"/>
        <pt x="537" y="145" on="1"/>
        <pt x="577" y="71" on="0"/>
        <pt x="577" y="42" on="1"/>
        <pt x="577" y="16" on="0"/>
        <pt x="544" y="-20" on="0"/>
      </contour>
    </TTGlyph>
    <TTGlyph name="arrow" xMin="116" yMin="-11" xMax="497" yMax="624">
      <contour>
        <pt x="178" y="-11" on="1"/>
        <pt x="153" y="-11" on="0"/>
        <pt x="116" y="27" on="0"/>
        <pt x="116" y="51" on="1"/>
        <pt x="116" y="74" on="0"/>
        <pt x="132" y="89" on="1"/>
        <pt x="346" y="303" on="1"/>
        <pt x="348" y="306" on="0"/>
        <pt x="348" y="310" on="1"/>
        <pt x="348" y="311" on="1"/>
        <pt x="348" y="313" on="0"/>
        <pt x="346" y="315" on="0"/>
        <pt x="138" y="523" on="1"/>
        <pt x="122" y="542" on="0"/>
        <pt x="122" y="562" on="1"/>
        <pt x="122" y="584" on="0"/>
        <pt x="162" y="624" on="0"/>
        <pt x="185" y="624" on="1"/>
        <pt x="207" y="624" on="0"/>
        <pt x="222" y="608" on="1"/>
        <pt x="482" y="348" on="1"/>
        <pt x="497" y="328" on="0"/>
        <pt x="497" y="310" on="1"/>
        <pt x="497" y="290" on="0"/>
        <pt x="482" y="270" on="1"/>
        <pt x="216" y="5" on="1"/>
        <pt x="201" y="-11" on="0"/>
      </contour>
    </TTGlyph>
    <TTGlyph name="asciicircum" xMin="45" yMin="295" xMax="555" yMax="683">
      <contour>
        <pt x="496" y="295" on="1"/>
        <pt x="465" y="295" on="0"/>
        <pt x="444" y="324" on="1"/>
        <pt x="300" y="521" on="1"/>
        <pt x="298" y="519" on="1"/>
        <pt x="156" y="323" on="1"/>
        <pt x="135" y="295" on="0"/>
        <pt x="105" y="295" on="1"/>
        <pt x="90" y="295" on="0"/>
        <pt x="60" y="313" on="0"/>
        <pt x="45" y="341" on="0"/>
        <pt x="45" y="355" on="1"/>
        <pt x="45" y="374" on="0"/>
        <pt x="54" y="387" on="1"/>
        <pt x="248" y="654" on="1"/>
        <pt x="271" y="683" on="0"/>
        <pt x="301" y="683" on="1"/>
        <pt x="330" y="683" on="0"/>
        <pt x="352" y="654" on="1"/>
        <pt x="546" y="386" on="1"/>
        <pt x="555" y="373" on="0"/>
        <pt x="555" y="354" on="1"/>
        <pt x="555" y="339" on="0"/>
        <pt x="537" y="310" on="0"/>
        <pt x="509" y="295" on="0"/>
      </contour>
    </TTGlyph>
    <TTGlyph name="asciitilde" xMin="45" yMin="185" xMax="555" yMax="437">
      <contour>
        <pt x="407" y="185" on="1"/>
        <pt x="342" y="185" on="0"/>
        <pt x="272" y="257" on="1"/>
        <pt x="218" y="314" on="0"/>
        <pt x="193" y="314" on="1"/>
        <pt x="161" y="314" on="0"/>
        <pt x="158" y="271" on="1"/>
        <pt x="157" y="246" on="0"/>
        <pt x="125" y="216" on="0"/>
        <pt x="100" y="216" on="1"/>
        <pt x="75" y="216" on="0"/>
        <pt x="45" y="250" on="0"/>
        <pt x="45" y="277" on="1"/>
        <pt x="45" y="332" on="0"/>
        <pt x="80" y="380" on="1"/>
        <pt x="122" y="437" on="0"/>
        <pt x="196" y="437" on="1"/>
        <pt x="265" y="437" on="0"/>
        <pt x="331" y="365" on="1"/>
        <pt x="364" y="330" on="0"/>
        <pt x="387" y="314" on="1"/>
        <pt x="394" y="309" on="0"/>
        <pt x="409" y="309" on="1"/>
        <pt x="435" y="309" on="0"/>
        <pt x="441" y="353" on="1"/>
        <pt x="445" y="379" on="0"/>
        <pt x="475" y="406" on="0"/>
        <pt x="498" y="406" on="1"/>
        <pt x="526" y="406" on="0"/>
        <pt x="555" y="368" on="0"/>
        <pt x="555" y="345" on="1"/>
        <pt x="555" y="292" on="0"/>
        <pt x="519" y="241" on="1"/>
        <pt x="478" y="185" on="0"/>
      </contour>
    </TTGlyph>
    <TTGlyph name="asterisk" xMin="70" yMin="46" xMax="528" yMax="575">
      <contour>
        <pt x="299" y="46" on="1"/>
        <pt x="276" y="46" on="0"/>
        <pt x="239" y="83" on="0"/>
        <pt x="239" y="106" on="1"/>
        <pt x="239" y="206" on="1"/>
        <pt x="160" y="161" on="1"/>
        <pt x="144" y="153" on="0"/>
        <pt x="130" y="153" on="1"/>
        <pt x="116" y="153" on="0"/>
        <pt x="87" y="169" on="0"/>
        <pt x="70" y="198" on="0"/>
        <pt x="70" y="213" on="1"/>
        <pt x="70" y="227" on="0"/>
        <pt x="87" y="257" on="0"/>
        <pt x="101" y="265" on="1"/>
        <pt x="179" y="310" on="1"/>
        <pt x="101" y="356" on="1"/>
        <pt x="87" y="364" on="0"/>
        <pt x="70" y="394" on="0"/>
        <pt x="70" y="408" on="1"/>
        <pt x="70" y="422" on="0"/>
        <pt x="87" y="452" on="0"/>
        <pt x="116" y="468" on="0"/>
        <pt x="130" y="468" on="1"/>
        <pt x="145" y="468" on="0"/>
        <pt x="160" y="460" on="1"/>
        <pt x="239" y="414" on="1"/>
        <pt x="239" y="515" on="1"/>
        <pt x="239" y="538" on="0"/>
        <pt x="276" y="575" on="0"/>
        <pt x="299" y="575" on="1"/>
        <pt x="322" y="575" on="0"/>
        <pt x="359" y="538" on="0"/>
        <pt x="359" y="515" on="1"/>
        <pt x="359" y="414" on="1"/>
        <pt x="438" y="460" on="1"/>
        <pt x="453" y="468" on="0"/>
        <pt x="468" y="468" on="1"/>
        <pt x="482" y="468" on="0"/>
        <pt x="511" y="452" on="0"/>
        <pt x="528" y="422" on="0"/>
        <pt x="528" y="408" on="1"/>
        <pt x="528" y="394" on="0"/>
        <pt x="511" y="364" on="0"/>
        <pt x="497" y="356" on="1"/>
        <pt x="419" y="310" on="1"/>
        <pt x="497" y="265" on="1"/>
        <pt x="511" y="257" on="0"/>
        <pt x="528" y="227" on="0"/>
        <pt x="528" y="213" on="1"/>
        <pt x="528" y="198" on="0"/>
        <pt x="511" y="169" on="0"/>
        <pt x="482" y="153" on="0"/>
        <pt x="468" y="153" on="1"/>
        <pt x="454" y="153" on="0"/>
        <pt x="438" y="161" on="1"/>
        <pt x="359" y="206" on="1"/>
        <pt x="359" y="106" on="1"/>
        <pt x="359" y="83" on="0"/>
        <pt x="322" y="46" on="0"/>
      </contour>
    </TTGlyph>
    <TTGlyph name="at" xMin="5" yMin="-20" xMax="597" yMax="770">
      <contour>
        <pt x="431" y="-20" on="1"/>
        <pt x="335" y="-20" on="0"/>
        <pt x="320" y="91" on="1"/>
        <pt x="313" y="147" on="0"/>
        <pt x="312" y="202" on="1"/>
        <pt x="308" y="341" on="1"/>
        <pt x="307" y="368" on="0"/>
        <pt x="285" y="405" on="0"/>
        <pt x="266" y="405" on="1"/>
        <pt x="235" y="405" on="0"/>
        <pt x="192" y="360" on="0"/>
        <pt x="161" y="282" on="0"/>
        <pt x="160" y="220" on="1"/>
        <pt x="160" y="93" on="0"/>
        <pt x="203" y="93" on="1"/>
        <pt x="226" y="93" on="0"/>
        <pt x="282" y="114" on="1"/>
        <pt x="288" y="47" on="0"/>
        <pt x="313" y="17" on="1"/>
        <pt x="247" y="-20" on="0"/>
        <pt x="184" y="-20" on="1"/>
        <pt x="48" y="-20" on="0"/>
        <pt x="48" y="215" on="1"/>
        <pt x="48" y="288" on="0"/>
        <pt x="74" y="360" on="1"/>
        <pt x="133" y="528" on="0"/>
        <pt x="262" y="529" on="1"/>
        <pt x="343" y="528" on="0"/>
        <pt x="418" y="428" on="0"/>
        <pt x="419" y="360" on="1"/>
        <pt x="422" y="215" on="1"/>
        <pt x="422" y="100" on="0"/>
        <pt x="442" y="100" on="1"/>
        <pt x="463" y="100" on="0"/>
        <pt x="490" y="135" on="1"/>
        <pt x="504" y="153" on="0"/>
        <pt x="530" y="153" on="1"/>
        <pt x="543" y="153" on="0"/>
        <pt x="550" y="149" on="1"/>
        <pt x="583" y="133" on="0"/>
        <pt x="583" y="100" on="1"/>
        <pt x="583" y="43" on="0"/>
        <pt x="496" y="-7" on="1"/>
        <pt x="473" y="-20" on="0"/>
      </contour>
      <contour>
        <pt x="544" y="233" on="1"/>
        <pt x="483" y="233" on="0"/>
        <pt x="479" y="306" on="1"/>
        <pt x="475" y="376" on="1"/>
        <pt x="462" y="640" on="0"/>
        <pt x="264" y="640" on="1"/>
        <pt x="228" y="640" on="0"/>
        <pt x="154" y="603" on="0"/>
        <pt x="104" y="544" on="1"/>
        <pt x="89" y="526" on="0"/>
        <pt x="63" y="526" on="1"/>
        <pt x="41" y="526" on="0"/>
        <pt x="5" y="562" on="0"/>
        <pt x="5" y="595" on="1"/>
        <pt x="5" y="618" on="0"/>
        <pt x="16" y="633" on="1"/>
        <pt x="110" y="769" on="0"/>
        <pt x="276" y="770" on="1"/>
        <pt x="409" y="770" on="0"/>
        <pt x="504" y="661" on="1"/>
        <pt x="579" y="578" on="0"/>
        <pt x="591" y="434" on="1"/>
        <pt x="597" y="367" on="0"/>
        <pt x="597" y="297" on="1"/>
        <pt x="596" y="233" on="0"/>
      </contour>
    </TTGlyph>
    <TTGlyph name="b" xMin="75" yMin="-20" xMax="539" yMax="815">
      <contour>
        <pt x="310" y="100" on="1"/>
        <pt x="416" y="103" on="0"/>
        <pt x="419" y="266" on="1"/>
        <pt x="419" y="352" on="0"/>
        <pt x="358" y="434" on="0"/>
        <pt x="312" y="434" on="1"/>
        <pt x="264" y="434" on="0"/>
        <pt x="231" y="400" on="1"/>
        <pt x="195" y="360" on="0"/>
        <pt x="195" y="318" on="1"/>
        <pt x="195" y="218" on="1"/>
        <pt x="195" y="163" on="0"/>
        <pt x="266" y="100" on="0"/>
        <pt x="304" y="100" on="1"/>
      </contour>
      <contour>
        <pt x="327" y="-20" on="1"/>
        <pt x="243" y="-20" on="0"/>
        <pt x="192" y="33" on="1"/>
        <pt x="190" y="35" on="0"/>
        <pt x="190" y="35" on="1"/>
        <pt x="193" y="35" on="0"/>
        <pt x="192" y="28" on="1"/>
        <pt x="184" y="-20" on="0"/>
        <pt x="134" y="-20" on="1"/>
        <pt x="108" y="-20" on="0"/>
        <pt x="75" y="14" on="0"/>
        <pt x="75" y="41" on="1"/>
        <pt x="75" y="753" on="1"/>
        <pt x="75" y="780" on="0"/>
        <pt x="113" y="815" on="0"/>
        <pt x="136" y="815" on="1"/>
        <pt x="159" y="815" on="0"/>
        <pt x="195" y="780" on="0"/>
        <pt x="195" y="753" on="1"/>
        <pt x="195" y="532" on="1"/>
        <pt x="195" y="527" on="0"/>
        <pt x="195" y="526" on="0"/>
        <pt x="197" y="526" on="1"/>
        <pt x="201" y="526" on="0"/>
        <pt x="208" y="532" on="1"/>
        <pt x="255" y="570" on="0"/>
        <pt x="326" y="570" on="1"/>
        <pt x="420" y="570" on="0"/>
        <pt x="539" y="410" on="0"/>
        <pt x="539" y="281" on="1"/>
        <pt x="538" y="137" on="0"/>
        <pt x="434" y="-20" on="0"/>
      </contour>
    </TTGlyph>
    <TTGlyph name="backslash" xMin="42" yMin="-165" xMax="557" yMax="865">
      <contour>
        <pt x="496" y="-165" on="1"/>
        <pt x="480" y="-165" on="0"/>
        <pt x="449" y="-145" on="0"/>
        <pt x="441" y="-129" on="1"/>
        <pt x="47" y="781" on="1"/>
        <pt x="42" y="794" on="0"/>
        <pt x="42" y="805" on="1"/>
        <pt x="42" y="821" on="0"/>
        <pt x="62" y="852" on="0"/>
        <pt x="91" y="865" on="0"/>
        <pt x="103" y="865" on="1"/>
        <pt x="119" y="865" on="0"/>
        <pt x="150" y="845" on="0"/>
        <pt x="158" y="829" on="1"/>
        <pt x="552" y="-81" on="1"/>
        <pt x="557" y="-94" on="0"/>
        <pt x="557" y="-105" on="1"/>
        <pt x="557" y="-121" on="0"/>
        <pt x="546" y="-137" on="1"/>
        <pt x="528" y="-165" on="0"/>
      </contour>
    </TTGlyph>
    <TTGlyph name="bar" xMin="240" yMin="-135" xMax="360" yMax="815">
      <contour>
        <pt x="300" y="-135" on="1"/>
        <pt x="276" y="-135" on="0"/>
        <pt x="240" y="-98" on="0"/>
        <pt x="240" y="-75" on="1"/>
        <pt x="240" y="755" on="1"/>
        <pt x="240" y="778" on="0"/>
        <pt x="276" y="815" on="0"/>
        <pt x="300" y="815" on="1"/>
        <pt x="323" y="815" on="0"/>
        <pt x="360" y="778" on="0"/>
        <pt x="360" y="755" on="1"/>
        <pt x="360" y="-75" on="1"/>
        <pt x="360" y="-98" on="0"/>
        <pt x="323" y="-135" on="0"/>
      </contour>
    </TTGlyph>
    <TTGlyph name="bar_bar" xMin="-210" yMin="-135" xMax="210" yMax="815">
      <contour>
        <pt x="150" y="-135" on="1"/>
        <pt x="126" y="-135" on="0"/>
        <pt x="90" y="-98" on="0"/>
        <pt x="90" y="-75" on="1"/>
        <pt x="90" y="755" on="1"/>
        <pt x="90" y="778" on="0"/>
        <pt x="126" y="815" on="0"/>
        <pt x="150" y="815" on="1"/>
        <pt x="173" y="815" on="0"/>
        <pt x="210" y="778" on="0"/>
        <pt x="210" y="755" on="1"/>
        <pt x="210" y="-75" on="1"/>
        <pt x="210" y="-98" on="0"/>
        <pt x="173" y="-135" on="0"/>
      </contour>
      <contour>
        <pt x="-150" y="-135" on="1"/>
        <pt x="-174" y="-135" on="0"/>
        <pt x="-210" y="-98" on="0"/>
        <pt x="-210" y="-75" on="1"/>
        <pt x="-210" y="755" on="1"/>
        <pt x="-210" y="778" on="0"/>
        <pt x="-174" y="815" on="0"/>
        <pt x="-150" y="815" on="1"/>
        <pt x="-127" y="815" on="0"/>
        <pt x="-90" y="778" on="0"/>
        <pt x="-90" y="755" on="1"/>
        <pt x="-90" y="-75" on="1"/>
        <pt x="-90" y="-98" on="0"/>
        <pt x="-127" y="-135" on="0"/>
      </contour>
    </TTGlyph>
    <TTGlyph name="braceleft" xMin="81" yMin="-180" xMax="520" yMax="864">
      <contour>
        <pt x="462" y="-180" on="1"/>
        <pt x="419" y="-180" on="1"/>
        <pt x="385" y="-180" on="0"/>
        <pt x="343" y="-177" on="0"/>
        <pt x="289" y="-161" on="0"/>
        <pt x="267" y="-143" on="1"/>
        <pt x="197" y="-89" on="0"/>
        <pt x="197" y="14" on="1"/>
        <pt x="197" y="35" on="0"/>
        <pt x="202" y="216" on="0"/>
        <pt x="202" y="231" on="1"/>
        <pt x="202" y="287" on="0"/>
        <pt x="179" y="310" on="1"/>
        <pt x="164" y="325" on="0"/>
        <pt x="143" y="325" on="1"/>
        <pt x="81" y="325" on="0"/>
        <pt x="81" y="381" on="1"/>
        <pt x="81" y="409" on="0"/>
        <pt x="113" y="440" on="0"/>
        <pt x="150" y="440" on="0"/>
        <pt x="172" y="447" on="0"/>
        <pt x="183" y="458" on="1"/>
        <pt x="205" y="481" on="0"/>
        <pt x="205" y="540" on="1"/>
        <pt x="205" y="551" on="0"/>
        <pt x="202" y="625" on="0"/>
        <pt x="202" y="639" on="1"/>
        <pt x="202" y="758" on="0"/>
        <pt x="263" y="814" on="1"/>
        <pt x="316" y="864" on="0"/>
        <pt x="436" y="864" on="1"/>
        <pt x="463" y="864" on="1"/>
        <pt x="485" y="864" on="0"/>
        <pt x="520" y="830" on="0"/>
        <pt x="520" y="805" on="1"/>
        <pt x="520" y="779" on="0"/>
        <pt x="486" y="745" on="0"/>
        <pt x="463" y="745" on="1"/>
        <pt x="412" y="746" on="1"/>
        <pt x="376" y="746" on="0"/>
        <pt x="357" y="734" on="1"/>
        <pt x="324" y="713" on="0"/>
        <pt x="324" y="651" on="1"/>
        <pt x="324" y="638" on="0"/>
        <pt x="327" y="564" on="0"/>
        <pt x="327" y="549" on="1"/>
        <pt x="327" y="487" on="0"/>
        <pt x="306" y="446" on="1"/>
        <pt x="291" y="413" on="0"/>
        <pt x="272" y="393" on="1"/>
        <pt x="269" y="389" on="0"/>
        <pt x="269" y="385" on="1"/>
        <pt x="269" y="380" on="0"/>
        <pt x="272" y="376" on="1"/>
        <pt x="325" y="332" on="0"/>
        <pt x="325" y="217" on="1"/>
        <pt x="323" y="57" on="1"/>
        <pt x="321" y="27" on="0"/>
        <pt x="321" y="15" on="1"/>
        <pt x="321" y="-25" on="0"/>
        <pt x="356" y="-48" on="1"/>
        <pt x="379" y="-64" on="0"/>
        <pt x="431" y="-64" on="1"/>
        <pt x="462" y="-64" on="1"/>
        <pt x="484" y="-64" on="0"/>
        <pt x="517" y="-97" on="0"/>
        <pt x="517" y="-121" on="1"/>
        <pt x="517" y="-150" on="0"/>
        <pt x="484" y="-180" on="0"/>
      </contour>
    </TTGlyph>
    <TTGlyph name="braceright" xMin="81" yMin="-180" xMax="520" yMax="864">
      <contour>
        <pt x="139" y="-180" on="1"/>
        <pt x="117" y="-180" on="0"/>
        <pt x="84" y="-150" on="0"/>
        <pt x="84" y="-121" on="1"/>
        <pt x="84" y="-97" on="0"/>
        <pt x="116" y="-64" on="0"/>
        <pt x="139" y="-64" on="1"/>
        <pt x="170" y="-64" on="1"/>
        <pt x="222" y="-64" on="0"/>
        <pt x="245" y="-48" on="1"/>
        <pt x="280" y="-25" on="0"/>
        <pt x="280" y="15" on="1"/>
        <pt x="280" y="27" on="0"/>
        <pt x="278" y="57" on="1"/>
        <pt x="276" y="217" on="1"/>
        <pt x="276" y="332" on="0"/>
        <pt x="329" y="376" on="1"/>
        <pt x="332" y="380" on="0"/>
        <pt x="332" y="385" on="1"/>
        <pt x="332" y="389" on="0"/>
        <pt x="329" y="393" on="1"/>
        <pt x="310" y="413" on="0"/>
        <pt x="295" y="446" on="1"/>
        <pt x="274" y="487" on="0"/>
        <pt x="274" y="549" on="1"/>
        <pt x="274" y="564" on="0"/>
        <pt x="277" y="638" on="0"/>
        <pt x="277" y="651" on="1"/>
        <pt x="277" y="713" on="0"/>
        <pt x="244" y="734" on="1"/>
        <pt x="225" y="746" on="0"/>
        <pt x="189" y="746" on="1"/>
        <pt x="138" y="745" on="1"/>
        <pt x="115" y="745" on="0"/>
        <pt x="81" y="779" on="0"/>
        <pt x="81" y="805" on="1"/>
        <pt x="81" y="830" on="0"/>
        <pt x="116" y="864" on="0"/>
        <pt x="138" y="864" on="1"/>
        <pt x="165" y="864" on="1"/>
        <pt x="285" y="864" on="0"/>
        <pt x="338" y="814" on="1"/>
        <pt x="399" y="758" on="0"/>
        <pt x="399" y="639" on="1"/>
        <pt x="399" y="625" on="0"/>
        <pt x="396" y="551" on="0"/>
        <pt x="396" y="540" on="1"/>
        <pt x="396" y="481" on="0"/>
        <pt x="418" y="458" on="1"/>
        <pt x="429" y="447" on="0"/>
        <pt x="450" y="440" on="0"/>
        <pt x="488" y="440" on="0"/>
        <pt x="520" y="409" on="0"/>
        <pt x="520" y="381" on="1"/>
        <pt x="520" y="325" on="0"/>
        <pt x="458" y="325" on="1"/>
        <pt x="437" y="325" on="0"/>
        <pt x="422" y="310" on="1"/>
        <pt x="399" y="287" on="0"/>
        <pt x="399" y="231" on="1"/>
        <pt x="399" y="216" on="0"/>
        <pt x="404" y="35" on="0"/>
        <pt x="404" y="14" on="1"/>
        <pt x="404" y="-89" on="0"/>
        <pt x="334" y="-143" on="1"/>
        <pt x="312" y="-161" on="0"/>
        <pt x="258" y="-177" on="0"/>
        <pt x="216" y="-180" on="0"/>
        <pt x="182" y="-180" on="1"/>
      </contour>
    </TTGlyph>
    <TTGlyph name="bracketleft" xMin="139" yMin="-181" xMax="477" yMax="863">
      <contour>
        <pt x="417" y="-181" on="1"/>
        <pt x="201" y="-181" on="1"/>
        <pt x="177" y="-181" on="0"/>
        <pt x="139" y="-143" on="0"/>
        <pt x="139" y="-119" on="1"/>
        <pt x="139" y="801" on="1"/>
        <pt x="139" y="825" on="0"/>
        <pt x="177" y="863" on="0"/>
        <pt x="201" y="863" on="1"/>
        <pt x="417" y="863" on="1"/>
        <pt x="440" y="863" on="0"/>
        <pt x="477" y="827" on="0"/>
        <pt x="477" y="803" on="1"/>
        <pt x="477" y="780" on="0"/>
        <pt x="440" y="743" on="0"/>
        <pt x="417" y="743" on="1"/>
        <pt x="263" y="743" on="0"/>
        <pt x="259" y="740" on="0"/>
        <pt x="259" y="735" on="1"/>
        <pt x="259" y="-57" on="0"/>
        <pt x="263" y="-61" on="0"/>
        <pt x="417" y="-61" on="1"/>
        <pt x="440" y="-61" on="0"/>
        <pt x="477" y="-97" on="0"/>
        <pt x="477" y="-121" on="1"/>
        <pt x="477" y="-144" on="0"/>
        <pt x="440" y="-181" on="0"/>
      </contour>
    </TTGlyph>
    <TTGlyph name="bracketright" xMin="139" yMin="-181" xMax="477" yMax="863">
      <contour>
        <pt x="415" y="-181" on="1"/>
        <pt x="199" y="-181" on="1"/>
        <pt x="176" y="-181" on="0"/>
        <pt x="139" y="-144" on="0"/>
        <pt x="139" y="-121" on="1"/>
        <pt x="139" y="-97" on="0"/>
        <pt x="176" y="-61" on="0"/>
        <pt x="199" y="-61" on="1"/>
        <pt x="354" y="-61" on="0"/>
        <pt x="357" y="-57" on="0"/>
        <pt x="357" y="-52" on="1"/>
        <pt x="357" y="740" on="0"/>
        <pt x="354" y="743" on="0"/>
        <pt x="199" y="743" on="1"/>
        <pt x="176" y="743" on="0"/>
        <pt x="139" y="780" on="0"/>
        <pt x="139" y="803" on="1"/>
        <pt x="139" y="827" on="0"/>
        <pt x="176" y="863" on="0"/>
        <pt x="199" y="863" on="1"/>
        <pt x="415" y="863" on="1"/>
        <pt x="439" y="863" on="0"/>
        <pt x="477" y="825" on="0"/>
        <pt x="477" y="801" on="1"/>
        <pt x="477" y="-119" on="1"/>
        <pt x="477" y="-143" on="0"/>
        <pt x="439" y="-181" on="0"/>
      </contour>
    </TTGlyph>
    <TTGlyph name="c" xMin="68" yMin="-20" xMax="534" yMax="570">
      <contour>
        <pt x="340" y="-20" on="1"/>
        <pt x="263" y="-20" on="0"/>
        <pt x="136" y="51" on="0"/>
        <pt x="68" y="184" on="0"/>
        <pt x="68" y="275" on="1"/>
        <pt x="68" y="372" on="0"/>
        <pt x="144" y="501" on="0"/>
        <pt x="270" y="570" on="0"/>
        <pt x="345" y="570" on="1"/>
        <pt x="438" y="570" on="0"/>
        <pt x="503" y="511" on="1"/>
        <pt x="523" y="492" on="0"/>
        <pt x="523" y="466" on="1"/>
        <pt x="523" y="445" on="0"/>
        <pt x="495" y="406" on="0"/>
        <pt x="469" y="406" on="1"/>
        <pt x="452" y="406" on="0"/>
        <pt x="437" y="416" on="1"/>
        <pt x="391" y="444" on="0"/>
        <pt x="347" y="444" on="1"/>
        <pt x="278" y="444" on="0"/>
        <pt x="198" y="355" on="0"/>
        <pt x="198" y="275" on="1"/>
        <pt x="198" y="192" on="0"/>
        <pt x="274" y="100" on="0"/>
        <pt x="346" y="100" on="1"/>
        <pt x="397" y="100" on="0"/>
        <pt x="451" y="139" on="1"/>
        <pt x="463" y="148" on="0"/>
        <pt x="482" y="148" on="1"/>
        <pt x="504" y="148" on="0"/>
        <pt x="534" y="115" on="0"/>
        <pt x="534" y="88" on="1"/>
        <pt x="534" y="61" on="0"/>
        <pt x="512" y="44" on="1"/>
        <pt x="430" y="-20" on="0"/>
      </contour>
    </TTGlyph>
    <TTGlyph name="colon" xMin="204" yMin="-15" xMax="397" yMax="565">
      <contour>
        <pt x="302" y="-15" on="1"/>
        <pt x="261" y="-15" on="0"/>
        <pt x="204" y="43" on="0"/>
        <pt x="204" y="83" on="1"/>
        <pt x="204" y="124" on="0"/>
        <pt x="261" y="182" on="0"/>
        <pt x="302" y="182" on="1"/>
        <pt x="341" y="182" on="0"/>
        <pt x="397" y="124" on="0"/>
        <pt x="397" y="83" on="1"/>
        <pt x="397" y="43" on="0"/>
        <pt x="341" y="-15" on="0"/>
      </contour>
      <contour>
        <pt x="302" y="368" on="1"/>
        <pt x="261" y="368" on="0"/>
        <pt x="204" y="426" on="0"/>
        <pt x="204" y="466" on="1"/>
        <pt x="204" y="507" on="0"/>
        <pt x="261" y="565" on="0"/>
        <pt x="302" y="565" on="1"/>
        <pt x="341" y="565" on="0"/>
        <pt x="397" y="507" on="0"/>
        <pt x="397" y="466" on="1"/>
        <pt x="397" y="426" on="0"/>
        <pt x="341" y="368" on="0"/>
      </contour>
    </TTGlyph>
    <TTGlyph name="colon_center" xMin="204" yMin="75" xMax="397" yMax="565">
      <contour>
        <pt x="302" y="75" on="1"/>
        <pt x="261" y="75" on="0"/>
        <pt x="204" y="133" on="0"/>
        <pt x="204" y="173" on="1"/>
        <pt x="204" y="214" on="0"/>
        <pt x="261" y="272" on="0"/>
        <pt x="302" y="272" on="1"/>
        <pt x="341" y="272" on="0"/>
        <pt x="397" y="214" on="0"/>
        <pt x="397" y="173" on="1"/>
        <pt x="397" y="133" on="0"/>
        <pt x="341" y="75" on="0"/>
      </contour>
      <contour>
        <pt x="302" y="368" on="1"/>
        <pt x="261" y="368" on="0"/>
        <pt x="204" y="426" on="0"/>
        <pt x="204" y="466" on="1"/>
        <pt x="204" y="507" on="0"/>
        <pt x="261" y="565" on="0"/>
        <pt x="302" y="565" on="1"/>
        <pt x="341" y="565" on="0"/>
        <pt x="397" y="507" on="0"/>
        <pt x="397" y="466" on="1"/>
        <pt x="397" y="426" on="0"/>
        <pt x="341" y="368" on="0"/>
      </contour>
    </TTGlyph>
    <TTGlyph name="colon_center_left" xMin="85" yMin="75" xMax="278" yMax="565">
      <contour>
        <pt x="183" y="75" on="1"/>
        <pt x="142" y="75" on="0"/>
        <pt x="85" y="133" on="0"/>
        <pt x="85" y="173" on="1"/>
        <pt x="85" y="214" on="0"/>
        <pt x="142" y="272" on="0"/>
        <pt x="183" y="272" on="1"/>
        <pt x="222" y="272" on="0"/>
        <pt x="278" y="214" on="0"/>
        <pt x="278" y="173" on="1"/>
        <pt x="278" y="133" on="0"/>
        <pt x="222" y="75" on="0"/>
      </contour>
      <contour>
        <pt x="183" y="368" on="1"/>
        <pt x="142" y="368" on="0"/>
        <pt x="85" y="426" on="0"/>
        <pt x="85" y="466" on="1"/>
        <pt x="85" y="507" on="0"/>
        <pt x="142" y="565" on="0"/>
        <pt x="183" y="565" on="1"/>
        <pt x="222" y="565" on="0"/>
        <pt x="278" y="507" on="0"/>
        <pt x="278" y="466" on="1"/>
        <pt x="278" y="426" on="0"/>
        <pt x="222" y="368" on="0"/>
      </contour>
    </TTGlyph>
    <TTGlyph name="colon_center_right" xMin="322" yMin="75" xMax="515" yMax="565">
      <contour>
        <pt x="420" y="75" on="1"/>
        <pt x="379" y="75" on="0"/>
        <pt x="322" y="133" on="0"/>
        <pt x="322" y="173" on="1"/>
        <pt x="322" y="214" on="0"/>
        <pt x="379" y="272" on="0"/>
        <pt x="420" y="272" on="1"/>
        <pt x="459" y="272" on="0"/>
        <pt x="515" y="214" on="0"/>
        <pt x="515" y="173" on="1"/>
        <pt x="515" y="133" on="0"/>
        <pt x="459" y="75" on="0"/>
      </contour>
      <contour>
        <pt x="420" y="368" on="1"/>
        <pt x="379" y="368" on="0"/>
        <pt x="322" y="426" on="0"/>
        <pt x="322" y="466" on="1"/>
        <pt x="322" y="507" on="0"/>
        <pt x="379" y="565" on="0"/>
        <pt x="420" y="565" on="1"/>
        <pt x="459" y="565" on="0"/>
        <pt x="515" y="507" on="0"/>
        <pt x="515" y="466" on="1"/>
        <pt x="515" y="426" on="0"/>
        <pt x="459" y="368" on="0"/>
      </contour>
    </TTGlyph>
    <TTGlyph name="comma" xMin="111" yMin="-207" xMax="405" yMax="188">
      <contour>
        <pt x="173" y="-207" on="1"/>
        <pt x="116" y="-207" on="0"/>
        <pt x="111" y="-154" on="1"/>
        <pt x="111" y="-97" on="0"/>
        <pt x="166" y="-90" on="1"/>
        <pt x="210" y="-85" on="0"/>
        <pt x="257" y="-47" on="0"/>
        <pt x="257" y="-26" on="1"/>
        <pt x="257" y="-1" on="0"/>
        <pt x="198" y="57" on="0"/>
        <pt x="198" y="99" on="1"/>
        <pt x="198" y="127" on="0"/>
        <pt x="213" y="148" on="1"/>
        <pt x="238" y="188" on="0"/>
        <pt x="291" y="188" on="1"/>
        <pt x="330" y="188" on="0"/>
        <pt x="360" y="159" on="1"/>
        <pt x="405" y="113" on="0"/>
        <pt x="405" y="26" on="1"/>
        <pt x="405" y="-51" on="0"/>
        <pt x="358" y="-112" on="1"/>
        <pt x="293" y="-194" on="0"/>
      </contour>
    </TTGlyph>
    <TTGlyph name="d" xMin="61" yMin="-20" xMax="525" yMax="815">
      <contour>
        <pt x="291" y="100" on="1"/>
        <pt x="297" y="100" on="1"/>
        <pt x="334" y="100" on="0"/>
        <pt x="405" y="163" on="0"/>
        <pt x="405" y="218" on="1"/>
        <pt x="405" y="318" on="1"/>
        <pt x="405" y="359" on="0"/>
        <pt x="369" y="399" on="1"/>
        <pt x="337" y="433" on="0"/>
        <pt x="289" y="433" on="1"/>
        <pt x="243" y="433" on="0"/>
        <pt x="181" y="348" on="0"/>
        <pt x="181" y="266" on="1"/>
        <pt x="185" y="103" on="0"/>
      </contour>
      <contour>
        <pt x="273" y="-20" on="1"/>
        <pt x="167" y="-20" on="0"/>
        <pt x="62" y="137" on="0"/>
        <pt x="61" y="281" on="1"/>
        <pt x="61" y="410" on="0"/>
        <pt x="181" y="570" on="0"/>
        <pt x="274" y="570" on="1"/>
        <pt x="345" y="570" on="0"/>
        <pt x="393" y="532" on="1"/>
        <pt x="399" y="526" on="0"/>
        <pt x="403" y="526" on="1"/>
        <pt x="405" y="526" on="0"/>
        <pt x="405" y="527" on="0"/>
        <pt x="405" y="532" on="1"/>
        <pt x="405" y="753" on="1"/>
        <pt x="405" y="780" on="0"/>
        <pt x="442" y="815" on="0"/>
        <pt x="465" y="815" on="1"/>
        <pt x="488" y="815" on="0"/>
        <pt x="525" y="780" on="0"/>
        <pt x="525" y="753" on="1"/>
        <pt x="525" y="41" on="1"/>
        <pt x="525" y="14" on="0"/>
        <pt x="492" y="-20" on="0"/>
        <pt x="467" y="-20" on="1"/>
        <pt x="416" y="-20" on="0"/>
        <pt x="409" y="28" on="1"/>
        <pt x="408" y="35" on="0"/>
        <pt x="410" y="35" on="1"/>
        <pt x="410" y="35" on="0"/>
        <pt x="409" y="33" on="1"/>
        <pt x="357" y="-20" on="0"/>
      </contour>
    </TTGlyph>
    <TTGlyph name="dagger" xMin="40" yMin="-20" xMax="572" yMax="770">
      <contour>
        <pt x="304" y="-20" on="1"/>
        <pt x="277" y="-20" on="0"/>
        <pt x="242" y="15" on="0"/>
        <pt x="242" y="43" on="1"/>
        <pt x="242" y="415" on="1"/>
        <pt x="367" y="415" on="1"/>
        <pt x="367" y="43" on="1"/>
        <pt x="367" y="15" on="0"/>
        <pt x="332" y="-20" on="0"/>
      </contour>
      <contour>
        <pt x="515" y="565" on="1"/>
        <pt x="541" y="565" on="0"/>
        <pt x="572" y="534" on="0"/>
        <pt x="572" y="508" on="1"/>
        <pt x="572" y="482" on="0"/>
        <pt x="541" y="450" on="0"/>
        <pt x="515" y="450" on="1"/>
        <pt x="97" y="450" on="1"/>
        <pt x="71" y="450" on="0"/>
        <pt x="40" y="482" on="0"/>
        <pt x="40" y="508" on="1"/>
        <pt x="40" y="534" on="0"/>
        <pt x="71" y="565" on="0"/>
        <pt x="97" y="565" on="1"/>
      </contour>
      <contour>
        <pt x="242" y="595" on="1"/>
        <pt x="242" y="707" on="1"/>
        <pt x="242" y="736" on="0"/>
        <pt x="277" y="770" on="0"/>
        <pt x="304" y="770" on="1"/>
        <pt x="332" y="770" on="0"/>
        <pt x="367" y="736" on="0"/>
        <pt x="367" y="707" on="1"/>
        <pt x="367" y="595" on="1"/>
      </contour>
    </TTGlyph>
    <TTGlyph name="dollar" xMin="49" yMin="-172" xMax="555" yMax="915">
      <contour>
        <pt x="360" y="489" on="1"/>
        <pt x="310" y="493" on="0"/>
        <pt x="240" y="523" on="1"/>
        <pt x="240" y="852" on="1"/>
        <pt x="240" y="875" on="0"/>
        <pt x="268" y="915" on="0"/>
        <pt x="299" y="915" on="1"/>
        <pt x="332" y="915" on="0"/>
        <pt x="361" y="874" on="0"/>
        <pt x="361" y="852" on="1"/>
      </contour>
      <contour>
        <pt x="224" y="-11" on="1"/>
        <pt x="137" y="6" on="0"/>
        <pt x="70" y="53" on="1"/>
        <pt x="49" y="68" on="0"/>
        <pt x="49" y="103" on="1"/>
        <pt x="49" y="122" on="0"/>
        <pt x="59" y="137" on="1"/>
        <pt x="75" y="161" on="0"/>
        <pt x="105" y="161" on="1"/>
        <pt x="121" y="161" on="0"/>
        <pt x="138" y="151" on="1"/>
        <pt x="196" y="113" on="0"/>
        <pt x="224" y="107" on="1"/>
      </contour>
      <contour>
        <pt x="375" y="-8" on="1"/>
        <pt x="375" y="106" on="1"/>
        <pt x="440" y="124" on="0"/>
        <pt x="440" y="208" on="1"/>
        <pt x="440" y="303" on="0"/>
        <pt x="342" y="325" on="1"/>
        <pt x="300" y="334" on="0"/>
        <pt x="250" y="351" on="1"/>
        <pt x="54" y="411" on="0"/>
        <pt x="54" y="565" on="1"/>
        <pt x="54" y="640" on="0"/>
        <pt x="108" y="697" on="1"/>
        <pt x="148" y="740" on="0"/>
        <pt x="224" y="765" on="1"/>
        <pt x="224" y="636" on="1"/>
        <pt x="179" y="615" on="0"/>
        <pt x="179" y="564" on="1"/>
        <pt x="179" y="508" on="0"/>
        <pt x="261" y="473" on="1"/>
        <pt x="311" y="452" on="0"/>
        <pt x="348" y="446" on="1"/>
        <pt x="408" y="433" on="0"/>
        <pt x="507" y="378" on="0"/>
        <pt x="555" y="278" on="0"/>
        <pt x="555" y="214" on="1"/>
        <pt x="555" y="76" on="0"/>
        <pt x="461" y="18" on="1"/>
        <pt x="416" y="-8" on="0"/>
      </contour>
      <contour>
        <pt x="301" y="-172" on="1"/>
        <pt x="270" y="-172" on="0"/>
        <pt x="239" y="-132" on="0"/>
        <pt x="239" y="-109" on="1"/>
        <pt x="240" y="306" on="1"/>
        <pt x="308" y="285" on="0"/>
        <pt x="360" y="278" on="1"/>
        <pt x="361" y="-109" on="1"/>
        <pt x="361" y="-132" on="0"/>
        <pt x="332" y="-172" on="0"/>
      </contour>
      <contour>
        <pt x="470" y="597" on="1"/>
        <pt x="450" y="597" on="0"/>
        <pt x="434" y="609" on="1"/>
        <pt x="408" y="631" on="0"/>
        <pt x="376" y="641" on="1"/>
        <pt x="376" y="762" on="1"/>
        <pt x="437" y="750" on="0"/>
        <pt x="487" y="717" on="1"/>
        <pt x="519" y="696" on="0"/>
        <pt x="519" y="663" on="1"/>
        <pt x="519" y="637" on="0"/>
        <pt x="491" y="597" on="0"/>
      </contour>
    </TTGlyph>
    <TTGlyph name="e" xMin="55" yMin="-20" xMax="545" yMax="570">
      <contour>
        <pt x="320" y="-20" on="1"/>
        <pt x="234" y="-20" on="0"/>
        <pt x="170" y="24" on="1"/>
        <pt x="55" y="101" on="0"/>
        <pt x="55" y="281" on="1"/>
        <pt x="55" y="370" on="0"/>
        <pt x="129" y="499" on="0"/>
        <pt x="239" y="570" on="0"/>
        <pt x="308" y="570" on="1"/>
        <pt x="382" y="570" on="0"/>
        <pt x="489" y="499" on="0"/>
        <pt x="544" y="378" on="0"/>
        <pt x="545" y="290" on="1"/>
        <pt x="545" y="267" on="0"/>
        <pt x="514" y="229" on="0"/>
        <pt x="488" y="229" on="1"/>
        <pt x="187" y="230" on="1"/>
        <pt x="177" y="230" on="0"/>
        <pt x="177" y="225" on="1"/>
        <pt x="178" y="215" on="1"/>
        <pt x="189" y="160" on="0"/>
        <pt x="271" y="100" on="0"/>
        <pt x="324" y="100" on="1"/>
        <pt x="396" y="100" on="0"/>
        <pt x="452" y="145" on="1"/>
        <pt x="465" y="155" on="0"/>
        <pt x="480" y="155" on="1"/>
        <pt x="506" y="155" on="0"/>
        <pt x="536" y="116" on="0"/>
        <pt x="536" y="97" on="1"/>
        <pt x="536" y="74" on="0"/>
        <pt x="518" y="58" on="1"/>
        <pt x="433" y="-20" on="0"/>
      </contour>
      <contour>
        <pt x="413" y="348" on="1"/>
        <pt x="424" y="348" on="0"/>
        <pt x="424" y="352" on="1"/>
        <pt x="424" y="384" on="0"/>
        <pt x="364" y="450" on="0"/>
        <pt x="308" y="450" on="1"/>
        <pt x="262" y="450" on="0"/>
        <pt x="191" y="393" on="0"/>
        <pt x="186" y="354" on="1"/>
        <pt x="185" y="349" on="1"/>
        <pt x="185" y="348" on="0"/>
        <pt x="193" y="348" on="1"/>
      </contour>
    </TTGlyph>
    <TTGlyph name="eight" xMin="60" yMin="-20" xMax="539" yMax="770">
      <contour>
        <pt x="300" y="-20" on="1"/>
        <pt x="188" y="-20" on="0"/>
        <pt x="60" y="101" on="0"/>
        <pt x="60" y="195" on="1"/>
        <pt x="60" y="254" on="0"/>
        <pt x="123" y="359" on="0"/>
        <pt x="178" y="392" on="1"/>
        <pt x="177" y="390" on="1"/>
        <pt x="179" y="386" on="1"/>
        <pt x="75" y="453" on="0"/>
        <pt x="75" y="560" on="1"/>
        <pt x="75" y="651" on="0"/>
        <pt x="198" y="770" on="0"/>
        <pt x="300" y="770" on="1"/>
        <pt x="402" y="770" on="0"/>
        <pt x="525" y="651" on="0"/>
        <pt x="525" y="560" on="1"/>
        <pt x="525" y="453" on="0"/>
        <pt x="420" y="386" on="1"/>
        <pt x="422" y="390" on="1"/>
        <pt x="421" y="392" on="1"/>
        <pt x="475" y="360" on="0"/>
        <pt x="539" y="257" on="0"/>
        <pt x="539" y="195" on="1"/>
        <pt x="539" y="94" on="0"/>
        <pt x="405" y="-20" on="0"/>
      </contour>
      <contour>
        <pt x="300" y="458" on="1"/>
        <pt x="313" y="458" on="0"/>
        <pt x="321" y="461" on="1"/>
        <pt x="367" y="477" on="0"/>
        <pt x="404" y="520" on="0"/>
        <pt x="404" y="555" on="1"/>
        <pt x="404" y="601" on="0"/>
        <pt x="356" y="650" on="0"/>
        <pt x="300" y="650" on="1"/>
        <pt x="195" y="650" on="0"/>
        <pt x="195" y="555" on="1"/>
        <pt x="195" y="519" on="0"/>
        <pt x="232" y="476" on="0"/>
        <pt x="275" y="462" on="1"/>
        <pt x="286" y="458" on="0"/>
      </contour>
      <contour>
        <pt x="300" y="99" on="1"/>
        <pt x="368" y="99" on="0"/>
        <pt x="420" y="153" on="0"/>
        <pt x="420" y="207" on="1"/>
        <pt x="420" y="282" on="0"/>
        <pt x="343" y="309" on="1"/>
        <pt x="325" y="317" on="0"/>
        <pt x="300" y="318" on="1"/>
        <pt x="262" y="318" on="0"/>
        <pt x="225" y="294" on="1"/>
        <pt x="179" y="265" on="0"/>
        <pt x="179" y="207" on="1"/>
        <pt x="179" y="153" on="0"/>
        <pt x="232" y="99" on="0"/>
      </contour>
    </TTGlyph>
    <TTGlyph name="equal" xMin="45" yMin="145" xMax="555" yMax="475">
      <contour>
        <pt x="495" y="355" on="1"/>
        <pt x="105" y="355" on="1"/>
        <pt x="81" y="355" on="0"/>
        <pt x="45" y="392" on="0"/>
        <pt x="45" y="415" on="1"/>
        <pt x="45" y="438" on="0"/>
        <pt x="81" y="475" on="0"/>
        <pt x="105" y="475" on="1"/>
        <pt x="495" y="475" on="1"/>
        <pt x="518" y="475" on="0"/>
        <pt x="555" y="438" on="0"/>
        <pt x="555" y="415" on="1"/>
        <pt x="555" y="392" on="0"/>
        <pt x="518" y="355" on="0"/>
      </contour>
      <contour>
        <pt x="495" y="145" on="1"/>
        <pt x="105" y="145" on="1"/>
        <pt x="81" y="145" on="0"/>
        <pt x="45" y="182" on="0"/>
        <pt x="45" y="205" on="1"/>
        <pt x="45" y="228" on="0"/>
        <pt x="81" y="265" on="0"/>
        <pt x="105" y="265" on="1"/>
        <pt x="495" y="265" on="1"/>
        <pt x="518" y="265" on="0"/>
        <pt x="555" y="228" on="0"/>
        <pt x="555" y="205" on="1"/>
        <pt x="555" y="182" on="0"/>
        <pt x="518" y="145" on="0"/>
      </contour>
    </TTGlyph>
    <TTGlyph name="exclam" xMin="204" yMin="-20" xMax="397" yMax="770">
      <contour>
        <pt x="302" y="-20" on="1"/>
        <pt x="261" y="-20" on="0"/>
        <pt x="204" y="38" on="0"/>
        <pt x="204" y="78" on="1"/>
        <pt x="204" y="119" on="0"/>
        <pt x="261" y="177" on="0"/>
        <pt x="302" y="177" on="1"/>
        <pt x="341" y="177" on="0"/>
        <pt x="397" y="119" on="0"/>
        <pt x="397" y="78" on="1"/>
        <pt x="397" y="38" on="0"/>
        <pt x="341" y="-20" on="0"/>
      </contour>
      <contour>
        <pt x="300" y="245" on="1"/>
        <pt x="247" y="245" on="0"/>
        <pt x="244" y="304" on="1"/>
        <pt x="226" y="686" on="1"/>
        <pt x="226" y="718" on="0"/>
        <pt x="261" y="770" on="0"/>
        <pt x="299" y="770" on="1"/>
        <pt x="338" y="770" on="0"/>
        <pt x="373" y="718" on="0"/>
        <pt x="373" y="686" on="1"/>
        <pt x="356" y="304" on="1"/>
        <pt x="353" y="245" on="0"/>
      </contour>
    </TTGlyph>
    <TTGlyph name="f" xMin="52" yMin="-20" xMax="563" yMax="810">
      <contour>
        <pt x="265" y="-20" on="1"/>
        <pt x="241" y="-20" on="0"/>
        <pt x="205" y="16" on="0"/>
        <pt x="205" y="40" on="1"/>
        <pt x="205" y="441" on="0"/>
        <pt x="201" y="445" on="0"/>
        <pt x="112" y="445" on="1"/>
        <pt x="88" y="445" on="0"/>
        <pt x="52" y="481" on="0"/>
        <pt x="52" y="505" on="1"/>
        <pt x="52" y="528" on="0"/>
        <pt x="88" y="565" on="0"/>
        <pt x="112" y="565" on="1"/>
        <pt x="201" y="565" on="0"/>
        <pt x="205" y="568" on="0"/>
        <pt x="205" y="624" on="1"/>
        <pt x="205" y="695" on="0"/>
        <pt x="320" y="810" on="0"/>
        <pt x="390" y="810" on="1"/>
        <pt x="503" y="810" on="1"/>
        <pt x="526" y="810" on="0"/>
        <pt x="563" y="773" on="0"/>
        <pt x="563" y="750" on="1"/>
        <pt x="563" y="726" on="0"/>
        <pt x="526" y="690" on="0"/>
        <pt x="503" y="690" on="1"/>
        <pt x="410" y="690" on="1"/>
        <pt x="378" y="690" on="0"/>
        <pt x="325" y="636" on="0"/>
        <pt x="325" y="604" on="1"/>
        <pt x="325" y="568" on="0"/>
        <pt x="328" y="565" on="0"/>
        <pt x="502" y="565" on="1"/>
        <pt x="525" y="565" on="0"/>
        <pt x="562" y="528" on="0"/>
        <pt x="562" y="505" on="1"/>
        <pt x="562" y="481" on="0"/>
        <pt x="525" y="445" on="0"/>
        <pt x="502" y="445" on="1"/>
        <pt x="328" y="445" on="0"/>
        <pt x="325" y="441" on="0"/>
        <pt x="325" y="40" on="1"/>
        <pt x="325" y="16" on="0"/>
        <pt x="288" y="-20" on="0"/>
      </contour>
    </TTGlyph>
    <TTGlyph name="five" xMin="75" yMin="-20" xMax="523" yMax="765">
      <contour>
        <pt x="232" y="-20" on="1"/>
        <pt x="214" y="-20" on="1"/>
        <pt x="161" y="-20" on="0"/>
        <pt x="129" y="-15" on="1"/>
        <pt x="106" y="-11" on="0"/>
        <pt x="75" y="21" on="0"/>
        <pt x="75" y="45" on="1"/>
        <pt x="75" y="69" on="0"/>
        <pt x="107" y="104" on="0"/>
        <pt x="133" y="104" on="1"/>
        <pt x="174" y="100" on="0"/>
        <pt x="225" y="99" on="1"/>
        <pt x="274" y="99" on="0"/>
        <pt x="353" y="130" on="0"/>
        <pt x="399" y="192" on="0"/>
        <pt x="399" y="240" on="1"/>
        <pt x="399" y="301" on="0"/>
        <pt x="316" y="354" on="0"/>
        <pt x="224" y="354" on="1"/>
        <pt x="140" y="354" on="1"/>
        <pt x="115" y="354" on="0"/>
        <pt x="78" y="391" on="0"/>
        <pt x="78" y="416" on="1"/>
        <pt x="78" y="703" on="1"/>
        <pt x="78" y="729" on="0"/>
        <pt x="115" y="765" on="0"/>
        <pt x="140" y="765" on="1"/>
        <pt x="449" y="765" on="1"/>
        <pt x="473" y="765" on="0"/>
        <pt x="507" y="731" on="0"/>
        <pt x="507" y="707" on="1"/>
        <pt x="507" y="683" on="0"/>
        <pt x="473" y="649" on="0"/>
        <pt x="449" y="649" on="1"/>
        <pt x="210" y="649" on="1"/>
        <pt x="206" y="649" on="0"/>
        <pt x="201" y="644" on="0"/>
        <pt x="201" y="640" on="1"/>
        <pt x="201" y="479" on="1"/>
        <pt x="201" y="476" on="0"/>
        <pt x="206" y="471" on="0"/>
        <pt x="210" y="471" on="1"/>
        <pt x="241" y="471" on="1"/>
        <pt x="523" y="471" on="0"/>
        <pt x="523" y="247" on="1"/>
        <pt x="523" y="116" on="0"/>
        <pt x="437" y="51" on="1"/>
        <pt x="345" y="-20" on="0"/>
      </contour>
    </TTGlyph>
    <TTGlyph name="four" xMin="25" yMin="-20" xMax="565" yMax="770">
      <contour>
        <pt x="350" y="305" on="1"/>
        <pt x="350" y="538" on="1"/>
        <pt x="351" y="538" on="1"/>
        <pt x="349" y="538" on="1"/>
        <pt x="189" y="306" on="1"/>
        <pt x="188" y="306" on="1"/>
        <pt x="188" y="305" on="1"/>
      </contour>
      <contour>
        <pt x="410" y="-20" on="1"/>
        <pt x="387" y="-20" on="0"/>
        <pt x="350" y="17" on="0"/>
        <pt x="350" y="40" on="1"/>
        <pt x="350" y="185" on="1"/>
        <pt x="110" y="185" on="1"/>
        <pt x="76" y="185" on="0"/>
        <pt x="25" y="236" on="0"/>
        <pt x="25" y="270" on="1"/>
        <pt x="25" y="292" on="0"/>
        <pt x="38" y="315" on="1"/>
        <pt x="334" y="736" on="1"/>
        <pt x="358" y="770" on="0"/>
        <pt x="397" y="770" on="1"/>
        <pt x="426" y="770" on="0"/>
        <pt x="470" y="726" on="0"/>
        <pt x="470" y="697" on="1"/>
        <pt x="470" y="305" on="1"/>
        <pt x="469" y="304" on="1"/>
        <pt x="470" y="305" on="1"/>
        <pt x="505" y="305" on="1"/>
        <pt x="528" y="305" on="0"/>
        <pt x="565" y="268" on="0"/>
        <pt x="565" y="245" on="1"/>
        <pt x="565" y="222" on="0"/>
        <pt x="528" y="185" on="0"/>
        <pt x="505" y="185" on="1"/>
        <pt x="469" y="185" on="1"/>
        <pt x="470" y="185" on="1"/>
        <pt x="470" y="40" on="1"/>
        <pt x="470" y="17" on="0"/>
        <pt x="433" y="-20" on="0"/>
      </contour>
    </TTGlyph>
    <TTGlyph name="g" xMin="55" yMin="-251" xMax="519" yMax="570">
      <contour>
        <pt x="285" y="450" on="1"/>
        <pt x="179" y="447" on="0"/>
        <pt x="175" y="284" on="1"/>
        <pt x="175" y="198" on="0"/>
        <pt x="237" y="116" on="0"/>
        <pt x="283" y="116" on="1"/>
        <pt x="331" y="116" on="0"/>
        <pt x="363" y="150" on="1"/>
        <pt x="399" y="190" on="0"/>
        <pt x="399" y="232" on="1"/>
        <pt x="399" y="332" on="1"/>
        <pt x="399" y="386" on="0"/>
        <pt x="328" y="450" on="0"/>
        <pt x="290" y="450" on="1"/>
      </contour>
      <contour>
        <pt x="519" y="-19" on="1"/>
        <pt x="519" y="-126" on="0"/>
        <pt x="387" y="-251" on="0"/>
        <pt x="281" y="-251" on="1"/>
        <pt x="155" y="-251" on="0"/>
        <pt x="75" y="-162" on="1"/>
        <pt x="60" y="-144" on="0"/>
        <pt x="60" y="-124" on="1"/>
        <pt x="60" y="-105" on="0"/>
        <pt x="73" y="-89" on="1"/>
        <pt x="90" y="-69" on="0"/>
        <pt x="114" y="-69" on="1"/>
        <pt x="136" y="-69" on="0"/>
        <pt x="152" y="-84" on="1"/>
        <pt x="183" y="-114" on="0"/>
        <pt x="230" y="-140" on="0"/>
        <pt x="281" y="-140" on="1"/>
        <pt x="336" y="-139" on="0"/>
        <pt x="370" y="-107" on="1"/>
        <pt x="398" y="-81" on="0"/>
        <pt x="398" y="-49" on="1"/>
        <pt x="399" y="0" on="1"/>
        <pt x="399" y="18" on="1"/>
        <pt x="399" y="24" on="0"/>
        <pt x="399" y="24" on="0"/>
        <pt x="397" y="24" on="1"/>
        <pt x="393" y="24" on="0"/>
        <pt x="386" y="18" on="1"/>
        <pt x="339" y="-20" on="0"/>
        <pt x="268" y="-20" on="1"/>
        <pt x="174" y="-20" on="0"/>
        <pt x="55" y="140" on="0"/>
        <pt x="55" y="268" on="1"/>
        <pt x="56" y="413" on="0"/>
        <pt x="161" y="570" on="0"/>
        <pt x="267" y="570" on="1"/>
        <pt x="351" y="570" on="0"/>
        <pt x="403" y="516" on="1"/>
        <pt x="404" y="515" on="0"/>
        <pt x="404" y="515" on="1"/>
        <pt x="401" y="515" on="0"/>
        <pt x="402" y="521" on="1"/>
        <pt x="410" y="570" on="0"/>
        <pt x="461" y="570" on="1"/>
        <pt x="486" y="570" on="0"/>
        <pt x="519" y="536" on="0"/>
        <pt x="519" y="509" on="1"/>
      </contour>
    </TTGlyph>
    <TTGlyph name="grave" xMin="160" yMin="535" xMax="440" yMax="815">
      <contour>
        <pt x="380" y="535" on="1"/>
        <pt x="358" y="535" on="0"/>
        <pt x="336" y="553" on="1"/>
        <pt x="178" y="711" on="1"/>
        <pt x="160" y="733" on="0"/>
        <pt x="160" y="755" on="1"/>
        <pt x="160" y="776" on="0"/>
        <pt x="178" y="797" on="1"/>
        <pt x="199" y="815" on="0"/>
        <pt x="220" y="815" on="1"/>
        <pt x="241" y="815" on="0"/>
        <pt x="263" y="797" on="1"/>
        <pt x="342" y="717" on="0"/>
        <pt x="422" y="638" on="1"/>
        <pt x="440" y="616" on="0"/>
        <pt x="440" y="595" on="1"/>
        <pt x="440" y="574" on="0"/>
        <pt x="422" y="553" on="1"/>
        <pt x="401" y="535" on="0"/>
      </contour>
    </TTGlyph>
    <TTGlyph name="greater" xMin="63" yMin="64" xMax="540" yMax="554">
      <contour>
        <pt x="123" y="64" on="1"/>
        <pt x="107" y="64" on="0"/>
        <pt x="91" y="74" on="1"/>
        <pt x="63" y="91" on="0"/>
        <pt x="63" y="123" on="1"/>
        <pt x="63" y="139" on="0"/>
        <pt x="82" y="170" on="0"/>
        <pt x="97" y="178" on="1"/>
        <pt x="343" y="310" on="1"/>
        <pt x="98" y="440" on="1"/>
        <pt x="83" y="448" on="0"/>
        <pt x="64" y="479" on="0"/>
        <pt x="64" y="495" on="1"/>
        <pt x="64" y="526" on="0"/>
        <pt x="92" y="544" on="1"/>
        <pt x="107" y="554" on="0"/>
        <pt x="123" y="554" on="1"/>
        <pt x="136" y="554" on="0"/>
        <pt x="151" y="547" on="1"/>
        <pt x="507" y="364" on="1"/>
        <pt x="522" y="356" on="0"/>
        <pt x="540" y="326" on="0"/>
        <pt x="540" y="311" on="1"/>
        <pt x="540" y="294" on="0"/>
        <pt x="522" y="264" on="0"/>
        <pt x="507" y="257" on="1"/>
        <pt x="149" y="70" on="1"/>
        <pt x="135" y="64" on="0"/>
      </contour>
    </TTGlyph>
    <TTGlyph name="h" xMin="68" yMin="-20" xMax="533" yMax="815">
      <contour>
        <pt x="68" y="753" on="1"/>
        <pt x="68" y="779" on="0"/>
        <pt x="104" y="815" on="0"/>
        <pt x="128" y="815" on="1"/>
        <pt x="152" y="815" on="0"/>
        <pt x="188" y="779" on="0"/>
        <pt x="188" y="753" on="1"/>
        <pt x="188" y="492" on="1"/>
        <pt x="188" y="492" on="0"/>
        <pt x="183" y="492" on="1"/>
        <pt x="182" y="492" on="0"/>
        <pt x="184" y="494" on="1"/>
        <pt x="256" y="569" on="0"/>
        <pt x="336" y="570" on="1"/>
        <pt x="431" y="570" on="0"/>
        <pt x="480" y="515" on="1"/>
        <pt x="533" y="459" on="0"/>
        <pt x="533" y="342" on="1"/>
        <pt x="533" y="41" on="1"/>
        <pt x="533" y="14" on="0"/>
        <pt x="503" y="-20" on="0"/>
        <pt x="475" y="-20" on="1"/>
        <pt x="449" y="-20" on="0"/>
        <pt x="415" y="14" on="0"/>
        <pt x="415" y="41" on="1"/>
        <pt x="415" y="336" on="1"/>
        <pt x="413" y="443" on="0"/>
        <pt x="323" y="443" on="1"/>
        <pt x="281" y="442" on="0"/>
        <pt x="238" y="405" on="1"/>
        <pt x="186" y="359" on="0"/>
        <pt x="186" y="315" on="1"/>
        <pt x="186" y="41" on="1"/>
        <pt x="186" y="14" on="0"/>
        <pt x="156" y="-20" on="0"/>
        <pt x="128" y="-20" on="1"/>
        <pt x="102" y="-20" on="0"/>
        <pt x="68" y="14" on="0"/>
        <pt x="68" y="41" on="1"/>
      </contour>
    </TTGlyph>
    <TTGlyph name="hyphen" xMin="45" yMin="250" xMax="555" yMax="370">
      <contour>
        <pt x="495" y="250" on="1"/>
        <pt x="105" y="250" on="1"/>
        <pt x="81" y="250" on="0"/>
        <pt x="45" y="287" on="0"/>
        <pt x="45" y="310" on="1"/>
        <pt x="45" y="333" on="0"/>
        <pt x="81" y="370" on="0"/>
        <pt x="105" y="370" on="1"/>
        <pt x="495" y="370" on="1"/>
        <pt x="518" y="370" on="0"/>
        <pt x="555" y="333" on="0"/>
        <pt x="555" y="310" on="1"/>
        <pt x="555" y="287" on="0"/>
        <pt x="518" y="250" on="0"/>
      </contour>
    </TTGlyph>
    <TTGlyph name="i" xMin="68" yMin="-15" xMax="574" yMax="816">
      <contour>
        <pt x="322" y="637" on="1"/>
        <pt x="284" y="637" on="0"/>
        <pt x="233" y="689" on="0"/>
        <pt x="233" y="726" on="1"/>
        <pt x="233" y="763" on="0"/>
        <pt x="284" y="816" on="0"/>
        <pt x="322" y="816" on="1"/>
        <pt x="357" y="816" on="0"/>
        <pt x="409" y="763" on="0"/>
        <pt x="409" y="726" on="1"/>
        <pt x="409" y="689" on="0"/>
        <pt x="357" y="637" on="0"/>
      </contour>
      <contour>
        <pt x="513" y="-15" on="1"/>
        <pt x="128" y="-15" on="1"/>
        <pt x="106" y="-15" on="0"/>
        <pt x="69" y="19" on="0"/>
        <pt x="69" y="46" on="1"/>
        <pt x="69" y="75" on="0"/>
        <pt x="106" y="107" on="0"/>
        <pt x="128" y="107" on="1"/>
        <pt x="252" y="107" on="1"/>
        <pt x="261" y="107" on="0"/>
        <pt x="261" y="117" on="1"/>
        <pt x="261" y="409" on="1"/>
        <pt x="261" y="424" on="0"/>
        <pt x="242" y="442" on="0"/>
        <pt x="229" y="442" on="1"/>
        <pt x="127" y="442" on="1"/>
        <pt x="103" y="442" on="0"/>
        <pt x="68" y="477" on="0"/>
        <pt x="68" y="503" on="1"/>
        <pt x="68" y="531" on="0"/>
        <pt x="103" y="565" on="0"/>
        <pt x="127" y="565" on="1"/>
        <pt x="272" y="565" on="1"/>
        <pt x="317" y="565" on="0"/>
        <pt x="381" y="500" on="0"/>
        <pt x="381" y="454" on="1"/>
        <pt x="381" y="117" on="1"/>
        <pt x="381" y="107" on="0"/>
        <pt x="389" y="107" on="1"/>
        <pt x="513" y="107" on="1"/>
        <pt x="536" y="107" on="0"/>
        <pt x="574" y="75" on="0"/>
        <pt x="574" y="46" on="1"/>
        <pt x="574" y="19" on="0"/>
        <pt x="536" y="-15" on="0"/>
      </contour>
    </TTGlyph>
    <TTGlyph name="j" xMin="42" yMin="-259" xMax="436" yMax="815">
      <contour>
        <pt x="350" y="638" on="1"/>
        <pt x="314" y="638" on="0"/>
        <pt x="264" y="690" on="0"/>
        <pt x="264" y="727" on="1"/>
        <pt x="264" y="763" on="0"/>
        <pt x="314" y="815" on="0"/>
        <pt x="350" y="815" on="1"/>
        <pt x="385" y="815" on="0"/>
        <pt x="436" y="763" on="0"/>
        <pt x="436" y="727" on="1"/>
        <pt x="436" y="690" on="0"/>
        <pt x="385" y="638" on="0"/>
      </contour>
      <contour>
        <pt x="157" y="-259" on="1"/>
        <pt x="110" y="-259" on="0"/>
        <pt x="91" y="-256" on="1"/>
        <pt x="42" y="-248" on="0"/>
        <pt x="42" y="-197" on="1"/>
        <pt x="42" y="-172" on="0"/>
        <pt x="75" y="-138" on="0"/>
        <pt x="95" y="-138" on="1"/>
        <pt x="160" y="-139" on="1"/>
        <pt x="300" y="-139" on="0"/>
        <pt x="300" y="-24" on="1"/>
        <pt x="300" y="411" on="1"/>
        <pt x="300" y="424" on="0"/>
        <pt x="284" y="442" on="0"/>
        <pt x="270" y="442" on="1"/>
        <pt x="154" y="442" on="1"/>
        <pt x="130" y="442" on="0"/>
        <pt x="95" y="478" on="0"/>
        <pt x="95" y="503" on="1"/>
        <pt x="95" y="528" on="0"/>
        <pt x="129" y="565" on="0"/>
        <pt x="154" y="565" on="1"/>
        <pt x="314" y="565" on="1"/>
        <pt x="357" y="565" on="0"/>
        <pt x="420" y="499" on="0"/>
        <pt x="420" y="454" on="1"/>
        <pt x="420" y="-34" on="1"/>
        <pt x="420" y="-142" on="0"/>
        <pt x="303" y="-259" on="0"/>
      </contour>
    </TTGlyph>
    <TTGlyph name="k" xMin="81" yMin="-15" xMax="562" yMax="764">
      <contour>
        <pt x="499" y="-15" on="1"/>
        <pt x="463" y="-15" on="0"/>
        <pt x="444" y="15" on="1"/>
        <pt x="298" y="223" on="1"/>
        <pt x="294" y="228" on="0"/>
        <pt x="293" y="228" on="1"/>
        <pt x="287" y="228" on="0"/>
        <pt x="286" y="227" on="1"/>
        <pt x="219" y="156" on="1"/>
        <pt x="201" y="138" on="0"/>
        <pt x="201" y="116" on="1"/>
        <pt x="201" y="50" on="1"/>
        <pt x="201" y="24" on="0"/>
        <pt x="169" y="-15" on="0"/>
        <pt x="142" y="-15" on="1"/>
        <pt x="114" y="-15" on="0"/>
        <pt x="81" y="22" on="0"/>
        <pt x="81" y="50" on="1"/>
        <pt x="81" y="702" on="1"/>
        <pt x="81" y="732" on="0"/>
        <pt x="116" y="764" on="0"/>
        <pt x="140" y="764" on="1"/>
        <pt x="166" y="764" on="0"/>
        <pt x="201" y="730" on="0"/>
        <pt x="201" y="701" on="1"/>
        <pt x="201" y="339" on="1"/>
        <pt x="201" y="331" on="0"/>
        <pt x="207" y="331" on="1"/>
        <pt x="212" y="331" on="0"/>
        <pt x="214" y="333" on="1"/>
        <pt x="416" y="545" on="1"/>
        <pt x="434" y="565" on="0"/>
        <pt x="464" y="565" on="1"/>
        <pt x="491" y="565" on="0"/>
        <pt x="527" y="530" on="0"/>
        <pt x="527" y="509" on="1"/>
        <pt x="527" y="484" on="0"/>
        <pt x="510" y="466" on="1"/>
        <pt x="392" y="340" on="1"/>
        <pt x="383" y="330" on="0"/>
        <pt x="383" y="321" on="1"/>
        <pt x="383" y="315" on="0"/>
        <pt x="388" y="308" on="1"/>
        <pt x="552" y="81" on="1"/>
        <pt x="562" y="66" on="0"/>
        <pt x="562" y="45" on="1"/>
        <pt x="562" y="-14" on="0"/>
      </contour>
    </TTGlyph>
    <TTGlyph name="l" xMin="39" yMin="-15" xMax="567" yMax="815">
      <contour>
        <pt x="431" y="-15" on="1"/>
        <pt x="216" y="-15" on="0"/>
        <pt x="215" y="221" on="1"/>
        <pt x="215" y="650" on="1"/>
        <pt x="215" y="666" on="0"/>
        <pt x="190" y="693" on="0"/>
        <pt x="173" y="693" on="1"/>
        <pt x="99" y="693" on="1"/>
        <pt x="75" y="693" on="0"/>
        <pt x="39" y="726" on="0"/>
        <pt x="39" y="753" on="1"/>
        <pt x="39" y="782" on="0"/>
        <pt x="75" y="815" on="0"/>
        <pt x="99" y="815" on="1"/>
        <pt x="216" y="815" on="1"/>
        <pt x="261" y="815" on="0"/>
        <pt x="335" y="740" on="0"/>
        <pt x="335" y="695" on="1"/>
        <pt x="335" y="240" on="1"/>
        <pt x="335" y="105" on="0"/>
        <pt x="441" y="105" on="1"/>
        <pt x="465" y="105" on="0"/>
        <pt x="488" y="118" on="1"/>
        <pt x="500" y="125" on="0"/>
        <pt x="510" y="125" on="1"/>
        <pt x="521" y="125" on="0"/>
        <pt x="548" y="114" on="0"/>
        <pt x="567" y="87" on="0"/>
        <pt x="567" y="67" on="1"/>
        <pt x="567" y="45" on="0"/>
        <pt x="554" y="28" on="1"/>
        <pt x="520" y="-14" on="0"/>
      </contour>
    </TTGlyph>
    <TTGlyph name="left_arrow_single" xMin="-497" yMin="-11" xMax="555" yMax="624">
      <contour>
        <pt x="-178" y="-11" on="1"/>
        <pt x="-200" y="-11" on="0"/>
        <pt x="-216" y="5" on="1"/>
        <pt x="-481" y="270" on="1"/>
        <pt x="-497" y="290" on="0"/>
        <pt x="-497" y="310" on="1"/>
        <pt x="-497" y="328" on="0"/>
        <pt x="-481" y="348" on="1"/>
        <pt x="-222" y="608" on="1"/>
        <pt x="-207" y="624" on="0"/>
        <pt x="-184" y="624" on="1"/>
        <pt x="-161" y="624" on="0"/>
        <pt x="-122" y="584" on="0"/>
        <pt x="-122" y="562" on="1"/>
        <pt x="-122" y="542" on="0"/>
        <pt x="-137" y="523" on="1"/>
        <pt x="-207" y="453" on="1"/>
        <pt x="-122" y="370" on="1"/>
        <pt x="495" y="370" on="1"/>
        <pt x="520" y="370" on="0"/>
        <pt x="555" y="333" on="0"/>
        <pt x="555" y="310" on="1"/>
        <pt x="555" y="285" on="0"/>
        <pt x="518" y="250" on="0"/>
        <pt x="495" y="250" on="1"/>
        <pt x="-122" y="250" on="1"/>
        <pt x="-208" y="166" on="1"/>
        <pt x="-131" y="89" on="1"/>
        <pt x="-116" y="74" on="0"/>
        <pt x="-116" y="51" on="1"/>
        <pt x="-116" y="28" on="0"/>
        <pt x="-156" y="-11" on="0"/>
      </contour>
      <contour>
        <pt x="-292" y="254" on="1"/>
        <pt x="-290" y="254" on="0"/>
        <pt x="-288" y="255" on="0"/>
        <pt x="-237" y="305" on="0"/>
        <pt x="-236" y="308" on="0"/>
        <pt x="-236" y="310" on="1"/>
        <pt x="-236" y="312" on="0"/>
        <pt x="-237" y="315" on="0"/>
        <pt x="-288" y="364" on="0"/>
        <pt x="-290" y="365" on="0"/>
        <pt x="-292" y="365" on="1"/>
        <pt x="-295" y="365" on="0"/>
        <pt x="-297" y="364" on="0"/>
        <pt x="-346" y="314" on="0"/>
        <pt x="-348" y="312" on="0"/>
        <pt x="-348" y="309" on="1"/>
        <pt x="-348" y="308" on="1"/>
        <pt x="-348" y="306" on="0"/>
        <pt x="-347" y="305" on="0"/>
        <pt x="-297" y="255" on="0"/>
        <pt x="-295" y="254" on="0"/>
      </contour>
    </TTGlyph>
    <TTGlyph name="left_right_arrow_double" xMin="-1097" yMin="-11" xMax="497" yMax="624">
      <contour>
        <pt x="166" y="265" on="1"/>
        <pt x="191" y="265" on="0"/>
        <pt x="210" y="247" on="1"/>
        <pt x="250" y="208" on="1"/>
        <pt x="345" y="304" on="1"/>
        <pt x="348" y="306" on="0"/>
        <pt x="348" y="310" on="1"/>
        <pt x="348" y="313" on="0"/>
        <pt x="345" y="315" on="1"/>
        <pt x="250" y="411" on="1"/>
        <pt x="210" y="372" on="1"/>
        <pt x="192" y="355" on="0"/>
        <pt x="166" y="355" on="1"/>
        <pt x="-766" y="355" on="1"/>
        <pt x="-792" y="355" on="0"/>
        <pt x="-810" y="372" on="1"/>
        <pt x="-850" y="411" on="1"/>
        <pt x="-945" y="315" on="1"/>
        <pt x="-948" y="313" on="0"/>
        <pt x="-948" y="310" on="1"/>
        <pt x="-948" y="306" on="0"/>
        <pt x="-945" y="304" on="1"/>
        <pt x="-850" y="208" on="1"/>
        <pt x="-810" y="247" on="1"/>
        <pt x="-791" y="265" on="0"/>
        <pt x="-766" y="265" on="1"/>
      </contour>
      <contour>
        <pt x="128" y="475" on="1"/>
        <pt x="141" y="475" on="0"/>
        <pt x="151" y="484" on="1"/>
        <pt x="164" y="496" on="1"/>
        <pt x="137" y="523" on="1"/>
        <pt x="122" y="539" on="0"/>
        <pt x="122" y="562" on="1"/>
        <pt x="122" y="586" on="0"/>
        <pt x="160" y="624" on="0"/>
        <pt x="185" y="624" on="1"/>
        <pt x="206" y="624" on="0"/>
        <pt x="222" y="609" on="1"/>
        <pt x="482" y="349" on="1"/>
        <pt x="497" y="333" on="0"/>
        <pt x="497" y="310" on="1"/>
        <pt x="497" y="286" on="0"/>
        <pt x="482" y="270" on="1"/>
        <pt x="216" y="4" on="1"/>
        <pt x="200" y="-11" on="0"/>
        <pt x="178" y="-11" on="1"/>
        <pt x="154" y="-11" on="0"/>
        <pt x="116" y="26" on="0"/>
        <pt x="116" y="51" on="1"/>
        <pt x="116" y="73" on="0"/>
        <pt x="131" y="89" on="1"/>
        <pt x="164" y="122" on="1"/>
        <pt x="151" y="135" on="1"/>
        <pt x="140" y="145" on="0"/>
        <pt x="128" y="145" on="1"/>
        <pt x="-728" y="145" on="1"/>
        <pt x="-740" y="145" on="0"/>
        <pt x="-751" y="135" on="1"/>
        <pt x="-764" y="122" on="1"/>
        <pt x="-731" y="89" on="1"/>
        <pt x="-716" y="73" on="0"/>
        <pt x="-716" y="51" on="1"/>
        <pt x="-716" y="26" on="0"/>
        <pt x="-754" y="-11" on="0"/>
        <pt x="-778" y="-11" on="1"/>
        <pt x="-800" y="-11" on="0"/>
        <pt x="-816" y="4" on="1"/>
        <pt x="-1082" y="270" on="1"/>
        <pt x="-1097" y="286" on="0"/>
        <pt x="-1097" y="310" on="1"/>
        <pt x="-1097" y="333" on="0"/>
        <pt x="-1082" y="349" on="1"/>
        <pt x="-822" y="609" on="1"/>
        <pt x="-806" y="624" on="0"/>
        <pt x="-785" y="624" on="1"/>
        <pt x="-760" y="624" on="0"/>
        <pt x="-722" y="586" on="0"/>
        <pt x="-722" y="562" on="1"/>
        <pt x="-722" y="539" on="0"/>
        <pt x="-737" y="523" on="1"/>
        <pt x="-764" y="496" on="1"/>
        <pt x="-751" y="484" on="1"/>
        <pt x="-741" y="475" on="0"/>
        <pt x="-728" y="475" on="1"/>
      </contour>
    </TTGlyph>
    <TTGlyph name="left_right_arrow_double_long" xMin="-1697" yMin="-11" xMax="497" yMax="624">
      <contour>
        <pt x="166" y="265" on="1"/>
        <pt x="191" y="265" on="0"/>
        <pt x="210" y="247" on="1"/>
        <pt x="250" y="208" on="1"/>
        <pt x="345" y="304" on="1"/>
        <pt x="348" y="306" on="0"/>
        <pt x="348" y="310" on="1"/>
        <pt x="348" y="313" on="0"/>
        <pt x="345" y="315" on="1"/>
        <pt x="250" y="411" on="1"/>
        <pt x="210" y="372" on="1"/>
        <pt x="192" y="355" on="0"/>
        <pt x="166" y="355" on="1"/>
        <pt x="-1366" y="355" on="1"/>
        <pt x="-1392" y="355" on="0"/>
        <pt x="-1410" y="372" on="1"/>
        <pt x="-1450" y="411" on="1"/>
        <pt x="-1545" y="315" on="1"/>
        <pt x="-1548" y="313" on="0"/>
        <pt x="-1548" y="310" on="1"/>
        <pt x="-1548" y="306" on="0"/>
        <pt x="-1545" y="304" on="1"/>
        <pt x="-1450" y="208" on="1"/>
        <pt x="-1410" y="247" on="1"/>
        <pt x="-1391" y="265" on="0"/>
        <pt x="-1366" y="265" on="1"/>
      </contour>
      <contour>
        <pt x="128" y="475" on="1"/>
        <pt x="141" y="475" on="0"/>
        <pt x="151" y="484" on="1"/>
        <pt x="164" y="496" on="1"/>
        <pt x="137" y="523" on="1"/>
        <pt x="122" y="539" on="0"/>
        <pt x="122" y="562" on="1"/>
        <pt x="122" y="586" on="0"/>
        <pt x="160" y="624" on="0"/>
        <pt x="185" y="624" on="1"/>
        <pt x="206" y="624" on="0"/>
        <pt x="222" y="609" on="1"/>
        <pt x="482" y="349" on="1"/>
        <pt x="497" y="333" on="0"/>
        <pt x="497" y="310" on="1"/>
        <pt x="497" y="286" on="0"/>
        <pt x="482" y="270" on="1"/>
        <pt x="216" y="4" on="1"/>
        <pt x="200" y="-11" on="0"/>
        <pt x="178" y="-11" on="1"/>
        <pt x="154" y="-11" on="0"/>
        <pt x="116" y="26" on="0"/>
        <pt x="116" y="51" on="1"/>
        <pt x="116" y="73" on="0"/>
        <pt x="131" y="89" on="1"/>
        <pt x="164" y="122" on="1"/>
        <pt x="151" y="135" on="1"/>
        <pt x="140" y="145" on="0"/>
        <pt x="128" y="145" on="1"/>
        <pt x="-1328" y="145" on="1"/>
        <pt x="-1340" y="145" on="0"/>
        <pt x="-1351" y="135" on="1"/>
        <pt x="-1364" y="122" on="1"/>
        <pt x="-1331" y="89" on="1"/>
        <pt x="-1316" y="73" on="0"/>
        <pt x="-1316" y="51" on="1"/>
        <pt x="-1316" y="26" on="0"/>
        <pt x="-1354" y="-11" on="0"/>
        <pt x="-1378" y="-11" on="1"/>
        <pt x="-1400" y="-11" on="0"/>
        <pt x="-1416" y="4" on="1"/>
        <pt x="-1682" y="270" on="1"/>
        <pt x="-1697" y="286" on="0"/>
        <pt x="-1697" y="310" on="1"/>
        <pt x="-1697" y="333" on="0"/>
        <pt x="-1682" y="349" on="1"/>
        <pt x="-1422" y="609" on="1"/>
        <pt x="-1406" y="624" on="0"/>
        <pt x="-1385" y="624" on="1"/>
        <pt x="-1360" y="624" on="0"/>
        <pt x="-1322" y="586" on="0"/>
        <pt x="-1322" y="562" on="1"/>
        <pt x="-1322" y="539" on="0"/>
        <pt x="-1337" y="523" on="1"/>
        <pt x="-1364" y="496" on="1"/>
        <pt x="-1351" y="484" on="1"/>
        <pt x="-1341" y="475" on="0"/>
        <pt x="-1328" y="475" on="1"/>
      </contour>
    </TTGlyph>
    <TTGlyph name="left_right_arrow_single" xMin="-1097" yMin="-11" xMax="497" yMax="624">
      <contour>
        <pt x="293" y="254" on="1"/>
        <pt x="296" y="254" on="0"/>
        <pt x="298" y="257" on="1"/>
        <pt x="345" y="304" on="1"/>
        <pt x="348" y="306" on="0"/>
        <pt x="348" y="309" on="1"/>
        <pt x="348" y="312" on="0"/>
        <pt x="345" y="316" on="1"/>
        <pt x="298" y="362" on="1"/>
        <pt x="296" y="365" on="0"/>
        <pt x="293" y="365" on="1"/>
        <pt x="290" y="365" on="0"/>
        <pt x="286" y="362" on="1"/>
        <pt x="238" y="316" on="1"/>
        <pt x="238" y="315" on="0"/>
        <pt x="236" y="312" on="0"/>
        <pt x="236" y="310" on="1"/>
        <pt x="236" y="309" on="0"/>
        <pt x="238" y="304" on="0"/>
        <pt x="239" y="304" on="1"/>
        <pt x="286" y="257" on="1"/>
        <pt x="290" y="254" on="0"/>
      </contour>
      <contour>
        <pt x="-892" y="254" on="1"/>
        <pt x="-889" y="254" on="0"/>
        <pt x="-887" y="257" on="1"/>
        <pt x="-839" y="304" on="1"/>
        <pt x="-838" y="304" on="0"/>
        <pt x="-836" y="309" on="0"/>
        <pt x="-836" y="310" on="1"/>
        <pt x="-836" y="312" on="0"/>
        <pt x="-838" y="315" on="0"/>
        <pt x="-838" y="316" on="1"/>
        <pt x="-886" y="362" on="1"/>
        <pt x="-889" y="365" on="0"/>
        <pt x="-892" y="365" on="1"/>
        <pt x="-895" y="365" on="0"/>
        <pt x="-899" y="362" on="1"/>
        <pt x="-945" y="316" on="1"/>
        <pt x="-948" y="312" on="0"/>
        <pt x="-948" y="309" on="1"/>
        <pt x="-948" y="306" on="0"/>
        <pt x="-945" y="304" on="1"/>
        <pt x="-899" y="257" on="1"/>
        <pt x="-895" y="254" on="0"/>
      </contour>
      <contour>
        <pt x="122" y="370" on="1"/>
        <pt x="208" y="453" on="1"/>
        <pt x="137" y="524" on="1"/>
        <pt x="122" y="540" on="0"/>
        <pt x="122" y="562" on="1"/>
        <pt x="122" y="586" on="0"/>
        <pt x="160" y="624" on="0"/>
        <pt x="185" y="624" on="1"/>
        <pt x="206" y="624" on="0"/>
        <pt x="222" y="609" on="1"/>
        <pt x="482" y="348" on="1"/>
        <pt x="497" y="330" on="0"/>
        <pt x="497" y="310" on="1"/>
        <pt x="497" y="287" on="0"/>
        <pt x="482" y="271" on="1"/>
        <pt x="216" y="5" on="1"/>
        <pt x="199" y="-11" on="0"/>
        <pt x="178" y="-11" on="1"/>
        <pt x="154" y="-11" on="0"/>
        <pt x="116" y="27" on="0"/>
        <pt x="116" y="51" on="1"/>
        <pt x="116" y="73" on="0"/>
        <pt x="131" y="89" on="1"/>
        <pt x="208" y="166" on="1"/>
        <pt x="122" y="250" on="1"/>
        <pt x="-722" y="250" on="1"/>
        <pt x="-808" y="166" on="1"/>
        <pt x="-731" y="89" on="1"/>
        <pt x="-716" y="73" on="0"/>
        <pt x="-716" y="51" on="1"/>
        <pt x="-716" y="27" on="0"/>
        <pt x="-754" y="-11" on="0"/>
        <pt x="-778" y="-11" on="1"/>
        <pt x="-799" y="-11" on="0"/>
        <pt x="-816" y="5" on="1"/>
        <pt x="-1082" y="271" on="1"/>
        <pt x="-1097" y="287" on="0"/>
        <pt x="-1097" y="310" on="1"/>
        <pt x="-1097" y="330" on="0"/>
        <pt x="-1082" y="348" on="1"/>
        <pt x="-821" y="609" on="1"/>
        <pt x="-805" y="624" on="0"/>
        <pt x="-784" y="624" on="1"/>
        <pt x="-760" y="624" on="0"/>
        <pt x="-722" y="586" on="0"/>
        <pt x="-722" y="562" on="1"/>
        <pt x="-722" y="540" on="0"/>
        <pt x="-737" y="524" on="1"/>
        <pt x="-807" y="453" on="1"/>
        <pt x="-722" y="370" on="1"/>
      </contour>
    </TTGlyph>
    <TTGlyph name="left_right_arrow_single_long" xMin="-1697" yMin="-11" xMax="497" yMax="624">
      <contour>
        <pt x="293" y="254" on="1"/>
        <pt x="296" y="254" on="0"/>
        <pt x="298" y="257" on="1"/>
        <pt x="345" y="304" on="1"/>
        <pt x="348" y="306" on="0"/>
        <pt x="348" y="309" on="1"/>
        <pt x="348" y="312" on="0"/>
        <pt x="345" y="316" on="1"/>
        <pt x="298" y="362" on="1"/>
        <pt x="296" y="365" on="0"/>
        <pt x="293" y="365" on="1"/>
        <pt x="290" y="365" on="0"/>
        <pt x="286" y="362" on="1"/>
        <pt x="238" y="316" on="1"/>
        <pt x="238" y="315" on="0"/>
        <pt x="236" y="312" on="0"/>
        <pt x="236" y="310" on="1"/>
        <pt x="236" y="309" on="0"/>
        <pt x="238" y="304" on="0"/>
        <pt x="239" y="304" on="1"/>
        <pt x="286" y="257" on="1"/>
        <pt x="290" y="254" on="0"/>
      </contour>
      <contour>
        <pt x="-1492" y="254" on="1"/>
        <pt x="-1489" y="254" on="0"/>
        <pt x="-1487" y="257" on="1"/>
        <pt x="-1439" y="304" on="1"/>
        <pt x="-1438" y="304" on="0"/>
        <pt x="-1436" y="309" on="0"/>
        <pt x="-1436" y="310" on="1"/>
        <pt x="-1436" y="312" on="0"/>
        <pt x="-1438" y="315" on="0"/>
        <pt x="-1438" y="316" on="1"/>
        <pt x="-1486" y="362" on="1"/>
        <pt x="-1489" y="365" on="0"/>
        <pt x="-1492" y="365" on="1"/>
        <pt x="-1495" y="365" on="0"/>
        <pt x="-1499" y="362" on="1"/>
        <pt x="-1545" y="316" on="1"/>
        <pt x="-1548" y="312" on="0"/>
        <pt x="-1548" y="309" on="1"/>
        <pt x="-1548" y="306" on="0"/>
        <pt x="-1545" y="304" on="1"/>
        <pt x="-1499" y="257" on="1"/>
        <pt x="-1495" y="254" on="0"/>
      </contour>
      <contour>
        <pt x="122" y="370" on="1"/>
        <pt x="208" y="453" on="1"/>
        <pt x="137" y="524" on="1"/>
        <pt x="122" y="540" on="0"/>
        <pt x="122" y="562" on="1"/>
        <pt x="122" y="586" on="0"/>
        <pt x="160" y="624" on="0"/>
        <pt x="185" y="624" on="1"/>
        <pt x="206" y="624" on="0"/>
        <pt x="222" y="609" on="1"/>
        <pt x="482" y="348" on="1"/>
        <pt x="497" y="330" on="0"/>
        <pt x="497" y="310" on="1"/>
        <pt x="497" y="287" on="0"/>
        <pt x="482" y="271" on="1"/>
        <pt x="216" y="5" on="1"/>
        <pt x="199" y="-11" on="0"/>
        <pt x="178" y="-11" on="1"/>
        <pt x="154" y="-11" on="0"/>
        <pt x="116" y="27" on="0"/>
        <pt x="116" y="51" on="1"/>
        <pt x="116" y="73" on="0"/>
        <pt x="131" y="89" on="1"/>
        <pt x="208" y="166" on="1"/>
        <pt x="122" y="250" on="1"/>
        <pt x="-1322" y="250" on="1"/>
        <pt x="-1408" y="166" on="1"/>
        <pt x="-1331" y="89" on="1"/>
        <pt x="-1316" y="73" on="0"/>
        <pt x="-1316" y="51" on="1"/>
        <pt x="-1316" y="27" on="0"/>
        <pt x="-1354" y="-11" on="0"/>
        <pt x="-1378" y="-11" on="1"/>
        <pt x="-1399" y="-11" on="0"/>
        <pt x="-1416" y="5" on="1"/>
        <pt x="-1682" y="271" on="1"/>
        <pt x="-1697" y="287" on="0"/>
        <pt x="-1697" y="310" on="1"/>
        <pt x="-1697" y="330" on="0"/>
        <pt x="-1682" y="348" on="1"/>
        <pt x="-1421" y="609" on="1"/>
        <pt x="-1405" y="624" on="0"/>
        <pt x="-1384" y="624" on="1"/>
        <pt x="-1360" y="624" on="0"/>
        <pt x="-1322" y="586" on="0"/>
        <pt x="-1322" y="562" on="1"/>
        <pt x="-1322" y="540" on="0"/>
        <pt x="-1337" y="524" on="1"/>
        <pt x="-1407" y="453" on="1"/>
        <pt x="-1322" y="370" on="1"/>
      </contour>
    </TTGlyph>
    <TTGlyph name="less" xMin="63" yMin="64" xMax="540" yMax="554">
      <contour>
        <pt x="480" y="64" on="1"/>
        <pt x="467" y="64" on="0"/>
        <pt x="453" y="70" on="1"/>
        <pt x="96" y="257" on="1"/>
        <pt x="81" y="264" on="0"/>
        <pt x="63" y="294" on="0"/>
        <pt x="63" y="311" on="1"/>
        <pt x="63" y="326" on="0"/>
        <pt x="81" y="356" on="0"/>
        <pt x="96" y="364" on="1"/>
        <pt x="452" y="547" on="1"/>
        <pt x="467" y="554" on="0"/>
        <pt x="480" y="554" on="1"/>
        <pt x="496" y="554" on="0"/>
        <pt x="512" y="544" on="1"/>
        <pt x="539" y="526" on="0"/>
        <pt x="539" y="495" on="1"/>
        <pt x="539" y="479" on="0"/>
        <pt x="520" y="448" on="0"/>
        <pt x="505" y="440" on="1"/>
        <pt x="260" y="310" on="1"/>
        <pt x="506" y="178" on="1"/>
        <pt x="521" y="170" on="0"/>
        <pt x="540" y="139" on="0"/>
        <pt x="540" y="123" on="1"/>
        <pt x="540" y="112" on="0"/>
        <pt x="535" y="100" on="1"/>
        <pt x="527" y="83" on="0"/>
        <pt x="496" y="64" on="0"/>
      </contour>
    </TTGlyph>
    <TTGlyph name="less_less" xMin="-477" yMin="64" xMax="480" yMax="554">
      <contour>
        <pt x="420" y="64" on="1"/>
        <pt x="407" y="64" on="0"/>
        <pt x="393" y="70" on="1"/>
        <pt x="36" y="257" on="1"/>
        <pt x="21" y="264" on="0"/>
        <pt x="3" y="294" on="0"/>
        <pt x="3" y="311" on="1"/>
        <pt x="3" y="326" on="0"/>
        <pt x="21" y="356" on="0"/>
        <pt x="36" y="364" on="1"/>
        <pt x="392" y="547" on="1"/>
        <pt x="407" y="554" on="0"/>
        <pt x="420" y="554" on="1"/>
        <pt x="436" y="554" on="0"/>
        <pt x="452" y="544" on="1"/>
        <pt x="479" y="526" on="0"/>
        <pt x="479" y="495" on="1"/>
        <pt x="479" y="479" on="0"/>
        <pt x="460" y="448" on="0"/>
        <pt x="445" y="440" on="1"/>
        <pt x="200" y="310" on="1"/>
        <pt x="446" y="178" on="1"/>
        <pt x="461" y="170" on="0"/>
        <pt x="480" y="139" on="0"/>
        <pt x="480" y="123" on="1"/>
        <pt x="480" y="112" on="0"/>
        <pt x="475" y="100" on="1"/>
        <pt x="467" y="83" on="0"/>
        <pt x="436" y="64" on="0"/>
      </contour>
      <contour>
        <pt x="-60" y="64" on="1"/>
        <pt x="-73" y="64" on="0"/>
        <pt x="-87" y="70" on="1"/>
        <pt x="-444" y="257" on="1"/>
        <pt x="-459" y="264" on="0"/>
        <pt x="-477" y="294" on="0"/>
        <pt x="-477" y="311" on="1"/>
        <pt x="-477" y="326" on="0"/>
        <pt x="-459" y="356" on="0"/>
        <pt x="-444" y="364" on="1"/>
        <pt x="-88" y="547" on="1"/>
        <pt x="-73" y="554" on="0"/>
        <pt x="-60" y="554" on="1"/>
        <pt x="-44" y="554" on="0"/>
        <pt x="-28" y="544" on="1"/>
        <pt x="-1" y="526" on="0"/>
        <pt x="-1" y="495" on="1"/>
        <pt x="-1" y="479" on="0"/>
        <pt x="-20" y="448" on="0"/>
        <pt x="-35" y="440" on="1"/>
        <pt x="-280" y="310" on="1"/>
        <pt x="-34" y="178" on="1"/>
        <pt x="-19" y="170" on="0"/>
        <pt x="0" y="139" on="0"/>
        <pt x="0" y="123" on="1"/>
        <pt x="0" y="112" on="0"/>
        <pt x="-5" y="100" on="1"/>
        <pt x="-13" y="83" on="0"/>
        <pt x="-44" y="64" on="0"/>
      </contour>
    </TTGlyph>
    <TTGlyph name="less_less_less" xMin="-1017" yMin="64" xMax="420" yMax="554">
      <contour>
        <pt x="360" y="64" on="1"/>
        <pt x="347" y="64" on="0"/>
        <pt x="333" y="70" on="1"/>
        <pt x="-24" y="257" on="1"/>
        <pt x="-39" y="264" on="0"/>
        <pt x="-57" y="294" on="0"/>
        <pt x="-57" y="311" on="1"/>
        <pt x="-57" y="326" on="0"/>
        <pt x="-39" y="356" on="0"/>
        <pt x="-24" y="364" on="1"/>
        <pt x="332" y="547" on="1"/>
        <pt x="347" y="554" on="0"/>
        <pt x="360" y="554" on="1"/>
        <pt x="376" y="554" on="0"/>
        <pt x="392" y="544" on="1"/>
        <pt x="419" y="526" on="0"/>
        <pt x="419" y="495" on="1"/>
        <pt x="419" y="479" on="0"/>
        <pt x="400" y="448" on="0"/>
        <pt x="385" y="440" on="1"/>
        <pt x="140" y="310" on="1"/>
        <pt x="386" y="178" on="1"/>
        <pt x="401" y="170" on="0"/>
        <pt x="420" y="139" on="0"/>
        <pt x="420" y="123" on="1"/>
        <pt x="420" y="112" on="0"/>
        <pt x="415" y="100" on="1"/>
        <pt x="407" y="83" on="0"/>
        <pt x="376" y="64" on="0"/>
      </contour>
      <contour>
        <pt x="-120" y="64" on="1"/>
        <pt x="-133" y="64" on="0"/>
        <pt x="-147" y="70" on="1"/>
        <pt x="-504" y="257" on="1"/>
        <pt x="-519" y="264" on="0"/>
        <pt x="-537" y="294" on="0"/>
        <pt x="-537" y="311" on="1"/>
        <pt x="-537" y="326" on="0"/>
        <pt x="-519" y="356" on="0"/>
        <pt x="-504" y="364" on="1"/>
        <pt x="-148" y="547" on="1"/>
        <pt x="-133" y="554" on="0"/>
        <pt x="-120" y="554" on="1"/>
        <pt x="-104" y="554" on="0"/>
        <pt x="-88" y="544" on="1"/>
        <pt x="-61" y="526" on="0"/>
        <pt x="-61" y="495" on="1"/>
        <pt x="-61" y="479" on="0"/>
        <pt x="-80" y="448" on="0"/>
        <pt x="-95" y="440" on="1"/>
        <pt x="-340" y="310" on="1"/>
        <pt x="-94" y="178" on="1"/>
        <pt x="-79" y="170" on="0"/>
        <pt x="-60" y="139" on="0"/>
        <pt x="-60" y="123" on="1"/>
        <pt x="-60" y="112" on="0"/>
        <pt x="-65" y="100" on="1"/>
        <pt x="-73" y="83" on="0"/>
        <pt x="-104" y="64" on="0"/>
      </contour>
      <contour>
        <pt x="-600" y="64" on="1"/>
        <pt x="-613" y="64" on="0"/>
        <pt x="-627" y="70" on="1"/>
        <pt x="-984" y="257" on="1"/>
        <pt x="-999" y="264" on="0"/>
        <pt x="-1017" y="294" on="0"/>
        <pt x="-1017" y="311" on="1"/>
        <pt x="-1017" y="326" on="0"/>
        <pt x="-999" y="356" on="0"/>
        <pt x="-984" y="364" on="1"/>
        <pt x="-628" y="547" on="1"/>
        <pt x="-613" y="554" on="0"/>
        <pt x="-600" y="554" on="1"/>
        <pt x="-584" y="554" on="0"/>
        <pt x="-568" y="544" on="1"/>
        <pt x="-541" y="526" on="0"/>
        <pt x="-541" y="495" on="1"/>
        <pt x="-541" y="479" on="0"/>
        <pt x="-560" y="448" on="0"/>
        <pt x="-575" y="440" on="1"/>
        <pt x="-820" y="310" on="1"/>
        <pt x="-574" y="178" on="1"/>
        <pt x="-559" y="170" on="0"/>
        <pt x="-540" y="139" on="0"/>
        <pt x="-540" y="123" on="1"/>
        <pt x="-540" y="112" on="0"/>
        <pt x="-545" y="100" on="1"/>
        <pt x="-553" y="83" on="0"/>
        <pt x="-584" y="64" on="0"/>
      </contour>
    </TTGlyph>
    <TTGlyph name="less_slash" xMin="-487" yMin="-165" xMax="527" yMax="865">
      <contour>
        <pt x="97" y="103" on="1"/>
        <pt x="412" y="830" on="1"/>
        <pt x="431" y="865" on="0"/>
        <pt x="466" y="865" on="1"/>
        <pt x="479" y="865" on="0"/>
        <pt x="492" y="859" on="1"/>
        <pt x="527" y="840" on="0"/>
        <pt x="527" y="805" on="1"/>
        <pt x="527" y="793" on="0"/>
        <pt x="522" y="781" on="1"/>
        <pt x="127" y="-130" on="1"/>
        <pt x="108" y="-165" on="0"/>
        <pt x="73" y="-165" on="1"/>
        <pt x="61" y="-165" on="0"/>
        <pt x="48" y="-159" on="1"/>
        <pt x="12" y="-140" on="0"/>
        <pt x="12" y="-105" on="1"/>
        <pt x="12" y="-93" on="0"/>
        <pt x="17" y="-81" on="1"/>
        <pt x="49" y="-7" on="1"/>
        <pt x="-454" y="257" on="1"/>
        <pt x="-487" y="277" on="0"/>
        <pt x="-487" y="310" on="1"/>
        <pt x="-487" y="311" on="1"/>
        <pt x="-487" y="343" on="0"/>
        <pt x="-454" y="364" on="1"/>
        <pt x="-98" y="547" on="1"/>
        <pt x="-85" y="554" on="0"/>
        <pt x="-70" y="554" on="1"/>
        <pt x="-36" y="554" on="0"/>
        <pt x="-17" y="519" on="1"/>
        <pt x="-11" y="506" on="0"/>
        <pt x="-11" y="495" on="1"/>
        <pt x="-11" y="461" on="0"/>
        <pt x="-45" y="440" on="1"/>
        <pt x="-289" y="311" on="1"/>
        <pt x="-290" y="310" on="0"/>
        <pt x="-290" y="310" on="1"/>
        <pt x="-290" y="310" on="0"/>
        <pt x="-288" y="309" on="1"/>
      </contour>
    </TTGlyph>
    <TTGlyph name="less_slash_uni003E" xMin="-1067" yMin="-165" xMax="467" yMax="865">
      <contour>
        <pt x="-108" y="644" on="1"/>
        <pt x="434" y="364" on="1"/>
        <pt x="467" y="344" on="0"/>
        <pt x="467" y="311" on="1"/>
        <pt x="467" y="310" on="1"/>
        <pt x="467" y="278" on="0"/>
        <pt x="434" y="257" on="1"/>
        <pt x="78" y="74" on="1"/>
        <pt x="65" y="67" on="0"/>
        <pt x="50" y="67" on="1"/>
        <pt x="16" y="67" on="0"/>
        <pt x="-3" y="102" on="1"/>
        <pt x="-9" y="113" on="0"/>
        <pt x="-9" y="126" on="1"/>
        <pt x="-9" y="159" on="0"/>
        <pt x="24" y="181" on="1"/>
        <pt x="269" y="310" on="1"/>
        <pt x="270" y="311" on="0"/>
        <pt x="270" y="310" on="1"/>
        <pt x="270" y="311" on="0"/>
        <pt x="268" y="312" on="1"/>
        <pt x="-155" y="535" on="1"/>
        <pt x="-443" y="-130" on="1"/>
        <pt x="-462" y="-165" on="0"/>
        <pt x="-497" y="-165" on="1"/>
        <pt x="-509" y="-165" on="0"/>
        <pt x="-522" y="-159" on="1"/>
        <pt x="-558" y="-140" on="0"/>
        <pt x="-558" y="-105" on="1"/>
        <pt x="-558" y="-93" on="0"/>
        <pt x="-553" y="-81" on="1"/>
        <pt x="-523" y="-13" on="1"/>
        <pt x="-1034" y="257" on="1"/>
        <pt x="-1067" y="277" on="0"/>
        <pt x="-1067" y="310" on="1"/>
        <pt x="-1067" y="311" on="1"/>
        <pt x="-1067" y="343" on="0"/>
        <pt x="-1034" y="364" on="1"/>
        <pt x="-678" y="547" on="1"/>
        <pt x="-665" y="554" on="0"/>
        <pt x="-650" y="554" on="1"/>
        <pt x="-616" y="554" on="0"/>
        <pt x="-597" y="519" on="1"/>
        <pt x="-591" y="506" on="0"/>
        <pt x="-591" y="495" on="1"/>
        <pt x="-591" y="461" on="0"/>
        <pt x="-625" y="440" on="1"/>
        <pt x="-869" y="311" on="1"/>
        <pt x="-870" y="310" on="0"/>
        <pt x="-870" y="310" on="1"/>
        <pt x="-870" y="310" on="0"/>
        <pt x="-868" y="309" on="1"/>
        <pt x="-475" y="98" on="1"/>
        <pt x="-158" y="830" on="1"/>
        <pt x="-139" y="865" on="0"/>
        <pt x="-104" y="865" on="1"/>
        <pt x="-91" y="865" on="0"/>
        <pt x="-78" y="859" on="1"/>
        <pt x="-43" y="840" on="0"/>
        <pt x="-43" y="805" on="1"/>
        <pt x="-43" y="793" on="0"/>
        <pt x="-48" y="781" on="1"/>
      </contour>
    </TTGlyph>
    <TTGlyph name="less_uni003E" xMin="-497" yMin="20" xMax="500" yMax="597">
      <contour>
        <pt x="0" y="20" on="1"/>
        <pt x="-20" y="20" on="0"/>
        <pt x="-34" y="31" on="1"/>
        <pt x="-464" y="257" on="1"/>
        <pt x="-497" y="277" on="0"/>
        <pt x="-497" y="311" on="1"/>
        <pt x="-497" y="343" on="0"/>
        <pt x="-464" y="364" on="1"/>
        <pt x="-33" y="586" on="1"/>
        <pt x="-19" y="597" on="0"/>
        <pt x="0" y="597" on="1"/>
        <pt x="3" y="597" on="1"/>
        <pt x="22" y="597" on="0"/>
        <pt x="36" y="586" on="1"/>
        <pt x="467" y="364" on="1"/>
        <pt x="500" y="343" on="0"/>
        <pt x="500" y="311" on="1"/>
        <pt x="500" y="277" on="0"/>
        <pt x="467" y="257" on="1"/>
        <pt x="37" y="31" on="1"/>
        <pt x="23" y="20" on="0"/>
        <pt x="3" y="20" on="1"/>
      </contour>
      <contour>
        <pt x="2" y="149" on="1"/>
        <pt x="301" y="309" on="1"/>
        <pt x="303" y="310" on="0"/>
        <pt x="303" y="310" on="1"/>
        <pt x="303" y="310" on="0"/>
        <pt x="302" y="311" on="1"/>
        <pt x="2" y="469" on="1"/>
        <pt x="-299" y="311" on="1"/>
        <pt x="-300" y="310" on="0"/>
        <pt x="-300" y="310" on="1"/>
        <pt x="-300" y="310" on="0"/>
        <pt x="-298" y="309" on="1"/>
      </contour>
    </TTGlyph>
    <TTGlyph name="m" xMin="55" yMin="-20" xMax="534" yMax="570">
      <contour>
        <pt x="474" y="-20" on="1"/>
        <pt x="450" y="-20" on="0"/>
        <pt x="414" y="18" on="0"/>
        <pt x="414" y="40" on="1"/>
        <pt x="414" y="411" on="1"/>
        <pt x="414" y="451" on="0"/>
        <pt x="383" y="451" on="1"/>
        <pt x="371" y="451" on="0"/>
        <pt x="354" y="429" on="0"/>
        <pt x="354" y="412" on="1"/>
        <pt x="354" y="40" on="1"/>
        <pt x="354" y="17" on="0"/>
        <pt x="317" y="-20" on="0"/>
        <pt x="294" y="-20" on="1"/>
        <pt x="271" y="-20" on="0"/>
        <pt x="235" y="17" on="0"/>
        <pt x="235" y="40" on="1"/>
        <pt x="235" y="414" on="1"/>
        <pt x="235" y="437" on="0"/>
        <pt x="220" y="452" on="0"/>
        <pt x="205" y="452" on="1"/>
        <pt x="177" y="452" on="0"/>
        <pt x="175" y="405" on="1"/>
        <pt x="175" y="40" on="1"/>
        <pt x="175" y="17" on="0"/>
        <pt x="138" y="-20" on="0"/>
        <pt x="115" y="-20" on="1"/>
        <pt x="92" y="-20" on="0"/>
        <pt x="55" y="17" on="0"/>
        <pt x="55" y="40" on="1"/>
        <pt x="55" y="513" on="1"/>
        <pt x="55" y="535" on="0"/>
        <pt x="90" y="570" on="0"/>
        <pt x="112" y="570" on="1"/>
        <pt x="136" y="570" on="0"/>
        <pt x="164" y="536" on="0"/>
        <pt x="167" y="514" on="1"/>
        <pt x="168" y="499" on="1"/>
        <pt x="167" y="501" on="0"/>
        <pt x="160" y="507" on="0"/>
        <pt x="158" y="507" on="1"/>
        <pt x="157" y="507" on="0"/>
        <pt x="150" y="504" on="0"/>
        <pt x="149" y="502" on="1"/>
        <pt x="175" y="570" on="0"/>
        <pt x="243" y="570" on="1"/>
        <pt x="273" y="570" on="0"/>
        <pt x="326" y="535" on="0"/>
        <pt x="334" y="496" on="1"/>
        <pt x="333" y="498" on="0"/>
        <pt x="326" y="503" on="0"/>
        <pt x="324" y="503" on="1"/>
        <pt x="319" y="503" on="0"/>
        <pt x="316" y="500" on="1"/>
        <pt x="314" y="497" on="1"/>
        <pt x="323" y="534" on="0"/>
        <pt x="378" y="570" on="0"/>
        <pt x="417" y="570" on="1"/>
        <pt x="467" y="570" on="0"/>
        <pt x="503" y="531" on="1"/>
        <pt x="534" y="490" on="0"/>
        <pt x="534" y="424" on="1"/>
        <pt x="534" y="40" on="1"/>
        <pt x="534" y="17" on="0"/>
        <pt x="497" y="-20" on="0"/>
      </contour>
    </TTGlyph>
    <TTGlyph name="n" xMin="70" yMin="-20" xMax="535" yMax="570">
      <contour>
        <pt x="535" y="41" on="1"/>
        <pt x="535" y="14" on="0"/>
        <pt x="505" y="-20" on="0"/>
        <pt x="477" y="-20" on="1"/>
        <pt x="451" y="-20" on="0"/>
        <pt x="417" y="14" on="0"/>
        <pt x="417" y="41" on="1"/>
        <pt x="417" y="336" on="1"/>
        <pt x="415" y="443" on="0"/>
        <pt x="325" y="443" on="1"/>
        <pt x="283" y="442" on="0"/>
        <pt x="240" y="405" on="1"/>
        <pt x="188" y="359" on="0"/>
        <pt x="188" y="315" on="1"/>
        <pt x="188" y="41" on="1"/>
        <pt x="188" y="14" on="0"/>
        <pt x="158" y="-20" on="0"/>
        <pt x="130" y="-20" on="1"/>
        <pt x="104" y="-20" on="0"/>
        <pt x="70" y="14" on="0"/>
        <pt x="70" y="41" on="1"/>
        <pt x="70" y="508" on="1"/>
        <pt x="70" y="534" on="0"/>
        <pt x="106" y="570" on="0"/>
        <pt x="130" y="570" on="1"/>
        <pt x="154" y="570" on="0"/>
        <pt x="190" y="534" on="0"/>
        <pt x="190" y="508" on="1"/>
        <pt x="190" y="492" on="1"/>
        <pt x="190" y="492" on="0"/>
        <pt x="185" y="492" on="1"/>
        <pt x="184" y="492" on="0"/>
        <pt x="186" y="494" on="1"/>
        <pt x="258" y="569" on="0"/>
        <pt x="338" y="570" on="1"/>
        <pt x="433" y="570" on="0"/>
        <pt x="482" y="515" on="1"/>
        <pt x="535" y="459" on="0"/>
        <pt x="535" y="342" on="1"/>
      </contour>
    </TTGlyph>
    <TTGlyph name="nine" xMin="60" yMin="-20" xMax="540" yMax="770">
      <contour>
        <pt x="178" y="-20" on="1"/>
        <pt x="158" y="-20" on="1"/>
        <pt x="135" y="-20" on="0"/>
        <pt x="100" y="16" on="0"/>
        <pt x="100" y="38" on="1"/>
        <pt x="100" y="61" on="0"/>
        <pt x="134" y="94" on="0"/>
        <pt x="157" y="96" on="1"/>
        <pt x="249" y="102" on="1"/>
        <pt x="272" y="105" on="0"/>
        <pt x="294" y="115" on="1"/>
        <pt x="366" y="146" on="0"/>
        <pt x="399" y="221" on="1"/>
        <pt x="415" y="253" on="0"/>
        <pt x="419" y="301" on="1"/>
        <pt x="419" y="303" on="1"/>
        <pt x="419" y="302" on="1"/>
        <pt x="417" y="302" on="1"/>
        <pt x="418" y="302" on="1"/>
        <pt x="355" y="269" on="0"/>
        <pt x="279" y="269" on="1"/>
        <pt x="177" y="269" on="0"/>
        <pt x="60" y="397" on="0"/>
        <pt x="60" y="511" on="1"/>
        <pt x="60" y="580" on="0"/>
        <pt x="119" y="698" on="0"/>
        <pt x="230" y="770" on="0"/>
        <pt x="308" y="770" on="1"/>
        <pt x="536" y="770" on="0"/>
        <pt x="540" y="422" on="1"/>
        <pt x="540" y="-19" on="0"/>
      </contour>
      <contour>
        <pt x="297" y="384" on="1"/>
        <pt x="324" y="384" on="0"/>
        <pt x="387" y="409" on="0"/>
        <pt x="412" y="434" on="1"/>
        <pt x="421" y="441" on="0"/>
        <pt x="421" y="453" on="1"/>
        <pt x="421" y="455" on="1"/>
        <pt x="418" y="552" on="0"/>
        <pt x="385" y="603" on="1"/>
        <pt x="360" y="650" on="0"/>
        <pt x="301" y="650" on="1"/>
        <pt x="238" y="650" on="0"/>
        <pt x="178" y="574" on="0"/>
        <pt x="178" y="517" on="1"/>
        <pt x="178" y="448" on="0"/>
        <pt x="232" y="384" on="0"/>
      </contour>
    </TTGlyph>
    <TTGlyph name="numbersign" xMin="-15" yMin="-20" xMax="615" yMax="770">
      <contour>
        <pt x="245" y="345" on="1"/>
        <pt x="125" y="345" on="1"/>
        <pt x="125" y="710" on="1"/>
        <pt x="125" y="733" on="0"/>
        <pt x="162" y="770" on="0"/>
        <pt x="185" y="770" on="1"/>
        <pt x="208" y="770" on="0"/>
        <pt x="245" y="733" on="0"/>
        <pt x="245" y="710" on="1"/>
      </contour>
      <contour>
        <pt x="185" y="-20" on="1"/>
        <pt x="162" y="-20" on="0"/>
        <pt x="125" y="16" on="0"/>
        <pt x="125" y="40" on="1"/>
        <pt x="125" y="165" on="1"/>
        <pt x="245" y="165" on="1"/>
        <pt x="245" y="40" on="1"/>
        <pt x="245" y="16" on="0"/>
        <pt x="208" y="-20" on="0"/>
      </contour>
      <contour>
        <pt x="475" y="595" on="1"/>
        <pt x="355" y="595" on="1"/>
        <pt x="355" y="710" on="1"/>
        <pt x="355" y="733" on="0"/>
        <pt x="392" y="770" on="0"/>
        <pt x="415" y="770" on="1"/>
        <pt x="438" y="770" on="0"/>
        <pt x="475" y="733" on="0"/>
        <pt x="475" y="710" on="1"/>
      </contour>
      <contour>
        <pt x="415" y="-20" on="1"/>
        <pt x="392" y="-20" on="0"/>
        <pt x="355" y="16" on="0"/>
        <pt x="355" y="40" on="1"/>
        <pt x="355" y="415" on="1"/>
        <pt x="475" y="415" on="1"/>
        <pt x="475" y="40" on="1"/>
        <pt x="475" y="16" on="0"/>
        <pt x="438" y="-20" on="0"/>
      </contour>
      <contour>
        <pt x="105" y="445" on="1"/>
        <pt x="45" y="445" on="1"/>
        <pt x="22" y="445" on="0"/>
        <pt x="-15" y="481" on="0"/>
        <pt x="-15" y="505" on="1"/>
        <pt x="-15" y="528" on="0"/>
        <pt x="22" y="565" on="0"/>
        <pt x="45" y="565" on="1"/>
        <pt x="105" y="565" on="1"/>
      </contour>
      <contour>
        <pt x="555" y="445" on="1"/>
        <pt x="265" y="445" on="1"/>
        <pt x="265" y="565" on="1"/>
        <pt x="555" y="565" on="1"/>
        <pt x="578" y="565" on="0"/>
        <pt x="615" y="528" on="0"/>
        <pt x="615" y="505" on="1"/>
        <pt x="615" y="481" on="0"/>
        <pt x="578" y="445" on="0"/>
      </contour>
      <contour>
        <pt x="335" y="195" on="1"/>
        <pt x="45" y="195" on="1"/>
        <pt x="22" y="195" on="0"/>
        <pt x="-15" y="231" on="0"/>
        <pt x="-15" y="255" on="1"/>
        <pt x="-15" y="278" on="0"/>
        <pt x="22" y="315" on="0"/>
        <pt x="45" y="315" on="1"/>
        <pt x="335" y="315" on="1"/>
      </contour>
      <contour>
        <pt x="555" y="195" on="1"/>
        <pt x="495" y="195" on="1"/>
        <pt x="495" y="315" on="1"/>
        <pt x="555" y="315" on="1"/>
        <pt x="578" y="315" on="0"/>
        <pt x="615" y="278" on="0"/>
        <pt x="615" y="255" on="1"/>
        <pt x="615" y="231" on="0"/>
        <pt x="578" y="195" on="0"/>
      </contour>
    </TTGlyph>
    <TTGlyph name="numbersign_expand" xMin="-15" yMin="-20" xMax="935" yMax="770">
      <contour>
        <pt x="705" y="445" on="1"/>
        <pt x="265" y="445" on="1"/>
        <pt x="265" y="565" on="1"/>
        <pt x="705" y="565" on="1"/>
      </contour>
      <contour>
        <pt x="935" y="195" on="1"/>
        <pt x="495" y="195" on="1"/>
        <pt x="495" y="315" on="1"/>
        <pt x="935" y="315" on="1"/>
      </contour>
      <contour>
        <pt x="245" y="345" on="1"/>
        <pt x="125" y="345" on="1"/>
        <pt x="125" y="710" on="1"/>
        <pt x="125" y="734" on="0"/>
        <pt x="160" y="770" on="0"/>
        <pt x="185" y="770" on="1"/>
        <pt x="210" y="770" on="0"/>
        <pt x="245" y="734" on="0"/>
        <pt x="245" y="710" on="1"/>
      </contour>
      <contour>
        <pt x="185" y="-20" on="1"/>
        <pt x="160" y="-20" on="0"/>
        <pt x="125" y="15" on="0"/>
        <pt x="125" y="40" on="1"/>
        <pt x="125" y="165" on="1"/>
        <pt x="245" y="165" on="1"/>
        <pt x="245" y="40" on="1"/>
        <pt x="245" y="15" on="0"/>
        <pt x="210" y="-20" on="0"/>
      </contour>
      <contour>
        <pt x="475" y="595" on="1"/>
        <pt x="355" y="595" on="1"/>
        <pt x="355" y="710" on="1"/>
        <pt x="355" y="734" on="0"/>
        <pt x="390" y="770" on="0"/>
        <pt x="415" y="770" on="1"/>
        <pt x="440" y="770" on="0"/>
        <pt x="475" y="734" on="0"/>
        <pt x="475" y="710" on="1"/>
      </contour>
      <contour>
        <pt x="415" y="-20" on="1"/>
        <pt x="390" y="-20" on="0"/>
        <pt x="355" y="15" on="0"/>
        <pt x="355" y="40" on="1"/>
        <pt x="355" y="415" on="1"/>
        <pt x="475" y="415" on="1"/>
        <pt x="475" y="40" on="1"/>
        <pt x="475" y="15" on="0"/>
        <pt x="440" y="-20" on="0"/>
      </contour>
      <contour>
        <pt x="105" y="445" on="1"/>
        <pt x="45" y="445" on="1"/>
        <pt x="20" y="445" on="0"/>
        <pt x="-15" y="480" on="0"/>
        <pt x="-15" y="505" on="1"/>
        <pt x="-15" y="529" on="0"/>
        <pt x="20" y="565" on="0"/>
        <pt x="45" y="565" on="1"/>
        <pt x="105" y="565" on="1"/>
      </contour>
      <contour>
        <pt x="335" y="195" on="1"/>
        <pt x="45" y="195" on="1"/>
        <pt x="20" y="195" on="0"/>
        <pt x="-15" y="230" on="0"/>
        <pt x="-15" y="255" on="1"/>
        <pt x="-15" y="279" on="0"/>
        <pt x="20" y="315" on="0"/>
        <pt x="45" y="315" on="1"/>
        <pt x="335" y="315" on="1"/>
      </contour>
    </TTGlyph>
    <TTGlyph name="o" xMin="57" yMin="-20" xMax="543" yMax="570">
      <contour>
        <pt x="300" y="-20" on="1"/>
        <pt x="234" y="-20" on="0"/>
        <pt x="121" y="51" on="0"/>
        <pt x="57" y="183" on="0"/>
        <pt x="57" y="276" on="1"/>
        <pt x="57" y="367" on="0"/>
        <pt x="121" y="499" on="0"/>
        <pt x="234" y="570" on="0"/>
        <pt x="300" y="570" on="1"/>
        <pt x="367" y="570" on="0"/>
        <pt x="479" y="499" on="0"/>
        <pt x="543" y="367" on="0"/>
        <pt x="543" y="276" on="1"/>
        <pt x="543" y="183" on="0"/>
        <pt x="479" y="51" on="0"/>
        <pt x="367" y="-20" on="0"/>
      </contour>
      <contour>
        <pt x="300" y="98" on="1"/>
        <pt x="354" y="98" on="0"/>
        <pt x="420" y="188" on="0"/>
        <pt x="420" y="274" on="1"/>
        <pt x="420" y="359" on="0"/>
        <pt x="353" y="452" on="0"/>
        <pt x="300" y="452" on="1"/>
        <pt x="247" y="452" on="0"/>
        <pt x="180" y="359" on="0"/>
        <pt x="180" y="274" on="1"/>
        <pt x="180" y="189" on="0"/>
        <pt x="247" y="98" on="0"/>
      </contour>
    </TTGlyph>
    <TTGlyph name="one" xMin="63" yMin="-15" xMax="535" yMax="770">
      <contour>
        <pt x="475" y="-15" on="1"/>
        <pt x="125" y="-15" on="1"/>
        <pt x="101" y="-15" on="0"/>
        <pt x="65" y="23" on="0"/>
        <pt x="65" y="45" on="1"/>
        <pt x="65" y="68" on="0"/>
        <pt x="102" y="105" on="0"/>
        <pt x="125" y="105" on="1"/>
        <pt x="231" y="105" on="1"/>
        <pt x="240" y="105" on="0"/>
        <pt x="240" y="112" on="1"/>
        <pt x="240" y="602" on="1"/>
        <pt x="239" y="602" on="1"/>
        <pt x="163" y="523" on="1"/>
        <pt x="143" y="508" on="0"/>
        <pt x="123" y="508" on="1"/>
        <pt x="111" y="508" on="0"/>
        <pt x="86" y="519" on="0"/>
        <pt x="78" y="529" on="1"/>
        <pt x="63" y="549" on="0"/>
        <pt x="63" y="568" on="1"/>
        <pt x="63" y="580" on="0"/>
        <pt x="74" y="605" on="0"/>
        <pt x="83" y="613" on="1"/>
        <pt x="226" y="750" on="1"/>
        <pt x="253" y="770" on="0"/>
        <pt x="280" y="770" on="1"/>
        <pt x="312" y="770" on="0"/>
        <pt x="360" y="722" on="0"/>
        <pt x="360" y="690" on="1"/>
        <pt x="360" y="109" on="0"/>
        <pt x="363" y="105" on="0"/>
        <pt x="368" y="105" on="1"/>
        <pt x="475" y="105" on="1"/>
        <pt x="498" y="105" on="0"/>
        <pt x="535" y="68" on="0"/>
        <pt x="535" y="45" on="1"/>
        <pt x="535" y="23" on="0"/>
        <pt x="499" y="-15" on="0"/>
      </contour>
    </TTGlyph>
    <TTGlyph name="p" xMin="75" yMin="-265" xMax="539" yMax="570">
      <contour>
        <pt x="310" y="450" on="1"/>
        <pt x="304" y="450" on="1"/>
        <pt x="266" y="450" on="0"/>
        <pt x="195" y="387" on="0"/>
        <pt x="195" y="332" on="1"/>
        <pt x="195" y="232" on="1"/>
        <pt x="195" y="190" on="0"/>
        <pt x="231" y="150" on="1"/>
        <pt x="264" y="116" on="0"/>
        <pt x="312" y="116" on="1"/>
        <pt x="358" y="116" on="0"/>
        <pt x="419" y="198" on="0"/>
        <pt x="419" y="284" on="1"/>
        <pt x="416" y="447" on="0"/>
      </contour>
      <contour>
        <pt x="327" y="570" on="1"/>
        <pt x="434" y="570" on="0"/>
        <pt x="538" y="413" on="0"/>
        <pt x="539" y="268" on="1"/>
        <pt x="539" y="140" on="0"/>
        <pt x="420" y="-20" on="0"/>
        <pt x="326" y="-20" on="1"/>
        <pt x="255" y="-20" on="0"/>
        <pt x="208" y="18" on="1"/>
        <pt x="201" y="24" on="0"/>
        <pt x="197" y="24" on="1"/>
        <pt x="195" y="24" on="0"/>
        <pt x="195" y="23" on="0"/>
        <pt x="195" y="18" on="1"/>
        <pt x="195" y="-203" on="1"/>
        <pt x="195" y="-230" on="0"/>
        <pt x="159" y="-265" on="0"/>
        <pt x="136" y="-265" on="1"/>
        <pt x="113" y="-265" on="0"/>
        <pt x="75" y="-230" on="0"/>
        <pt x="75" y="-203" on="1"/>
        <pt x="75" y="509" on="1"/>
        <pt x="75" y="536" on="0"/>
        <pt x="108" y="570" on="0"/>
        <pt x="134" y="570" on="1"/>
        <pt x="184" y="570" on="0"/>
        <pt x="192" y="522" on="1"/>
        <pt x="193" y="515" on="0"/>
        <pt x="190" y="515" on="1"/>
        <pt x="190" y="515" on="0"/>
        <pt x="192" y="517" on="1"/>
        <pt x="243" y="570" on="0"/>
      </contour>
    </TTGlyph>
    <TTGlyph name="parenleft" xMin="107" yMin="-202" xMax="492" yMax="902">
      <contour>
        <pt x="223" y="318" on="1"/>
        <pt x="225" y="162" on="0"/>
        <pt x="315" y="44" on="1"/>
        <pt x="379" y="-41" on="0"/>
        <pt x="468" y="-102" on="1"/>
        <pt x="492" y="-119" on="0"/>
        <pt x="492" y="-148" on="1"/>
        <pt x="492" y="-166" on="0"/>
        <pt x="484" y="-177" on="1"/>
        <pt x="467" y="-202" on="0"/>
        <pt x="437" y="-202" on="1"/>
        <pt x="422" y="-202" on="0"/>
        <pt x="412" y="-196" on="1"/>
        <pt x="290" y="-123" on="0"/>
        <pt x="211" y="-13" on="1"/>
        <pt x="107" y="137" on="0"/>
        <pt x="107" y="329" on="1"/>
        <pt x="107" y="353" on="1"/>
        <pt x="107" y="563" on="0"/>
        <pt x="211" y="713" on="1"/>
        <pt x="290" y="823" on="0"/>
        <pt x="412" y="896" on="1"/>
        <pt x="422" y="902" on="0"/>
        <pt x="437" y="902" on="1"/>
        <pt x="468" y="902" on="0"/>
        <pt x="485" y="877" on="1"/>
        <pt x="492" y="865" on="0"/>
        <pt x="492" y="848" on="1"/>
        <pt x="492" y="819" on="0"/>
        <pt x="468" y="802" on="1"/>
        <pt x="379" y="741" on="0"/>
        <pt x="317" y="656" on="1"/>
        <pt x="225" y="528" on="0"/>
        <pt x="223" y="364" on="1"/>
      </contour>
    </TTGlyph>
    <TTGlyph name="parenright" xMin="107" yMin="-202" xMax="492" yMax="902">
      <contour>
        <pt x="376" y="318" on="1"/>
        <pt x="376" y="364" on="1"/>
        <pt x="374" y="528" on="0"/>
        <pt x="282" y="656" on="1"/>
        <pt x="220" y="741" on="0"/>
        <pt x="131" y="802" on="1"/>
        <pt x="107" y="819" on="0"/>
        <pt x="107" y="848" on="1"/>
        <pt x="107" y="865" on="0"/>
        <pt x="114" y="877" on="1"/>
        <pt x="131" y="902" on="0"/>
        <pt x="162" y="902" on="1"/>
        <pt x="177" y="902" on="0"/>
        <pt x="187" y="896" on="1"/>
        <pt x="309" y="823" on="0"/>
        <pt x="388" y="713" on="1"/>
        <pt x="492" y="563" on="0"/>
        <pt x="492" y="353" on="1"/>
        <pt x="492" y="329" on="1"/>
        <pt x="492" y="137" on="0"/>
        <pt x="388" y="-13" on="1"/>
        <pt x="309" y="-123" on="0"/>
        <pt x="187" y="-196" on="1"/>
        <pt x="177" y="-202" on="0"/>
        <pt x="162" y="-202" on="1"/>
        <pt x="132" y="-202" on="0"/>
        <pt x="115" y="-177" on="1"/>
        <pt x="107" y="-166" on="0"/>
        <pt x="107" y="-148" on="1"/>
        <pt x="107" y="-119" on="0"/>
        <pt x="131" y="-102" on="1"/>
        <pt x="220" y="-41" on="0"/>
        <pt x="284" y="44" on="1"/>
        <pt x="374" y="162" on="0"/>
      </contour>
    </TTGlyph>
    <TTGlyph name="percent" xMin="-6" yMin="-20" xMax="606" yMax="770">
      <contour>
        <pt x="445" y="-20" on="1"/>
        <pt x="379" y="-20" on="0"/>
        <pt x="283" y="83" on="0"/>
        <pt x="283" y="169" on="1"/>
        <pt x="284" y="261" on="0"/>
        <pt x="369" y="362" on="0"/>
        <pt x="445" y="362" on="1"/>
        <pt x="518" y="362" on="0"/>
        <pt x="606" y="260" on="0"/>
        <pt x="606" y="174" on="1"/>
        <pt x="606" y="88" on="0"/>
        <pt x="518" y="-20" on="0"/>
      </contour>
      <contour>
        <pt x="445" y="83" on="1"/>
        <pt x="493" y="83" on="0"/>
        <pt x="493" y="165" on="1"/>
        <pt x="492" y="253" on="0"/>
        <pt x="445" y="253" on="1"/>
        <pt x="398" y="253" on="0"/>
        <pt x="398" y="170" on="1"/>
        <pt x="398" y="83" on="0"/>
      </contour>
      <contour>
        <pt x="155" y="388" on="1"/>
        <pt x="121" y="388" on="0"/>
        <pt x="70" y="412" on="0"/>
        <pt x="37" y="441" on="0"/>
        <pt x="37" y="444" on="1"/>
        <pt x="-6" y="494" on="0"/>
        <pt x="-6" y="581" on="1"/>
        <pt x="-6" y="669" on="0"/>
        <pt x="86" y="770" on="0"/>
        <pt x="155" y="770" on="1"/>
        <pt x="225" y="770" on="0"/>
        <pt x="318" y="670" on="0"/>
        <pt x="318" y="581" on="1"/>
        <pt x="318" y="494" on="0"/>
        <pt x="274" y="442" on="1"/>
        <pt x="254" y="416" on="0"/>
        <pt x="205" y="389" on="0"/>
      </contour>
      <contour>
        <pt x="155" y="494" on="1"/>
        <pt x="204" y="494" on="0"/>
        <pt x="204" y="575" on="1"/>
        <pt x="203" y="665" on="0"/>
        <pt x="155" y="665" on="1"/>
        <pt x="109" y="665" on="0"/>
        <pt x="109" y="581" on="1"/>
        <pt x="109" y="494" on="0"/>
      </contour>
      <contour>
        <pt x="61" y="64" on="1"/>
        <pt x="24" y="64" on="0"/>
        <pt x="7" y="90" on="1"/>
        <pt x="-6" y="110" on="0"/>
        <pt x="-6" y="128" on="1"/>
        <pt x="-6" y="157" on="0"/>
        <pt x="12" y="173" on="1"/>
        <pt x="186" y="335" on="1"/>
        <pt x="201" y="348" on="0"/>
        <pt x="223" y="348" on="1"/>
        <pt x="246" y="347" on="0"/>
        <pt x="278" y="315" on="0"/>
        <pt x="278" y="294" on="1"/>
        <pt x="278" y="273" on="0"/>
        <pt x="265" y="260" on="1"/>
        <pt x="109" y="84" on="1"/>
        <pt x="90" y="64" on="0"/>
      </contour>
      <contour>
        <pt x="536" y="685" on="1"/>
        <pt x="566" y="685" on="0"/>
        <pt x="588" y="662" on="1"/>
        <pt x="603" y="647" on="0"/>
        <pt x="603" y="621" on="1"/>
        <pt x="603" y="595" on="0"/>
        <pt x="586" y="577" on="1"/>
        <pt x="411" y="414" on="1"/>
        <pt x="398" y="402" on="0"/>
        <pt x="374" y="402" on="1"/>
        <pt x="351" y="403" on="0"/>
        <pt x="319" y="434" on="0"/>
        <pt x="319" y="456" on="1"/>
        <pt x="319" y="474" on="0"/>
        <pt x="332" y="489" on="1"/>
        <pt x="488" y="665" on="1"/>
        <pt x="507" y="685" on="0"/>
      </contour>
    </TTGlyph>
    <TTGlyph name="period" xMin="204" yMin="-15" xMax="397" yMax="182">
      <contour>
        <pt x="302" y="-15" on="1"/>
        <pt x="261" y="-15" on="0"/>
        <pt x="204" y="43" on="0"/>
        <pt x="204" y="83" on="1"/>
        <pt x="204" y="124" on="0"/>
        <pt x="261" y="182" on="0"/>
        <pt x="302" y="182" on="1"/>
        <pt x="341" y="182" on="0"/>
        <pt x="397" y="124" on="0"/>
        <pt x="397" y="83" on="1"/>
        <pt x="397" y="43" on="0"/>
        <pt x="341" y="-15" on="0"/>
      </contour>
    </TTGlyph>
    <TTGlyph name="plus" xMin="45" yMin="55" xMax="555" yMax="565">
      <contour>
        <pt x="240" y="370" on="1"/>
        <pt x="240" y="505" on="1"/>
        <pt x="240" y="529" on="0"/>
        <pt x="275" y="565" on="0"/>
        <pt x="300" y="565" on="1"/>
        <pt x="324" y="565" on="0"/>
        <pt x="360" y="529" on="0"/>
        <pt x="360" y="505" on="1"/>
        <pt x="360" y="370" on="1"/>
        <pt x="495" y="370" on="1"/>
        <pt x="519" y="370" on="0"/>
        <pt x="555" y="335" on="0"/>
        <pt x="555" y="310" on="1"/>
        <pt x="555" y="285" on="0"/>
        <pt x="519" y="250" on="0"/>
        <pt x="495" y="250" on="1"/>
        <pt x="360" y="250" on="1"/>
        <pt x="360" y="115" on="1"/>
        <pt x="360" y="90" on="0"/>
        <pt x="324" y="55" on="0"/>
        <pt x="300" y="55" on="1"/>
        <pt x="275" y="55" on="0"/>
        <pt x="240" y="90" on="0"/>
        <pt x="240" y="115" on="1"/>
        <pt x="240" y="250" on="1"/>
        <pt x="105" y="250" on="1"/>
        <pt x="80" y="250" on="0"/>
        <pt x="45" y="285" on="0"/>
        <pt x="45" y="310" on="1"/>
        <pt x="45" y="335" on="0"/>
        <pt x="80" y="370" on="0"/>
        <pt x="105" y="370" on="1"/>
      </contour>
    </TTGlyph>
    <TTGlyph name="plus_plus" xMin="-505" yMin="55" xMax="505" yMax="565">
      <contour>
        <pt x="190" y="370" on="1"/>
        <pt x="190" y="505" on="1"/>
        <pt x="190" y="529" on="0"/>
        <pt x="225" y="565" on="0"/>
        <pt x="250" y="565" on="1"/>
        <pt x="274" y="565" on="0"/>
        <pt x="310" y="529" on="0"/>
        <pt x="310" y="505" on="1"/>
        <pt x="310" y="370" on="1"/>
        <pt x="445" y="370" on="1"/>
        <pt x="469" y="370" on="0"/>
        <pt x="505" y="335" on="0"/>
        <pt x="505" y="310" on="1"/>
        <pt x="505" y="285" on="0"/>
        <pt x="469" y="250" on="0"/>
        <pt x="445" y="250" on="1"/>
        <pt x="310" y="250" on="1"/>
        <pt x="310" y="115" on="1"/>
        <pt x="310" y="90" on="0"/>
        <pt x="274" y="55" on="0"/>
        <pt x="250" y="55" on="1"/>
        <pt x="225" y="55" on="0"/>
        <pt x="190" y="90" on="0"/>
        <pt x="190" y="115" on="1"/>
        <pt x="190" y="250" on="1"/>
        <pt x="-190" y="250" on="1"/>
        <pt x="-190" y="115" on="1"/>
        <pt x="-190" y="90" on="0"/>
        <pt x="-226" y="55" on="0"/>
        <pt x="-250" y="55" on="1"/>
        <pt x="-275" y="55" on="0"/>
        <pt x="-310" y="90" on="0"/>
        <pt x="-310" y="115" on="1"/>
        <pt x="-310" y="250" on="1"/>
        <pt x="-445" y="250" on="1"/>
        <pt x="-470" y="250" on="0"/>
        <pt x="-505" y="285" on="0"/>
        <pt x="-505" y="310" on="1"/>
        <pt x="-505" y="335" on="0"/>
        <pt x="-470" y="370" on="0"/>
        <pt x="-445" y="370" on="1"/>
        <pt x="-310" y="370" on="1"/>
        <pt x="-310" y="505" on="1"/>
        <pt x="-310" y="529" on="0"/>
        <pt x="-275" y="565" on="0"/>
        <pt x="-250" y="565" on="1"/>
        <pt x="-226" y="565" on="0"/>
        <pt x="-190" y="529" on="0"/>
        <pt x="-190" y="505" on="1"/>
        <pt x="-190" y="370" on="1"/>
      </contour>
    </TTGlyph>
    <TTGlyph name="plus_plus_plus" xMin="-1095" yMin="55" xMax="495" yMax="565">
      <contour>
        <pt x="-780" y="250" on="1"/>
        <pt x="-780" y="115" on="1"/>
        <pt x="-780" y="90" on="0"/>
        <pt x="-816" y="55" on="0"/>
        <pt x="-840" y="55" on="1"/>
        <pt x="-865" y="55" on="0"/>
        <pt x="-900" y="90" on="0"/>
        <pt x="-900" y="115" on="1"/>
        <pt x="-900" y="250" on="1"/>
        <pt x="-1035" y="250" on="1"/>
        <pt x="-1060" y="250" on="0"/>
        <pt x="-1095" y="285" on="0"/>
        <pt x="-1095" y="310" on="1"/>
        <pt x="-1095" y="335" on="0"/>
        <pt x="-1060" y="370" on="0"/>
        <pt x="-1035" y="370" on="1"/>
        <pt x="-900" y="370" on="1"/>
        <pt x="-900" y="505" on="1"/>
        <pt x="-900" y="529" on="0"/>
        <pt x="-865" y="565" on="0"/>
        <pt x="-840" y="565" on="1"/>
        <pt x="-816" y="565" on="0"/>
        <pt x="-780" y="529" on="0"/>
        <pt x="-780" y="505" on="1"/>
        <pt x="-780" y="370" on="1"/>
        <pt x="-360" y="370" on="1"/>
        <pt x="-360" y="505" on="1"/>
        <pt x="-360" y="529" on="0"/>
        <pt x="-325" y="565" on="0"/>
        <pt x="-300" y="565" on="1"/>
        <pt x="-276" y="565" on="0"/>
        <pt x="-240" y="529" on="0"/>
        <pt x="-240" y="505" on="1"/>
        <pt x="-240" y="370" on="1"/>
        <pt x="180" y="370" on="1"/>
        <pt x="180" y="505" on="1"/>
        <pt x="180" y="529" on="0"/>
        <pt x="215" y="565" on="0"/>
        <pt x="240" y="565" on="1"/>
        <pt x="264" y="565" on="0"/>
        <pt x="300" y="529" on="0"/>
        <pt x="300" y="505" on="1"/>
        <pt x="300" y="370" on="1"/>
        <pt x="435" y="370" on="1"/>
        <pt x="459" y="370" on="0"/>
        <pt x="495" y="335" on="0"/>
        <pt x="495" y="310" on="1"/>
        <pt x="495" y="285" on="0"/>
        <pt x="459" y="250" on="0"/>
        <pt x="435" y="250" on="1"/>
        <pt x="300" y="250" on="1"/>
        <pt x="300" y="115" on="1"/>
        <pt x="300" y="90" on="0"/>
        <pt x="264" y="55" on="0"/>
        <pt x="240" y="55" on="1"/>
        <pt x="215" y="55" on="0"/>
        <pt x="180" y="90" on="0"/>
        <pt x="180" y="115" on="1"/>
        <pt x="180" y="250" on="1"/>
        <pt x="-240" y="250" on="1"/>
        <pt x="-240" y="115" on="1"/>
        <pt x="-240" y="90" on="0"/>
        <pt x="-276" y="55" on="0"/>
        <pt x="-300" y="55" on="1"/>
        <pt x="-325" y="55" on="0"/>
        <pt x="-360" y="90" on="0"/>
        <pt x="-360" y="115" on="1"/>
        <pt x="-360" y="250" on="1"/>
      </contour>
    </TTGlyph>
    <TTGlyph name="q" xMin="61" yMin="-265" xMax="525" yMax="570">
      <contour>
        <pt x="291" y="450" on="1"/>
        <pt x="185" y="447" on="0"/>
        <pt x="181" y="284" on="1"/>
        <pt x="181" y="198" on="0"/>
        <pt x="242" y="116" on="0"/>
        <pt x="289" y="116" on="1"/>
        <pt x="337" y="116" on="0"/>
        <pt x="369" y="150" on="1"/>
        <pt x="405" y="190" on="0"/>
        <pt x="405" y="232" on="1"/>
        <pt x="405" y="332" on="1"/>
        <pt x="405" y="387" on="0"/>
        <pt x="334" y="450" on="0"/>
        <pt x="297" y="450" on="1"/>
      </contour>
      <contour>
        <pt x="273" y="570" on="1"/>
        <pt x="357" y="570" on="0"/>
        <pt x="409" y="517" on="1"/>
        <pt x="410" y="515" on="0"/>
        <pt x="410" y="515" on="1"/>
        <pt x="408" y="515" on="0"/>
        <pt x="409" y="522" on="1"/>
        <pt x="416" y="570" on="0"/>
        <pt x="467" y="570" on="1"/>
        <pt x="492" y="570" on="0"/>
        <pt x="525" y="536" on="0"/>
        <pt x="525" y="509" on="1"/>
        <pt x="525" y="-203" on="1"/>
        <pt x="525" y="-230" on="0"/>
        <pt x="488" y="-265" on="0"/>
        <pt x="465" y="-265" on="1"/>
        <pt x="442" y="-265" on="0"/>
        <pt x="405" y="-230" on="0"/>
        <pt x="405" y="-203" on="1"/>
        <pt x="405" y="18" on="1"/>
        <pt x="405" y="23" on="0"/>
        <pt x="405" y="24" on="0"/>
        <pt x="403" y="24" on="1"/>
        <pt x="399" y="24" on="0"/>
        <pt x="393" y="18" on="1"/>
        <pt x="345" y="-20" on="0"/>
        <pt x="274" y="-20" on="1"/>
        <pt x="181" y="-20" on="0"/>
        <pt x="61" y="140" on="0"/>
        <pt x="61" y="268" on="1"/>
        <pt x="62" y="413" on="0"/>
        <pt x="167" y="570" on="0"/>
      </contour>
    </TTGlyph>
    <TTGlyph name="question" xMin="92" yMin="-20" xMax="509" yMax="770">
      <contour>
        <pt x="300" y="245" on="1"/>
        <pt x="270" y="245" on="0"/>
        <pt x="237" y="282" on="0"/>
        <pt x="237" y="317" on="1"/>
        <pt x="237" y="362" on="0"/>
        <pt x="288" y="431" on="0"/>
        <pt x="336" y="471" on="1"/>
        <pt x="388" y="516" on="0"/>
        <pt x="388" y="562" on="1"/>
        <pt x="388" y="654" on="0"/>
        <pt x="301" y="654" on="1"/>
        <pt x="237" y="654" on="0"/>
        <pt x="211" y="593" on="1"/>
        <pt x="197" y="554" on="0"/>
        <pt x="179" y="548" on="1"/>
        <pt x="166" y="543" on="0"/>
        <pt x="151" y="543" on="1"/>
        <pt x="92" y="544" on="0"/>
        <pt x="92" y="605" on="1"/>
        <pt x="92" y="624" on="0"/>
        <pt x="101" y="648" on="1"/>
        <pt x="155" y="770" on="0"/>
        <pt x="298" y="770" on="1"/>
        <pt x="397" y="770" on="0"/>
        <pt x="509" y="657" on="0"/>
        <pt x="509" y="561" on="1"/>
        <pt x="509" y="465" on="0"/>
        <pt x="424" y="388" on="1"/>
        <pt x="364" y="337" on="0"/>
        <pt x="361" y="301" on="1"/>
        <pt x="358" y="279" on="0"/>
        <pt x="329" y="245" on="0"/>
      </contour>
      <contour>
        <pt x="302" y="-20" on="1"/>
        <pt x="261" y="-20" on="0"/>
        <pt x="204" y="38" on="0"/>
        <pt x="204" y="78" on="1"/>
        <pt x="204" y="119" on="0"/>
        <pt x="261" y="177" on="0"/>
        <pt x="302" y="177" on="1"/>
        <pt x="341" y="177" on="0"/>
        <pt x="397" y="119" on="0"/>
        <pt x="397" y="78" on="1"/>
        <pt x="397" y="38" on="0"/>
        <pt x="341" y="-20" on="0"/>
      </contour>
    </TTGlyph>
    <TTGlyph name="quotedbl" xMin="150" yMin="535" xMax="449" yMax="815">
      <contour>
        <pt x="210" y="535" on="1"/>
        <pt x="187" y="535" on="0"/>
        <pt x="150" y="571" on="0"/>
        <pt x="150" y="595" on="1"/>
        <pt x="150" y="755" on="1"/>
        <pt x="150" y="778" on="0"/>
        <pt x="187" y="815" on="0"/>
        <pt x="210" y="815" on="1"/>
        <pt x="233" y="815" on="0"/>
        <pt x="270" y="778" on="0"/>
        <pt x="270" y="755" on="1"/>
        <pt x="270" y="595" on="1"/>
        <pt x="270" y="571" on="0"/>
        <pt x="233" y="535" on="0"/>
      </contour>
      <contour>
        <pt x="389" y="535" on="1"/>
        <pt x="366" y="535" on="0"/>
        <pt x="329" y="571" on="0"/>
        <pt x="329" y="595" on="1"/>
        <pt x="329" y="755" on="1"/>
        <pt x="329" y="778" on="0"/>
        <pt x="366" y="815" on="0"/>
        <pt x="389" y="815" on="1"/>
        <pt x="412" y="815" on="0"/>
        <pt x="449" y="778" on="0"/>
        <pt x="449" y="755" on="1"/>
        <pt x="449" y="595" on="1"/>
        <pt x="449" y="571" on="0"/>
        <pt x="412" y="535" on="0"/>
      </contour>
    </TTGlyph>
    <TTGlyph name="quotesingle" xMin="240" yMin="535" xMax="360" yMax="815">
      <contour>
        <pt x="300" y="535" on="1"/>
        <pt x="277" y="535" on="0"/>
        <pt x="240" y="571" on="0"/>
        <pt x="240" y="595" on="1"/>
        <pt x="240" y="755" on="1"/>
        <pt x="240" y="778" on="0"/>
        <pt x="277" y="815" on="0"/>
        <pt x="300" y="815" on="1"/>
        <pt x="323" y="815" on="0"/>
        <pt x="360" y="778" on="0"/>
        <pt x="360" y="755" on="1"/>
        <pt x="360" y="595" on="1"/>
        <pt x="360" y="571" on="0"/>
        <pt x="323" y="535" on="0"/>
      </contour>
    </TTGlyph>
    <TTGlyph name="r" xMin="85" yMin="-20" xMax="550" yMax="570">
      <contour>
        <pt x="146" y="-20" on="1"/>
        <pt x="119" y="-20" on="0"/>
        <pt x="85" y="14" on="0"/>
        <pt x="85" y="40" on="1"/>
        <pt x="85" y="510" on="1"/>
        <pt x="85" y="535" on="0"/>
        <pt x="119" y="570" on="0"/>
        <pt x="143" y="570" on="1"/>
        <pt x="169" y="570" on="0"/>
        <pt x="205" y="535" on="0"/>
        <pt x="205" y="510" on="1"/>
        <pt x="205" y="485" on="1"/>
        <pt x="205" y="483" on="0"/>
        <pt x="201" y="483" on="1"/>
        <pt x="204" y="483" on="0"/>
        <pt x="206" y="485" on="1"/>
        <pt x="271" y="570" on="0"/>
        <pt x="373" y="570" on="1"/>
        <pt x="452" y="570" on="0"/>
        <pt x="550" y="482" on="0"/>
        <pt x="550" y="385" on="1"/>
        <pt x="550" y="360" on="0"/>
        <pt x="519" y="325" on="0"/>
        <pt x="495" y="325" on="1"/>
        <pt x="472" y="325" on="0"/>
        <pt x="437" y="351" on="0"/>
        <pt x="433" y="377" on="1"/>
        <pt x="424" y="447" on="0"/>
        <pt x="364" y="447" on="1"/>
        <pt x="317" y="447" on="0"/>
        <pt x="205" y="360" on="0"/>
        <pt x="205" y="304" on="1"/>
        <pt x="205" y="40" on="1"/>
        <pt x="205" y="14" on="0"/>
        <pt x="170" y="-20" on="0"/>
      </contour>
    </TTGlyph>
    <TTGlyph name="right_arrow_double" xMin="-555" yMin="-11" xMax="497" yMax="624">
      <contour>
        <pt x="250" y="411" on="1"/>
        <pt x="210" y="372" on="1"/>
        <pt x="192" y="355" on="0"/>
        <pt x="166" y="355" on="1"/>
        <pt x="-494" y="355" on="1"/>
        <pt x="-518" y="355" on="0"/>
        <pt x="-554" y="387" on="0"/>
        <pt x="-555" y="413" on="1"/>
        <pt x="-555" y="440" on="0"/>
        <pt x="-520" y="475" on="0"/>
        <pt x="-495" y="475" on="1"/>
        <pt x="128" y="475" on="1"/>
        <pt x="141" y="475" on="0"/>
        <pt x="151" y="484" on="1"/>
        <pt x="164" y="496" on="1"/>
        <pt x="137" y="523" on="1"/>
        <pt x="122" y="539" on="0"/>
        <pt x="122" y="562" on="1"/>
        <pt x="122" y="586" on="0"/>
        <pt x="160" y="624" on="0"/>
        <pt x="185" y="624" on="1"/>
        <pt x="206" y="624" on="0"/>
        <pt x="222" y="609" on="1"/>
        <pt x="482" y="349" on="1"/>
        <pt x="497" y="333" on="0"/>
        <pt x="497" y="310" on="1"/>
        <pt x="497" y="286" on="0"/>
        <pt x="482" y="270" on="1"/>
        <pt x="216" y="4" on="1"/>
        <pt x="200" y="-11" on="0"/>
        <pt x="178" y="-11" on="1"/>
        <pt x="154" y="-11" on="0"/>
        <pt x="116" y="26" on="0"/>
        <pt x="116" y="51" on="1"/>
        <pt x="116" y="73" on="0"/>
        <pt x="131" y="89" on="1"/>
        <pt x="165" y="123" on="1"/>
        <pt x="151" y="135" on="1"/>
        <pt x="140" y="145" on="0"/>
        <pt x="128" y="145" on="1"/>
        <pt x="-495" y="145" on="1"/>
        <pt x="-519" y="145" on="0"/>
        <pt x="-555" y="180" on="0"/>
        <pt x="-555" y="204" on="1"/>
        <pt x="-555" y="206" on="1"/>
        <pt x="-554" y="232" on="0"/>
        <pt x="-518" y="265" on="0"/>
        <pt x="-494" y="265" on="1"/>
        <pt x="166" y="265" on="1"/>
        <pt x="191" y="265" on="0"/>
        <pt x="210" y="247" on="1"/>
        <pt x="250" y="208" on="1"/>
        <pt x="345" y="304" on="1"/>
        <pt x="348" y="306" on="0"/>
        <pt x="348" y="310" on="1"/>
        <pt x="348" y="313" on="0"/>
        <pt x="345" y="315" on="1"/>
      </contour>
    </TTGlyph>
    <TTGlyph name="right_arrow_double_long" xMin="-1155" yMin="-11" xMax="497" yMax="624">
      <contour>
        <pt x="250" y="411" on="1"/>
        <pt x="210" y="372" on="1"/>
        <pt x="192" y="355" on="0"/>
        <pt x="166" y="355" on="1"/>
        <pt x="-1094" y="355" on="1"/>
        <pt x="-1118" y="355" on="0"/>
        <pt x="-1154" y="387" on="0"/>
        <pt x="-1155" y="413" on="1"/>
        <pt x="-1155" y="440" on="0"/>
        <pt x="-1120" y="475" on="0"/>
        <pt x="-1095" y="475" on="1"/>
        <pt x="128" y="475" on="1"/>
        <pt x="141" y="475" on="0"/>
        <pt x="151" y="484" on="1"/>
        <pt x="164" y="496" on="1"/>
        <pt x="137" y="523" on="1"/>
        <pt x="122" y="539" on="0"/>
        <pt x="122" y="562" on="1"/>
        <pt x="122" y="586" on="0"/>
        <pt x="160" y="624" on="0"/>
        <pt x="185" y="624" on="1"/>
        <pt x="206" y="624" on="0"/>
        <pt x="222" y="609" on="1"/>
        <pt x="482" y="349" on="1"/>
        <pt x="497" y="333" on="0"/>
        <pt x="497" y="310" on="1"/>
        <pt x="497" y="286" on="0"/>
        <pt x="482" y="270" on="1"/>
        <pt x="216" y="4" on="1"/>
        <pt x="200" y="-11" on="0"/>
        <pt x="178" y="-11" on="1"/>
        <pt x="154" y="-11" on="0"/>
        <pt x="116" y="26" on="0"/>
        <pt x="116" y="51" on="1"/>
        <pt x="116" y="73" on="0"/>
        <pt x="131" y="89" on="1"/>
        <pt x="165" y="123" on="1"/>
        <pt x="151" y="135" on="1"/>
        <pt x="140" y="145" on="0"/>
        <pt x="128" y="145" on="1"/>
        <pt x="-1095" y="145" on="1"/>
        <pt x="-1119" y="145" on="0"/>
        <pt x="-1155" y="180" on="0"/>
        <pt x="-1155" y="204" on="1"/>
        <pt x="-1155" y="206" on="1"/>
        <pt x="-1154" y="232" on="0"/>
        <pt x="-1118" y="265" on="0"/>
        <pt x="-1094" y="265" on="1"/>
        <pt x="166" y="265" on="1"/>
        <pt x="191" y="265" on="0"/>
        <pt x="210" y="247" on="1"/>
        <pt x="250" y="208" on="1"/>
        <pt x="345" y="304" on="1"/>
        <pt x="348" y="306" on="0"/>
        <pt x="348" y="310" on="1"/>
        <pt x="348" y="313" on="0"/>
        <pt x="345" y="315" on="1"/>
      </contour>
    </TTGlyph>
    <TTGlyph name="right_arrow_single" xMin="-555" yMin="-11" xMax="497" yMax="624">
      <contour>
        <pt x="178" y="-11" on="1"/>
        <pt x="156" y="-11" on="0"/>
        <pt x="116" y="28" on="0"/>
        <pt x="116" y="51" on="1"/>
        <pt x="116" y="74" on="0"/>
        <pt x="132" y="89" on="1"/>
        <pt x="208" y="166" on="1"/>
        <pt x="122" y="250" on="1"/>
        <pt x="-495" y="250" on="1"/>
        <pt x="-518" y="250" on="0"/>
        <pt x="-555" y="285" on="0"/>
        <pt x="-555" y="310" on="1"/>
        <pt x="-555" y="333" on="0"/>
        <pt x="-519" y="370" on="0"/>
        <pt x="-495" y="370" on="1"/>
        <pt x="122" y="370" on="1"/>
        <pt x="207" y="453" on="1"/>
        <pt x="138" y="523" on="1"/>
        <pt x="122" y="542" on="0"/>
        <pt x="122" y="562" on="1"/>
        <pt x="122" y="584" on="0"/>
        <pt x="162" y="624" on="0"/>
        <pt x="185" y="624" on="1"/>
        <pt x="207" y="624" on="0"/>
        <pt x="222" y="608" on="1"/>
        <pt x="482" y="348" on="1"/>
        <pt x="497" y="328" on="0"/>
        <pt x="497" y="310" on="1"/>
        <pt x="497" y="290" on="0"/>
        <pt x="482" y="270" on="1"/>
        <pt x="216" y="5" on="1"/>
        <pt x="201" y="-11" on="0"/>
      </contour>
      <contour>
        <pt x="293" y="254" on="1"/>
        <pt x="295" y="254" on="0"/>
        <pt x="297" y="255" on="0"/>
        <pt x="347" y="305" on="0"/>
        <pt x="348" y="306" on="0"/>
        <pt x="348" y="308" on="1"/>
        <pt x="348" y="309" on="1"/>
        <pt x="348" y="311" on="0"/>
        <pt x="348" y="313" on="0"/>
        <pt x="297" y="364" on="0"/>
        <pt x="295" y="365" on="0"/>
        <pt x="293" y="365" on="1"/>
        <pt x="290" y="365" on="0"/>
        <pt x="288" y="364" on="0"/>
        <pt x="237" y="315" on="0"/>
        <pt x="236" y="312" on="0"/>
        <pt x="236" y="310" on="1"/>
        <pt x="236" y="308" on="0"/>
        <pt x="237" y="305" on="0"/>
        <pt x="288" y="255" on="0"/>
        <pt x="290" y="254" on="0"/>
      </contour>
    </TTGlyph>
</ttFont>
